G04*
G04 #@! TF.GenerationSoftware,Altium Limited,Altium Designer,23.2.1 (34)*
G04*
G04 Layer_Color=32896*
%FSLAX25Y25*%
%MOIN*%
G70*
G04*
G04 #@! TF.SameCoordinates,08813931-105C-4D26-8E83-7783437ACDD9*
G04*
G04*
G04 #@! TF.FilePolarity,Positive*
G04*
G01*
G75*
%ADD10C,0.00984*%
%ADD15C,0.00787*%
G36*
X20590Y178103D02*
X20715Y178080D01*
X20821Y178043D01*
X20914Y178006D01*
X20955Y177983D01*
X20988Y177964D01*
X21020Y177946D01*
X21043Y177928D01*
X21062Y177914D01*
X21076Y177904D01*
X21085Y177900D01*
X21089Y177895D01*
X21177Y177807D01*
X21247Y177710D01*
X21302Y177609D01*
X21348Y177507D01*
X21376Y177419D01*
X21390Y177382D01*
X21399Y177350D01*
X21404Y177322D01*
X21408Y177304D01*
X21413Y177290D01*
Y177285D01*
X21020Y177216D01*
X21002Y177318D01*
X20974Y177406D01*
X20942Y177479D01*
X20909Y177540D01*
X20877Y177586D01*
X20849Y177618D01*
X20831Y177641D01*
X20826Y177646D01*
X20766Y177692D01*
X20701Y177729D01*
X20641Y177752D01*
X20581Y177770D01*
X20526Y177780D01*
X20484Y177789D01*
X20447D01*
X20364Y177784D01*
X20290Y177766D01*
X20225Y177743D01*
X20170Y177720D01*
X20128Y177692D01*
X20096Y177669D01*
X20073Y177650D01*
X20068Y177646D01*
X20018Y177590D01*
X19981Y177530D01*
X19958Y177470D01*
X19939Y177415D01*
X19930Y177364D01*
X19920Y177327D01*
Y177299D01*
Y177295D01*
Y177290D01*
Y177239D01*
X19930Y177193D01*
X19953Y177114D01*
X19985Y177045D01*
X20022Y176985D01*
X20059Y176944D01*
X20091Y176911D01*
X20115Y176893D01*
X20119Y176888D01*
X20124D01*
X20202Y176847D01*
X20276Y176814D01*
X20355Y176791D01*
X20424Y176777D01*
X20484Y176768D01*
X20535Y176759D01*
X20595D01*
X20614Y176763D01*
X20637D01*
X20683Y176417D01*
X20623Y176431D01*
X20567Y176440D01*
X20521Y176449D01*
X20480Y176454D01*
X20447Y176458D01*
X20406D01*
X20309Y176449D01*
X20221Y176431D01*
X20142Y176403D01*
X20078Y176371D01*
X20027Y176338D01*
X19990Y176311D01*
X19967Y176292D01*
X19958Y176283D01*
X19897Y176214D01*
X19851Y176140D01*
X19819Y176066D01*
X19800Y175992D01*
X19787Y175932D01*
X19782Y175881D01*
X19777Y175862D01*
Y175849D01*
Y175839D01*
Y175835D01*
X19787Y175733D01*
X19810Y175641D01*
X19837Y175562D01*
X19874Y175493D01*
X19911Y175437D01*
X19939Y175396D01*
X19962Y175368D01*
X19971Y175359D01*
X20045Y175294D01*
X20124Y175248D01*
X20202Y175216D01*
X20276Y175192D01*
X20341Y175179D01*
X20392Y175174D01*
X20410Y175169D01*
X20438D01*
X20521Y175174D01*
X20600Y175192D01*
X20669Y175216D01*
X20724Y175243D01*
X20771Y175267D01*
X20808Y175290D01*
X20826Y175308D01*
X20835Y175313D01*
X20891Y175377D01*
X20937Y175451D01*
X20978Y175530D01*
X21011Y175613D01*
X21034Y175682D01*
X21043Y175715D01*
X21048Y175742D01*
X21052Y175765D01*
X21057Y175784D01*
X21062Y175793D01*
Y175798D01*
X21454Y175747D01*
X21445Y175673D01*
X21431Y175604D01*
X21390Y175474D01*
X21339Y175364D01*
X21311Y175317D01*
X21283Y175271D01*
X21256Y175230D01*
X21228Y175197D01*
X21205Y175165D01*
X21182Y175142D01*
X21168Y175123D01*
X21154Y175109D01*
X21145Y175100D01*
X21140Y175095D01*
X21085Y175054D01*
X21029Y175012D01*
X20974Y174980D01*
X20914Y174952D01*
X20798Y174906D01*
X20687Y174878D01*
X20637Y174869D01*
X20590Y174860D01*
X20549Y174855D01*
X20512Y174851D01*
X20484Y174846D01*
X20443D01*
X20355Y174851D01*
X20276Y174860D01*
X20198Y174874D01*
X20124Y174892D01*
X20054Y174915D01*
X19995Y174938D01*
X19934Y174966D01*
X19884Y174994D01*
X19833Y175017D01*
X19791Y175045D01*
X19754Y175068D01*
X19726Y175091D01*
X19703Y175109D01*
X19685Y175123D01*
X19676Y175133D01*
X19671Y175137D01*
X19616Y175192D01*
X19569Y175253D01*
X19528Y175313D01*
X19491Y175373D01*
X19463Y175428D01*
X19435Y175488D01*
X19399Y175599D01*
X19389Y175650D01*
X19380Y175696D01*
X19371Y175738D01*
X19366Y175775D01*
X19362Y175802D01*
Y175826D01*
Y175839D01*
Y175844D01*
X19366Y175955D01*
X19385Y176057D01*
X19412Y176144D01*
X19440Y176218D01*
X19468Y176278D01*
X19496Y176324D01*
X19514Y176352D01*
X19519Y176361D01*
X19583Y176431D01*
X19653Y176491D01*
X19726Y176537D01*
X19800Y176574D01*
X19865Y176602D01*
X19916Y176620D01*
X19934Y176625D01*
X19948Y176629D01*
X19958Y176634D01*
X19962D01*
X19884Y176676D01*
X19819Y176717D01*
X19763Y176763D01*
X19717Y176805D01*
X19680Y176842D01*
X19653Y176874D01*
X19639Y176893D01*
X19634Y176902D01*
X19597Y176967D01*
X19569Y177031D01*
X19546Y177096D01*
X19533Y177156D01*
X19523Y177207D01*
X19519Y177244D01*
Y177271D01*
Y177281D01*
X19523Y177359D01*
X19537Y177438D01*
X19556Y177507D01*
X19579Y177567D01*
X19602Y177618D01*
X19620Y177660D01*
X19634Y177683D01*
X19639Y177692D01*
X19685Y177761D01*
X19740Y177821D01*
X19796Y177872D01*
X19851Y177918D01*
X19897Y177951D01*
X19939Y177978D01*
X19967Y177992D01*
X19971Y177997D01*
X19976D01*
X20059Y178034D01*
X20142Y178062D01*
X20225Y178085D01*
X20299Y178098D01*
X20359Y178108D01*
X20410Y178112D01*
X20526D01*
X20590Y178103D01*
D02*
G37*
G36*
X24975Y174901D02*
X24531D01*
X23857Y177336D01*
X23838Y177396D01*
X23824Y177461D01*
X23806Y177526D01*
X23792Y177581D01*
X23778Y177632D01*
X23769Y177673D01*
X23764Y177701D01*
X23760Y177706D01*
Y177710D01*
X23755Y177697D01*
X23751Y177673D01*
X23737Y177623D01*
X23718Y177563D01*
X23700Y177498D01*
X23686Y177438D01*
X23672Y177387D01*
X23667Y177364D01*
X23663Y177350D01*
X23658Y177341D01*
Y177336D01*
X22988Y174901D01*
X22572D01*
X21695Y178098D01*
X22124D01*
X22623Y176043D01*
X22660Y175899D01*
X22688Y175770D01*
X22716Y175650D01*
X22739Y175548D01*
X22753Y175502D01*
X22757Y175461D01*
X22767Y175428D01*
X22771Y175400D01*
X22780Y175377D01*
Y175359D01*
X22785Y175350D01*
Y175345D01*
X22817Y175548D01*
X22859Y175747D01*
X22900Y175936D01*
X22919Y176024D01*
X22942Y176112D01*
X22961Y176190D01*
X22979Y176260D01*
X22998Y176320D01*
X23011Y176375D01*
X23021Y176417D01*
X23030Y176449D01*
X23039Y176472D01*
Y176477D01*
X23492Y178098D01*
X24005D01*
X24610Y175936D01*
X24614Y175918D01*
X24624Y175890D01*
X24633Y175853D01*
X24642Y175812D01*
X24656Y175765D01*
X24665Y175715D01*
X24693Y175613D01*
X24716Y175511D01*
X24730Y175465D01*
X24739Y175428D01*
X24744Y175391D01*
X24753Y175368D01*
X24758Y175350D01*
Y175345D01*
X24781Y175465D01*
X24804Y175585D01*
X24827Y175696D01*
X24850Y175793D01*
X24859Y175839D01*
X24869Y175881D01*
X24878Y175913D01*
X24882Y175946D01*
X24887Y175969D01*
X24892Y175987D01*
X24896Y175996D01*
Y176001D01*
X25372Y178098D01*
X25811D01*
X24975Y174901D01*
D02*
G37*
G36*
X27516Y178149D02*
X27622Y178136D01*
X27724Y178117D01*
X27812Y178098D01*
X27881Y178080D01*
X27913Y178071D01*
X27936Y178062D01*
X27955Y178052D01*
X27969Y178048D01*
X27978Y178043D01*
X27982D01*
X28075Y177997D01*
X28158Y177946D01*
X28227Y177891D01*
X28283Y177840D01*
X28324Y177794D01*
X28357Y177757D01*
X28380Y177729D01*
X28384Y177724D01*
Y177720D01*
X28431Y177641D01*
X28463Y177563D01*
X28486Y177484D01*
X28500Y177415D01*
X28509Y177355D01*
X28518Y177308D01*
Y177290D01*
Y177276D01*
Y177271D01*
Y177267D01*
X28514Y177188D01*
X28500Y177114D01*
X28481Y177045D01*
X28463Y176985D01*
X28444Y176939D01*
X28426Y176902D01*
X28412Y176879D01*
X28407Y176870D01*
X28361Y176805D01*
X28306Y176745D01*
X28250Y176694D01*
X28195Y176653D01*
X28149Y176616D01*
X28107Y176592D01*
X28080Y176574D01*
X28075Y176569D01*
X28070D01*
X28033Y176551D01*
X27992Y176532D01*
X27899Y176500D01*
X27793Y176468D01*
X27691Y176435D01*
X27599Y176408D01*
X27557Y176398D01*
X27520Y176389D01*
X27493Y176380D01*
X27470Y176375D01*
X27456Y176371D01*
X27451D01*
X27373Y176352D01*
X27299Y176334D01*
X27234Y176315D01*
X27179Y176301D01*
X27123Y176287D01*
X27077Y176274D01*
X27035Y176264D01*
X27003Y176251D01*
X26971Y176241D01*
X26948Y176237D01*
X26911Y176223D01*
X26888Y176218D01*
X26883Y176214D01*
X26814Y176186D01*
X26754Y176154D01*
X26703Y176121D01*
X26666Y176093D01*
X26633Y176066D01*
X26615Y176047D01*
X26601Y176033D01*
X26596Y176029D01*
X26564Y175987D01*
X26541Y175941D01*
X26527Y175895D01*
X26513Y175858D01*
X26509Y175821D01*
X26504Y175793D01*
Y175770D01*
Y175765D01*
X26509Y175710D01*
X26518Y175659D01*
X26532Y175613D01*
X26550Y175576D01*
X26569Y175539D01*
X26583Y175516D01*
X26592Y175497D01*
X26596Y175493D01*
X26633Y175447D01*
X26680Y175410D01*
X26726Y175377D01*
X26767Y175345D01*
X26809Y175327D01*
X26841Y175308D01*
X26864Y175299D01*
X26874Y175294D01*
X26943Y175271D01*
X27017Y175253D01*
X27091Y175243D01*
X27156Y175234D01*
X27211Y175230D01*
X27257Y175225D01*
X27299D01*
X27400Y175230D01*
X27493Y175239D01*
X27576Y175253D01*
X27650Y175271D01*
X27710Y175290D01*
X27756Y175303D01*
X27770Y175308D01*
X27784Y175313D01*
X27788Y175317D01*
X27793D01*
X27867Y175354D01*
X27936Y175396D01*
X27987Y175437D01*
X28033Y175479D01*
X28070Y175511D01*
X28093Y175544D01*
X28107Y175562D01*
X28112Y175567D01*
X28144Y175627D01*
X28177Y175691D01*
X28195Y175761D01*
X28213Y175821D01*
X28227Y175881D01*
X28236Y175923D01*
Y175941D01*
X28241Y175955D01*
Y175960D01*
Y175964D01*
X28638Y175927D01*
X28629Y175812D01*
X28611Y175701D01*
X28583Y175604D01*
X28551Y175516D01*
X28518Y175447D01*
X28504Y175419D01*
X28495Y175396D01*
X28481Y175377D01*
X28477Y175364D01*
X28468Y175354D01*
Y175350D01*
X28398Y175262D01*
X28324Y175183D01*
X28246Y175119D01*
X28172Y175063D01*
X28107Y175022D01*
X28052Y174994D01*
X28033Y174985D01*
X28019Y174975D01*
X28010Y174971D01*
X28005D01*
X27890Y174929D01*
X27770Y174897D01*
X27650Y174878D01*
X27534Y174860D01*
X27479Y174855D01*
X27433Y174851D01*
X27391D01*
X27354Y174846D01*
X27280D01*
X27156Y174851D01*
X27040Y174864D01*
X26934Y174888D01*
X26846Y174911D01*
X26772Y174929D01*
X26740Y174943D01*
X26712Y174952D01*
X26693Y174961D01*
X26680Y174966D01*
X26670Y174971D01*
X26666D01*
X26569Y175022D01*
X26486Y175077D01*
X26412Y175137D01*
X26352Y175192D01*
X26305Y175239D01*
X26273Y175280D01*
X26250Y175308D01*
X26245Y175313D01*
Y175317D01*
X26195Y175405D01*
X26158Y175488D01*
X26134Y175567D01*
X26116Y175641D01*
X26107Y175705D01*
X26098Y175756D01*
Y175775D01*
Y175788D01*
Y175793D01*
Y175798D01*
X26102Y175890D01*
X26116Y175978D01*
X26139Y176057D01*
X26162Y176121D01*
X26190Y176177D01*
X26208Y176218D01*
X26227Y176241D01*
X26232Y176251D01*
X26287Y176320D01*
X26352Y176384D01*
X26421Y176440D01*
X26490Y176491D01*
X26550Y176528D01*
X26601Y176555D01*
X26619Y176565D01*
X26633Y176574D01*
X26643Y176578D01*
X26647D01*
X26684Y176597D01*
X26730Y176611D01*
X26781Y176629D01*
X26837Y176648D01*
X26952Y176680D01*
X27072Y176713D01*
X27128Y176726D01*
X27179Y176740D01*
X27229Y176754D01*
X27271Y176763D01*
X27303Y176773D01*
X27331Y176777D01*
X27349Y176782D01*
X27354D01*
X27446Y176805D01*
X27530Y176823D01*
X27604Y176847D01*
X27668Y176865D01*
X27728Y176888D01*
X27779Y176907D01*
X27825Y176925D01*
X27867Y176939D01*
X27899Y176957D01*
X27927Y176971D01*
X27946Y176980D01*
X27964Y176994D01*
X27987Y177008D01*
X27992Y177013D01*
X28033Y177059D01*
X28061Y177105D01*
X28084Y177151D01*
X28098Y177198D01*
X28107Y177235D01*
X28112Y177267D01*
Y177285D01*
Y177295D01*
X28103Y177369D01*
X28084Y177433D01*
X28056Y177489D01*
X28024Y177540D01*
X27996Y177576D01*
X27969Y177609D01*
X27950Y177627D01*
X27941Y177632D01*
X27904Y177655D01*
X27867Y177678D01*
X27779Y177715D01*
X27687Y177738D01*
X27594Y177757D01*
X27511Y177766D01*
X27474Y177770D01*
X27446Y177775D01*
X27382D01*
X27253Y177770D01*
X27137Y177752D01*
X27045Y177724D01*
X26966Y177697D01*
X26906Y177669D01*
X26860Y177641D01*
X26837Y177623D01*
X26827Y177618D01*
X26763Y177553D01*
X26712Y177484D01*
X26670Y177410D01*
X26643Y177336D01*
X26624Y177267D01*
X26610Y177216D01*
X26606Y177193D01*
X26601Y177179D01*
Y177170D01*
Y177165D01*
X26195Y177198D01*
X26204Y177299D01*
X26227Y177392D01*
X26250Y177479D01*
X26282Y177553D01*
X26310Y177613D01*
X26333Y177660D01*
X26342Y177673D01*
X26352Y177687D01*
X26356Y177692D01*
Y177697D01*
X26416Y177775D01*
X26481Y177844D01*
X26550Y177904D01*
X26619Y177951D01*
X26680Y177992D01*
X26726Y178015D01*
X26744Y178025D01*
X26758Y178034D01*
X26767Y178039D01*
X26772D01*
X26874Y178075D01*
X26985Y178103D01*
X27086Y178126D01*
X27183Y178140D01*
X27271Y178149D01*
X27303D01*
X27336Y178154D01*
X27396D01*
X27516Y178149D01*
D02*
G37*
G36*
X20468Y144608D02*
X20547Y144603D01*
X20620Y144589D01*
X20690Y144575D01*
X20754Y144557D01*
X20814Y144538D01*
X20870Y144515D01*
X20921Y144492D01*
X20967Y144469D01*
X21004Y144446D01*
X21036Y144428D01*
X21064Y144409D01*
X21087Y144395D01*
X21101Y144381D01*
X21110Y144377D01*
X21115Y144372D01*
X21161Y144326D01*
X21203Y144275D01*
X21244Y144220D01*
X21276Y144164D01*
X21332Y144053D01*
X21369Y143942D01*
X21383Y143892D01*
X21397Y143841D01*
X21406Y143799D01*
X21415Y143762D01*
X21420Y143730D01*
Y143707D01*
X21424Y143693D01*
Y143688D01*
X21022Y143647D01*
X21013Y143753D01*
X20995Y143845D01*
X20967Y143929D01*
X20935Y143993D01*
X20907Y144049D01*
X20879Y144086D01*
X20861Y144109D01*
X20852Y144118D01*
X20782Y144174D01*
X20708Y144215D01*
X20630Y144247D01*
X20560Y144266D01*
X20496Y144280D01*
X20440Y144284D01*
X20422Y144289D01*
X20394D01*
X20297Y144284D01*
X20209Y144266D01*
X20135Y144238D01*
X20071Y144210D01*
X20020Y144178D01*
X19987Y144155D01*
X19964Y144137D01*
X19955Y144127D01*
X19900Y144063D01*
X19858Y143998D01*
X19826Y143933D01*
X19807Y143869D01*
X19794Y143818D01*
X19789Y143772D01*
X19784Y143744D01*
Y143739D01*
Y143735D01*
X19794Y143651D01*
X19812Y143564D01*
X19844Y143485D01*
X19877Y143411D01*
X19914Y143351D01*
X19946Y143300D01*
X19955Y143282D01*
X19964Y143268D01*
X19974Y143263D01*
Y143259D01*
X20011Y143208D01*
X20057Y143157D01*
X20108Y143102D01*
X20163Y143046D01*
X20279Y142935D01*
X20394Y142824D01*
X20454Y142774D01*
X20505Y142727D01*
X20556Y142686D01*
X20597Y142649D01*
X20630Y142621D01*
X20657Y142598D01*
X20676Y142584D01*
X20681Y142580D01*
X20796Y142483D01*
X20902Y142390D01*
X20990Y142307D01*
X21059Y142238D01*
X21119Y142178D01*
X21161Y142136D01*
X21184Y142108D01*
X21193Y142104D01*
Y142099D01*
X21258Y142021D01*
X21309Y141947D01*
X21355Y141873D01*
X21392Y141808D01*
X21420Y141753D01*
X21438Y141711D01*
X21448Y141683D01*
X21452Y141679D01*
Y141674D01*
X21471Y141623D01*
X21480Y141577D01*
X21489Y141531D01*
X21494Y141489D01*
X21498Y141452D01*
Y141425D01*
Y141406D01*
Y141402D01*
X19378D01*
Y141780D01*
X20953D01*
X20898Y141859D01*
X20870Y141891D01*
X20847Y141923D01*
X20824Y141951D01*
X20805Y141970D01*
X20791Y141984D01*
X20787Y141988D01*
X20764Y142011D01*
X20736Y142034D01*
X20671Y142095D01*
X20597Y142164D01*
X20519Y142233D01*
X20445Y142293D01*
X20413Y142321D01*
X20385Y142349D01*
X20362Y142367D01*
X20343Y142381D01*
X20334Y142390D01*
X20329Y142395D01*
X20256Y142459D01*
X20182Y142519D01*
X20117Y142580D01*
X20057Y142630D01*
X20001Y142681D01*
X19955Y142727D01*
X19909Y142769D01*
X19872Y142806D01*
X19835Y142843D01*
X19807Y142871D01*
X19784Y142894D01*
X19761Y142917D01*
X19738Y142945D01*
X19729Y142954D01*
X19664Y143032D01*
X19609Y143102D01*
X19563Y143171D01*
X19525Y143226D01*
X19498Y143277D01*
X19479Y143314D01*
X19470Y143337D01*
X19466Y143347D01*
X19438Y143416D01*
X19419Y143485D01*
X19401Y143550D01*
X19392Y143605D01*
X19387Y143656D01*
X19382Y143693D01*
Y143716D01*
Y143725D01*
X19387Y143795D01*
X19396Y143859D01*
X19405Y143924D01*
X19424Y143979D01*
X19470Y144090D01*
X19516Y144178D01*
X19544Y144220D01*
X19567Y144252D01*
X19590Y144284D01*
X19613Y144307D01*
X19632Y144326D01*
X19641Y144344D01*
X19650Y144349D01*
X19655Y144354D01*
X19706Y144400D01*
X19761Y144441D01*
X19821Y144474D01*
X19881Y144501D01*
X20001Y144548D01*
X20121Y144580D01*
X20172Y144589D01*
X20223Y144598D01*
X20269Y144603D01*
X20306Y144608D01*
X20339Y144612D01*
X20385D01*
X20468Y144608D01*
D02*
G37*
G36*
X24959Y141402D02*
X24515D01*
X23841Y143836D01*
X23822Y143896D01*
X23808Y143961D01*
X23790Y144026D01*
X23776Y144081D01*
X23762Y144132D01*
X23753Y144174D01*
X23748Y144201D01*
X23744Y144206D01*
Y144210D01*
X23739Y144197D01*
X23734Y144174D01*
X23720Y144123D01*
X23702Y144063D01*
X23684Y143998D01*
X23670Y143938D01*
X23656Y143887D01*
X23651Y143864D01*
X23647Y143850D01*
X23642Y143841D01*
Y143836D01*
X22972Y141402D01*
X22556D01*
X21678Y144598D01*
X22108D01*
X22607Y142543D01*
X22644Y142399D01*
X22672Y142270D01*
X22700Y142150D01*
X22723Y142048D01*
X22736Y142002D01*
X22741Y141961D01*
X22750Y141928D01*
X22755Y141900D01*
X22764Y141877D01*
Y141859D01*
X22769Y141850D01*
Y141845D01*
X22801Y142048D01*
X22843Y142247D01*
X22884Y142436D01*
X22903Y142524D01*
X22926Y142612D01*
X22944Y142691D01*
X22963Y142760D01*
X22981Y142820D01*
X22995Y142875D01*
X23004Y142917D01*
X23014Y142949D01*
X23023Y142972D01*
Y142977D01*
X23476Y144598D01*
X23989D01*
X24594Y142436D01*
X24598Y142418D01*
X24608Y142390D01*
X24617Y142353D01*
X24626Y142312D01*
X24640Y142265D01*
X24649Y142215D01*
X24677Y142113D01*
X24700Y142011D01*
X24714Y141965D01*
X24723Y141928D01*
X24728Y141891D01*
X24737Y141868D01*
X24742Y141850D01*
Y141845D01*
X24765Y141965D01*
X24788Y142085D01*
X24811Y142196D01*
X24834Y142293D01*
X24843Y142339D01*
X24852Y142381D01*
X24862Y142413D01*
X24866Y142446D01*
X24871Y142469D01*
X24875Y142487D01*
X24880Y142496D01*
Y142501D01*
X25356Y144598D01*
X25795D01*
X24959Y141402D01*
D02*
G37*
G36*
X27500Y144649D02*
X27606Y144635D01*
X27707Y144617D01*
X27795Y144598D01*
X27865Y144580D01*
X27897Y144571D01*
X27920Y144562D01*
X27939Y144552D01*
X27952Y144548D01*
X27962Y144543D01*
X27966D01*
X28059Y144497D01*
X28142Y144446D01*
X28211Y144391D01*
X28267Y144340D01*
X28308Y144294D01*
X28341Y144257D01*
X28364Y144229D01*
X28368Y144224D01*
Y144220D01*
X28414Y144141D01*
X28447Y144063D01*
X28470Y143984D01*
X28484Y143915D01*
X28493Y143855D01*
X28502Y143808D01*
Y143790D01*
Y143776D01*
Y143772D01*
Y143767D01*
X28498Y143688D01*
X28484Y143614D01*
X28465Y143545D01*
X28447Y143485D01*
X28428Y143439D01*
X28410Y143402D01*
X28396Y143379D01*
X28391Y143370D01*
X28345Y143305D01*
X28290Y143245D01*
X28234Y143194D01*
X28179Y143152D01*
X28133Y143115D01*
X28091Y143092D01*
X28063Y143074D01*
X28059Y143069D01*
X28054D01*
X28017Y143051D01*
X27975Y143032D01*
X27883Y143000D01*
X27777Y142968D01*
X27675Y142935D01*
X27583Y142908D01*
X27541Y142898D01*
X27504Y142889D01*
X27477Y142880D01*
X27453Y142875D01*
X27440Y142871D01*
X27435D01*
X27356Y142852D01*
X27283Y142834D01*
X27218Y142815D01*
X27162Y142801D01*
X27107Y142788D01*
X27061Y142774D01*
X27019Y142764D01*
X26987Y142751D01*
X26954Y142741D01*
X26931Y142737D01*
X26894Y142723D01*
X26871Y142718D01*
X26867Y142714D01*
X26797Y142686D01*
X26737Y142654D01*
X26686Y142621D01*
X26650Y142593D01*
X26617Y142566D01*
X26599Y142547D01*
X26585Y142533D01*
X26580Y142529D01*
X26548Y142487D01*
X26525Y142441D01*
X26511Y142395D01*
X26497Y142358D01*
X26493Y142321D01*
X26488Y142293D01*
Y142270D01*
Y142265D01*
X26493Y142210D01*
X26502Y142159D01*
X26516Y142113D01*
X26534Y142076D01*
X26553Y142039D01*
X26566Y142016D01*
X26576Y141998D01*
X26580Y141993D01*
X26617Y141947D01*
X26663Y141910D01*
X26710Y141877D01*
X26751Y141845D01*
X26793Y141826D01*
X26825Y141808D01*
X26848Y141799D01*
X26858Y141794D01*
X26927Y141771D01*
X27001Y141753D01*
X27075Y141743D01*
X27139Y141734D01*
X27195Y141729D01*
X27241Y141725D01*
X27283D01*
X27384Y141729D01*
X27477Y141739D01*
X27560Y141753D01*
X27634Y141771D01*
X27694Y141790D01*
X27740Y141803D01*
X27754Y141808D01*
X27768Y141813D01*
X27772Y141817D01*
X27777D01*
X27851Y141854D01*
X27920Y141896D01*
X27971Y141937D01*
X28017Y141979D01*
X28054Y142011D01*
X28077Y142044D01*
X28091Y142062D01*
X28096Y142067D01*
X28128Y142127D01*
X28160Y142192D01*
X28179Y142261D01*
X28197Y142321D01*
X28211Y142381D01*
X28220Y142422D01*
Y142441D01*
X28225Y142455D01*
Y142459D01*
Y142464D01*
X28622Y142427D01*
X28613Y142312D01*
X28595Y142201D01*
X28567Y142104D01*
X28534Y142016D01*
X28502Y141947D01*
X28488Y141919D01*
X28479Y141896D01*
X28465Y141877D01*
X28461Y141864D01*
X28451Y141854D01*
Y141850D01*
X28382Y141762D01*
X28308Y141683D01*
X28230Y141619D01*
X28156Y141563D01*
X28091Y141522D01*
X28036Y141494D01*
X28017Y141485D01*
X28003Y141475D01*
X27994Y141471D01*
X27989D01*
X27874Y141429D01*
X27754Y141397D01*
X27634Y141378D01*
X27518Y141360D01*
X27463Y141355D01*
X27417Y141351D01*
X27375D01*
X27338Y141346D01*
X27264D01*
X27139Y141351D01*
X27024Y141365D01*
X26917Y141388D01*
X26830Y141411D01*
X26756Y141429D01*
X26724Y141443D01*
X26696Y141452D01*
X26677Y141462D01*
X26663Y141466D01*
X26654Y141471D01*
X26650D01*
X26553Y141522D01*
X26469Y141577D01*
X26395Y141637D01*
X26335Y141692D01*
X26289Y141739D01*
X26257Y141780D01*
X26234Y141808D01*
X26229Y141813D01*
Y141817D01*
X26178Y141905D01*
X26141Y141988D01*
X26118Y142067D01*
X26100Y142141D01*
X26091Y142205D01*
X26081Y142256D01*
Y142275D01*
Y142288D01*
Y142293D01*
Y142298D01*
X26086Y142390D01*
X26100Y142478D01*
X26123Y142557D01*
X26146Y142621D01*
X26174Y142677D01*
X26192Y142718D01*
X26211Y142741D01*
X26215Y142751D01*
X26271Y142820D01*
X26335Y142885D01*
X26405Y142940D01*
X26474Y142991D01*
X26534Y143028D01*
X26585Y143055D01*
X26603Y143065D01*
X26617Y143074D01*
X26627Y143078D01*
X26631D01*
X26668Y143097D01*
X26714Y143111D01*
X26765Y143129D01*
X26820Y143148D01*
X26936Y143180D01*
X27056Y143212D01*
X27112Y143226D01*
X27162Y143240D01*
X27213Y143254D01*
X27255Y143263D01*
X27287Y143273D01*
X27315Y143277D01*
X27333Y143282D01*
X27338D01*
X27430Y143305D01*
X27514Y143323D01*
X27587Y143347D01*
X27652Y143365D01*
X27712Y143388D01*
X27763Y143407D01*
X27809Y143425D01*
X27851Y143439D01*
X27883Y143457D01*
X27911Y143471D01*
X27929Y143481D01*
X27948Y143494D01*
X27971Y143508D01*
X27975Y143513D01*
X28017Y143559D01*
X28045Y143605D01*
X28068Y143651D01*
X28082Y143698D01*
X28091Y143735D01*
X28096Y143767D01*
Y143785D01*
Y143795D01*
X28086Y143869D01*
X28068Y143933D01*
X28040Y143989D01*
X28008Y144039D01*
X27980Y144077D01*
X27952Y144109D01*
X27934Y144127D01*
X27925Y144132D01*
X27888Y144155D01*
X27851Y144178D01*
X27763Y144215D01*
X27671Y144238D01*
X27578Y144257D01*
X27495Y144266D01*
X27458Y144271D01*
X27430Y144275D01*
X27366D01*
X27236Y144271D01*
X27121Y144252D01*
X27028Y144224D01*
X26950Y144197D01*
X26890Y144169D01*
X26844Y144141D01*
X26820Y144123D01*
X26811Y144118D01*
X26747Y144053D01*
X26696Y143984D01*
X26654Y143910D01*
X26627Y143836D01*
X26608Y143767D01*
X26594Y143716D01*
X26590Y143693D01*
X26585Y143679D01*
Y143670D01*
Y143665D01*
X26178Y143698D01*
X26188Y143799D01*
X26211Y143892D01*
X26234Y143979D01*
X26266Y144053D01*
X26294Y144113D01*
X26317Y144160D01*
X26326Y144174D01*
X26335Y144187D01*
X26340Y144192D01*
Y144197D01*
X26400Y144275D01*
X26465Y144344D01*
X26534Y144404D01*
X26603Y144451D01*
X26663Y144492D01*
X26710Y144515D01*
X26728Y144525D01*
X26742Y144534D01*
X26751Y144538D01*
X26756D01*
X26858Y144575D01*
X26968Y144603D01*
X27070Y144626D01*
X27167Y144640D01*
X27255Y144649D01*
X27287D01*
X27319Y144654D01*
X27380D01*
X27500Y144649D01*
D02*
G37*
G36*
X19971Y112034D02*
X20022Y111960D01*
X20082Y111886D01*
X20138Y111821D01*
X20193Y111766D01*
X20235Y111720D01*
X20253Y111706D01*
X20267Y111692D01*
X20272Y111687D01*
X20276Y111683D01*
X20373Y111604D01*
X20470Y111530D01*
X20563Y111466D01*
X20655Y111415D01*
X20734Y111369D01*
X20766Y111350D01*
X20794Y111336D01*
X20817Y111322D01*
X20835Y111318D01*
X20844Y111309D01*
X20849D01*
Y110930D01*
X20780Y110957D01*
X20711Y110990D01*
X20641Y111022D01*
X20577Y111054D01*
X20521Y111082D01*
X20475Y111105D01*
X20447Y111124D01*
X20443Y111128D01*
X20438D01*
X20355Y111179D01*
X20281Y111230D01*
X20216Y111276D01*
X20165Y111318D01*
X20119Y111350D01*
X20091Y111378D01*
X20068Y111396D01*
X20064Y111401D01*
Y108902D01*
X19671D01*
Y112112D01*
X19925D01*
X19971Y112034D01*
D02*
G37*
G36*
X24665Y108902D02*
X24222D01*
X23547Y111336D01*
X23529Y111396D01*
X23515Y111461D01*
X23496Y111526D01*
X23483Y111581D01*
X23469Y111632D01*
X23460Y111673D01*
X23455Y111701D01*
X23450Y111706D01*
Y111710D01*
X23446Y111697D01*
X23441Y111673D01*
X23427Y111623D01*
X23409Y111563D01*
X23390Y111498D01*
X23376Y111438D01*
X23362Y111387D01*
X23358Y111364D01*
X23353Y111350D01*
X23349Y111341D01*
Y111336D01*
X22679Y108902D01*
X22263D01*
X21385Y112099D01*
X21815D01*
X22314Y110043D01*
X22351Y109899D01*
X22378Y109770D01*
X22406Y109650D01*
X22429Y109548D01*
X22443Y109502D01*
X22448Y109460D01*
X22457Y109428D01*
X22461Y109400D01*
X22471Y109377D01*
Y109359D01*
X22475Y109350D01*
Y109345D01*
X22508Y109548D01*
X22549Y109747D01*
X22591Y109936D01*
X22609Y110024D01*
X22633Y110112D01*
X22651Y110190D01*
X22669Y110260D01*
X22688Y110320D01*
X22702Y110375D01*
X22711Y110417D01*
X22720Y110449D01*
X22729Y110472D01*
Y110477D01*
X23182Y112099D01*
X23695D01*
X24300Y109936D01*
X24305Y109918D01*
X24314Y109890D01*
X24323Y109853D01*
X24333Y109812D01*
X24347Y109765D01*
X24356Y109715D01*
X24384Y109613D01*
X24407Y109511D01*
X24420Y109465D01*
X24430Y109428D01*
X24434Y109391D01*
X24443Y109368D01*
X24448Y109350D01*
Y109345D01*
X24471Y109465D01*
X24494Y109585D01*
X24517Y109696D01*
X24541Y109793D01*
X24550Y109839D01*
X24559Y109881D01*
X24568Y109913D01*
X24573Y109946D01*
X24577Y109969D01*
X24582Y109987D01*
X24587Y109996D01*
Y110001D01*
X25063Y112099D01*
X25501D01*
X24665Y108902D01*
D02*
G37*
G36*
X27206Y112149D02*
X27312Y112136D01*
X27414Y112117D01*
X27502Y112099D01*
X27571Y112080D01*
X27604Y112071D01*
X27627Y112062D01*
X27645Y112052D01*
X27659Y112048D01*
X27668Y112043D01*
X27673D01*
X27765Y111997D01*
X27849Y111946D01*
X27918Y111891D01*
X27973Y111840D01*
X28015Y111794D01*
X28047Y111757D01*
X28070Y111729D01*
X28075Y111724D01*
Y111720D01*
X28121Y111641D01*
X28153Y111563D01*
X28177Y111484D01*
X28190Y111415D01*
X28200Y111355D01*
X28209Y111309D01*
Y111290D01*
Y111276D01*
Y111272D01*
Y111267D01*
X28204Y111188D01*
X28190Y111115D01*
X28172Y111045D01*
X28153Y110985D01*
X28135Y110939D01*
X28116Y110902D01*
X28103Y110879D01*
X28098Y110870D01*
X28052Y110805D01*
X27996Y110745D01*
X27941Y110694D01*
X27885Y110652D01*
X27839Y110616D01*
X27798Y110592D01*
X27770Y110574D01*
X27765Y110569D01*
X27761D01*
X27724Y110551D01*
X27682Y110532D01*
X27590Y110500D01*
X27483Y110468D01*
X27382Y110435D01*
X27289Y110408D01*
X27248Y110398D01*
X27211Y110389D01*
X27183Y110380D01*
X27160Y110375D01*
X27146Y110371D01*
X27142D01*
X27063Y110352D01*
X26989Y110334D01*
X26924Y110315D01*
X26869Y110301D01*
X26814Y110287D01*
X26767Y110274D01*
X26726Y110264D01*
X26693Y110250D01*
X26661Y110241D01*
X26638Y110237D01*
X26601Y110223D01*
X26578Y110218D01*
X26573Y110214D01*
X26504Y110186D01*
X26444Y110153D01*
X26393Y110121D01*
X26356Y110093D01*
X26324Y110066D01*
X26305Y110047D01*
X26291Y110033D01*
X26287Y110029D01*
X26255Y109987D01*
X26232Y109941D01*
X26218Y109895D01*
X26204Y109858D01*
X26199Y109821D01*
X26195Y109793D01*
Y109770D01*
Y109765D01*
X26199Y109710D01*
X26208Y109659D01*
X26222Y109613D01*
X26241Y109576D01*
X26259Y109539D01*
X26273Y109516D01*
X26282Y109497D01*
X26287Y109493D01*
X26324Y109447D01*
X26370Y109410D01*
X26416Y109377D01*
X26458Y109345D01*
X26499Y109327D01*
X26532Y109308D01*
X26555Y109299D01*
X26564Y109294D01*
X26633Y109271D01*
X26707Y109253D01*
X26781Y109243D01*
X26846Y109234D01*
X26901Y109230D01*
X26948Y109225D01*
X26989D01*
X27091Y109230D01*
X27183Y109239D01*
X27266Y109253D01*
X27340Y109271D01*
X27400Y109290D01*
X27446Y109303D01*
X27460Y109308D01*
X27474Y109313D01*
X27479Y109317D01*
X27483D01*
X27557Y109354D01*
X27627Y109396D01*
X27678Y109437D01*
X27724Y109479D01*
X27761Y109511D01*
X27784Y109544D01*
X27798Y109562D01*
X27802Y109567D01*
X27835Y109627D01*
X27867Y109692D01*
X27885Y109761D01*
X27904Y109821D01*
X27918Y109881D01*
X27927Y109923D01*
Y109941D01*
X27932Y109955D01*
Y109959D01*
Y109964D01*
X28329Y109927D01*
X28320Y109812D01*
X28301Y109701D01*
X28273Y109604D01*
X28241Y109516D01*
X28209Y109447D01*
X28195Y109419D01*
X28186Y109396D01*
X28172Y109377D01*
X28167Y109363D01*
X28158Y109354D01*
Y109350D01*
X28089Y109262D01*
X28015Y109183D01*
X27936Y109119D01*
X27862Y109063D01*
X27798Y109022D01*
X27742Y108994D01*
X27724Y108985D01*
X27710Y108975D01*
X27701Y108971D01*
X27696D01*
X27580Y108929D01*
X27460Y108897D01*
X27340Y108878D01*
X27225Y108860D01*
X27169Y108855D01*
X27123Y108851D01*
X27082D01*
X27045Y108846D01*
X26971D01*
X26846Y108851D01*
X26730Y108864D01*
X26624Y108888D01*
X26536Y108911D01*
X26463Y108929D01*
X26430Y108943D01*
X26402Y108952D01*
X26384Y108961D01*
X26370Y108966D01*
X26361Y108971D01*
X26356D01*
X26259Y109022D01*
X26176Y109077D01*
X26102Y109137D01*
X26042Y109193D01*
X25996Y109239D01*
X25964Y109280D01*
X25940Y109308D01*
X25936Y109313D01*
Y109317D01*
X25885Y109405D01*
X25848Y109488D01*
X25825Y109567D01*
X25806Y109641D01*
X25797Y109705D01*
X25788Y109756D01*
Y109775D01*
Y109789D01*
Y109793D01*
Y109798D01*
X25793Y109890D01*
X25806Y109978D01*
X25829Y110056D01*
X25853Y110121D01*
X25880Y110177D01*
X25899Y110218D01*
X25917Y110241D01*
X25922Y110250D01*
X25977Y110320D01*
X26042Y110385D01*
X26111Y110440D01*
X26181Y110491D01*
X26241Y110528D01*
X26291Y110555D01*
X26310Y110565D01*
X26324Y110574D01*
X26333Y110579D01*
X26338D01*
X26375Y110597D01*
X26421Y110611D01*
X26472Y110629D01*
X26527Y110648D01*
X26643Y110680D01*
X26763Y110713D01*
X26818Y110726D01*
X26869Y110740D01*
X26920Y110754D01*
X26961Y110763D01*
X26994Y110773D01*
X27022Y110777D01*
X27040Y110782D01*
X27045D01*
X27137Y110805D01*
X27220Y110823D01*
X27294Y110846D01*
X27359Y110865D01*
X27419Y110888D01*
X27470Y110907D01*
X27516Y110925D01*
X27557Y110939D01*
X27590Y110957D01*
X27617Y110971D01*
X27636Y110980D01*
X27654Y110994D01*
X27678Y111008D01*
X27682Y111013D01*
X27724Y111059D01*
X27751Y111105D01*
X27775Y111151D01*
X27788Y111198D01*
X27798Y111235D01*
X27802Y111267D01*
Y111285D01*
Y111295D01*
X27793Y111369D01*
X27775Y111433D01*
X27747Y111489D01*
X27714Y111539D01*
X27687Y111576D01*
X27659Y111609D01*
X27641Y111627D01*
X27631Y111632D01*
X27594Y111655D01*
X27557Y111678D01*
X27470Y111715D01*
X27377Y111738D01*
X27285Y111757D01*
X27202Y111766D01*
X27165Y111770D01*
X27137Y111775D01*
X27072D01*
X26943Y111770D01*
X26827Y111752D01*
X26735Y111724D01*
X26656Y111697D01*
X26596Y111669D01*
X26550Y111641D01*
X26527Y111623D01*
X26518Y111618D01*
X26453Y111553D01*
X26402Y111484D01*
X26361Y111410D01*
X26333Y111336D01*
X26315Y111267D01*
X26301Y111216D01*
X26296Y111193D01*
X26291Y111179D01*
Y111170D01*
Y111165D01*
X25885Y111198D01*
X25894Y111299D01*
X25917Y111392D01*
X25940Y111479D01*
X25973Y111553D01*
X26000Y111613D01*
X26024Y111660D01*
X26033Y111673D01*
X26042Y111687D01*
X26047Y111692D01*
Y111697D01*
X26107Y111775D01*
X26171Y111844D01*
X26241Y111905D01*
X26310Y111951D01*
X26370Y111992D01*
X26416Y112015D01*
X26435Y112025D01*
X26449Y112034D01*
X26458Y112039D01*
X26463D01*
X26564Y112075D01*
X26675Y112103D01*
X26777Y112126D01*
X26874Y112140D01*
X26961Y112149D01*
X26994D01*
X27026Y112154D01*
X27086D01*
X27206Y112149D01*
D02*
G37*
G36*
X19274Y227321D02*
X19313Y227316D01*
X19346Y227305D01*
X19377Y227296D01*
X19402Y227285D01*
X19418Y227274D01*
X19429Y227269D01*
X19432Y227266D01*
X19460Y227244D01*
X19485Y227219D01*
X19507Y227194D01*
X19524Y227169D01*
X19537Y227144D01*
X19546Y227127D01*
X19551Y227116D01*
X19554Y227111D01*
X19562Y227091D01*
X19571Y227069D01*
X19590Y227016D01*
X19609Y226958D01*
X19626Y226900D01*
X19643Y226848D01*
X19648Y226822D01*
X19654Y226803D01*
X19659Y226786D01*
X19662Y226773D01*
X19665Y226764D01*
Y226762D01*
X19673Y226731D01*
X19681Y226703D01*
X19687Y226678D01*
X19695Y226656D01*
X19704Y226620D01*
X19712Y226593D01*
X19720Y226573D01*
X19723Y226562D01*
X19726Y226557D01*
Y226554D01*
X19737Y226532D01*
X19745Y226512D01*
X19756Y226496D01*
X19764Y226485D01*
X19773Y226473D01*
X19781Y226468D01*
X19784Y226465D01*
X19787Y226462D01*
X19814Y226446D01*
X19842Y226437D01*
X19853D01*
X19861Y226435D01*
X19867D01*
X19870D01*
X19895Y226437D01*
X19920Y226446D01*
X19942Y226457D01*
X19958Y226471D01*
X19975Y226482D01*
X19986Y226493D01*
X19992Y226501D01*
X19995Y226504D01*
X20014Y226535D01*
X20028Y226571D01*
X20036Y226609D01*
X20044Y226645D01*
X20047Y226681D01*
X20050Y226709D01*
Y226737D01*
X20047Y226784D01*
X20042Y226828D01*
X20030Y226864D01*
X20019Y226892D01*
X20008Y226917D01*
X19997Y226933D01*
X19992Y226944D01*
X19989Y226947D01*
X19964Y226975D01*
X19936Y226994D01*
X19909Y227011D01*
X19884Y227025D01*
X19859Y227033D01*
X19839Y227039D01*
X19828Y227041D01*
X19823D01*
X19853Y227271D01*
X19900Y227260D01*
X19942Y227249D01*
X19978Y227235D01*
X20011Y227221D01*
X20033Y227208D01*
X20053Y227197D01*
X20064Y227191D01*
X20066Y227188D01*
X20094Y227163D01*
X20119Y227136D01*
X20141Y227105D01*
X20161Y227075D01*
X20175Y227047D01*
X20186Y227025D01*
X20191Y227011D01*
X20194Y227008D01*
Y227005D01*
X20211Y226958D01*
X20222Y226908D01*
X20233Y226861D01*
X20238Y226817D01*
X20241Y226776D01*
X20244Y226745D01*
Y226678D01*
X20238Y226640D01*
X20235Y226606D01*
X20230Y226576D01*
X20224Y226551D01*
X20219Y226532D01*
X20216Y226521D01*
X20213Y226515D01*
X20202Y226482D01*
X20191Y226451D01*
X20180Y226426D01*
X20169Y226404D01*
X20161Y226388D01*
X20152Y226377D01*
X20150Y226368D01*
X20147Y226365D01*
X20127Y226338D01*
X20105Y226316D01*
X20080Y226296D01*
X20061Y226280D01*
X20042Y226266D01*
X20028Y226257D01*
X20017Y226252D01*
X20014Y226249D01*
X19983Y226235D01*
X19956Y226224D01*
X19925Y226219D01*
X19900Y226213D01*
X19875Y226210D01*
X19859Y226208D01*
X19848D01*
X19842D01*
X19803Y226210D01*
X19770Y226216D01*
X19737Y226224D01*
X19709Y226233D01*
X19687Y226241D01*
X19668Y226249D01*
X19657Y226255D01*
X19654Y226257D01*
X19623Y226280D01*
X19598Y226305D01*
X19576Y226329D01*
X19557Y226354D01*
X19543Y226377D01*
X19532Y226393D01*
X19526Y226404D01*
X19524Y226410D01*
X19515Y226429D01*
X19504Y226454D01*
X19485Y226509D01*
X19468Y226568D01*
X19449Y226629D01*
X19435Y226681D01*
X19427Y226706D01*
X19421Y226728D01*
X19415Y226745D01*
X19413Y226759D01*
X19410Y226767D01*
Y226770D01*
X19402Y226806D01*
X19393Y226836D01*
X19385Y226864D01*
X19377Y226889D01*
X19371Y226911D01*
X19363Y226931D01*
X19352Y226964D01*
X19343Y226986D01*
X19335Y227000D01*
X19332Y227008D01*
X19330Y227011D01*
X19313Y227036D01*
X19291Y227052D01*
X19272Y227066D01*
X19252Y227075D01*
X19233Y227080D01*
X19219Y227083D01*
X19208D01*
X19205D01*
X19172Y227080D01*
X19144Y227072D01*
X19116Y227058D01*
X19094Y227044D01*
X19075Y227028D01*
X19061Y227016D01*
X19053Y227005D01*
X19050Y227003D01*
X19028Y226969D01*
X19014Y226933D01*
X19003Y226892D01*
X18994Y226853D01*
X18989Y226817D01*
X18986Y226789D01*
Y226762D01*
X18989Y226703D01*
X18997Y226654D01*
X19008Y226612D01*
X19022Y226576D01*
X19036Y226548D01*
X19047Y226526D01*
X19055Y226515D01*
X19058Y226509D01*
X19089Y226479D01*
X19125Y226454D01*
X19161Y226437D01*
X19194Y226424D01*
X19224Y226413D01*
X19252Y226407D01*
X19269Y226401D01*
X19272D01*
X19274D01*
X19238Y226169D01*
X19161Y226188D01*
X19091Y226213D01*
X19036Y226244D01*
X18989Y226274D01*
X18950Y226302D01*
X18925Y226327D01*
X18909Y226343D01*
X18906Y226346D01*
X18903Y226349D01*
X18884Y226377D01*
X18867Y226407D01*
X18839Y226473D01*
X18820Y226543D01*
X18806Y226609D01*
X18801Y226640D01*
X18798Y226667D01*
X18795Y226695D01*
Y226717D01*
X18792Y226737D01*
Y226762D01*
X18795Y226822D01*
X18801Y226875D01*
X18809Y226925D01*
X18820Y226969D01*
X18831Y227005D01*
X18839Y227033D01*
X18845Y227050D01*
X18848Y227052D01*
Y227055D01*
X18873Y227102D01*
X18898Y227141D01*
X18925Y227174D01*
X18950Y227205D01*
X18972Y227227D01*
X18992Y227241D01*
X19003Y227252D01*
X19008Y227255D01*
X19047Y227277D01*
X19089Y227293D01*
X19125Y227307D01*
X19158Y227316D01*
X19188Y227321D01*
X19210Y227324D01*
X19224D01*
X19230D01*
X19274Y227321D01*
D02*
G37*
G36*
X19598Y225983D02*
X19654Y225978D01*
X19706Y225969D01*
X19756Y225958D01*
X19803Y225944D01*
X19845Y225928D01*
X19886Y225911D01*
X19920Y225895D01*
X19950Y225878D01*
X19978Y225861D01*
X20003Y225845D01*
X20022Y225831D01*
X20036Y225820D01*
X20047Y225812D01*
X20053Y225806D01*
X20055Y225803D01*
X20089Y225767D01*
X20116Y225731D01*
X20144Y225692D01*
X20163Y225654D01*
X20183Y225615D01*
X20197Y225576D01*
X20222Y225501D01*
X20227Y225465D01*
X20233Y225435D01*
X20238Y225407D01*
X20241Y225382D01*
X20244Y225363D01*
Y225335D01*
X20241Y225288D01*
X20238Y225244D01*
X20219Y225158D01*
X20194Y225083D01*
X20180Y225050D01*
X20166Y225019D01*
X20152Y224992D01*
X20139Y224969D01*
X20125Y224947D01*
X20114Y224931D01*
X20102Y224917D01*
X20094Y224906D01*
X20091Y224900D01*
X20089Y224897D01*
X20053Y224859D01*
X20011Y224828D01*
X19967Y224798D01*
X19922Y224776D01*
X19875Y224753D01*
X19826Y224737D01*
X19778Y224723D01*
X19734Y224712D01*
X19690Y224701D01*
X19651Y224695D01*
X19612Y224690D01*
X19582Y224687D01*
X19554D01*
X19535Y224684D01*
X19524D01*
X19518D01*
X19454Y224687D01*
X19393Y224692D01*
X19338Y224701D01*
X19285Y224712D01*
X19238Y224726D01*
X19194Y224740D01*
X19152Y224756D01*
X19116Y224773D01*
X19083Y224789D01*
X19055Y224806D01*
X19033Y224820D01*
X19014Y224834D01*
X18997Y224845D01*
X18986Y224853D01*
X18981Y224859D01*
X18978Y224861D01*
X18945Y224897D01*
X18917Y224933D01*
X18892Y224972D01*
X18870Y225011D01*
X18853Y225050D01*
X18837Y225091D01*
X18814Y225166D01*
X18809Y225199D01*
X18803Y225233D01*
X18798Y225260D01*
X18795Y225285D01*
X18792Y225307D01*
Y225335D01*
X18795Y225401D01*
X18806Y225463D01*
X18820Y225521D01*
X18834Y225568D01*
X18850Y225609D01*
X18856Y225626D01*
X18861Y225640D01*
X18867Y225654D01*
X18873Y225662D01*
X18875Y225665D01*
Y225668D01*
X18911Y225723D01*
X18950Y225770D01*
X18989Y225812D01*
X19028Y225845D01*
X19061Y225870D01*
X19089Y225889D01*
X19100Y225895D01*
X19108Y225900D01*
X19111Y225903D01*
X19114D01*
X19177Y225931D01*
X19247Y225950D01*
X19316Y225967D01*
X19385Y225975D01*
X19415Y225980D01*
X19443D01*
X19471Y225983D01*
X19493Y225986D01*
X19512D01*
X19526D01*
X19535D01*
X19537D01*
X19598Y225983D01*
D02*
G37*
G36*
X20235Y224476D02*
X20285Y224471D01*
X20330Y224460D01*
X20368Y224451D01*
X20402Y224440D01*
X20427Y224429D01*
X20440Y224424D01*
X20446Y224421D01*
X20488Y224399D01*
X20524Y224371D01*
X20557Y224346D01*
X20582Y224321D01*
X20601Y224299D01*
X20618Y224283D01*
X20626Y224271D01*
X20629Y224266D01*
X20651Y224230D01*
X20670Y224188D01*
X20687Y224149D01*
X20701Y224113D01*
X20709Y224080D01*
X20715Y224055D01*
X20720Y224036D01*
Y224030D01*
X20726Y223989D01*
X20731Y223942D01*
X20734Y223892D01*
X20737Y223845D01*
X20740Y223803D01*
Y223017D01*
X18823D01*
Y223271D01*
X19601D01*
Y223762D01*
X19604Y223834D01*
X19609Y223903D01*
X19618Y223964D01*
X19629Y224019D01*
X19640Y224072D01*
X19654Y224116D01*
X19670Y224158D01*
X19687Y224194D01*
X19701Y224224D01*
X19717Y224252D01*
X19731Y224274D01*
X19745Y224291D01*
X19753Y224305D01*
X19762Y224313D01*
X19767Y224319D01*
X19770Y224321D01*
X19803Y224349D01*
X19837Y224374D01*
X19870Y224393D01*
X19906Y224413D01*
X19942Y224429D01*
X19975Y224440D01*
X20039Y224460D01*
X20069Y224465D01*
X20097Y224471D01*
X20122Y224474D01*
X20141Y224476D01*
X20161Y224479D01*
X20172D01*
X20180D01*
X20183D01*
X20235Y224476D01*
D02*
G37*
G36*
X20191Y222053D02*
X20211Y222008D01*
X20224Y221970D01*
X20235Y221934D01*
X20241Y221903D01*
X20244Y221878D01*
Y221859D01*
X20241Y221828D01*
X20235Y221800D01*
X20227Y221773D01*
X20219Y221751D01*
X20211Y221734D01*
X20202Y221717D01*
X20197Y221709D01*
X20194Y221706D01*
X20172Y221681D01*
X20144Y221656D01*
X20111Y221632D01*
X20080Y221609D01*
X20050Y221587D01*
X20025Y221573D01*
X20006Y221562D01*
X20003Y221560D01*
X20213D01*
Y221346D01*
X18823D01*
Y221582D01*
X19548D01*
X19604Y221585D01*
X19654Y221587D01*
X19701Y221593D01*
X19742Y221601D01*
X19776Y221609D01*
X19801Y221615D01*
X19817Y221618D01*
X19823Y221620D01*
X19853Y221632D01*
X19878Y221645D01*
X19900Y221659D01*
X19920Y221673D01*
X19933Y221687D01*
X19945Y221695D01*
X19950Y221704D01*
X19953Y221706D01*
X19970Y221728D01*
X19981Y221753D01*
X19989Y221778D01*
X19995Y221798D01*
X19997Y221817D01*
X20000Y221831D01*
Y221845D01*
X19997Y221875D01*
X19992Y221906D01*
X19983Y221936D01*
X19975Y221961D01*
X19967Y221983D01*
X19958Y222000D01*
X19953Y222011D01*
X19950Y222014D01*
X20166Y222100D01*
X20191Y222053D01*
D02*
G37*
G36*
X19582Y221058D02*
X19640Y221053D01*
X19695Y221044D01*
X19748Y221033D01*
X19795Y221019D01*
X19839Y221006D01*
X19878Y220989D01*
X19914Y220972D01*
X19947Y220956D01*
X19975Y220939D01*
X19997Y220925D01*
X20017Y220911D01*
X20033Y220900D01*
X20044Y220892D01*
X20050Y220886D01*
X20053Y220884D01*
X20086Y220850D01*
X20116Y220814D01*
X20141Y220776D01*
X20163Y220737D01*
X20183Y220698D01*
X20197Y220662D01*
X20211Y220623D01*
X20219Y220590D01*
X20227Y220554D01*
X20233Y220524D01*
X20238Y220496D01*
X20241Y220474D01*
X20244Y220454D01*
Y220427D01*
X20241Y220374D01*
X20235Y220324D01*
X20227Y220277D01*
X20213Y220233D01*
X20199Y220191D01*
X20183Y220152D01*
X20166Y220116D01*
X20147Y220086D01*
X20130Y220055D01*
X20111Y220030D01*
X20094Y220008D01*
X20080Y219992D01*
X20066Y219978D01*
X20058Y219967D01*
X20053Y219961D01*
X20050Y219958D01*
X20011Y219928D01*
X19970Y219900D01*
X19928Y219875D01*
X19884Y219853D01*
X19837Y219837D01*
X19792Y219823D01*
X19704Y219801D01*
X19665Y219792D01*
X19626Y219787D01*
X19593Y219784D01*
X19562Y219781D01*
X19537Y219778D01*
X19521D01*
X19507D01*
X19504D01*
X19443Y219781D01*
X19385Y219787D01*
X19330Y219795D01*
X19280Y219806D01*
X19233Y219820D01*
X19188Y219834D01*
X19150Y219850D01*
X19114Y219867D01*
X19083Y219884D01*
X19055Y219900D01*
X19033Y219914D01*
X19014Y219928D01*
X18997Y219939D01*
X18986Y219947D01*
X18981Y219953D01*
X18978Y219956D01*
X18945Y219992D01*
X18917Y220028D01*
X18892Y220066D01*
X18870Y220108D01*
X18853Y220147D01*
X18837Y220188D01*
X18814Y220266D01*
X18809Y220302D01*
X18803Y220335D01*
X18798Y220366D01*
X18795Y220391D01*
X18792Y220410D01*
Y220441D01*
X18798Y220526D01*
X18812Y220604D01*
X18828Y220673D01*
X18839Y220701D01*
X18850Y220728D01*
X18861Y220754D01*
X18873Y220776D01*
X18881Y220792D01*
X18889Y220809D01*
X18898Y220820D01*
X18903Y220828D01*
X18909Y220834D01*
Y220837D01*
X18959Y220892D01*
X19011Y220936D01*
X19067Y220975D01*
X19119Y221003D01*
X19166Y221025D01*
X19188Y221033D01*
X19205Y221042D01*
X19222Y221047D01*
X19233Y221050D01*
X19238Y221053D01*
X19241D01*
X19272Y220809D01*
X19219Y220787D01*
X19174Y220762D01*
X19136Y220737D01*
X19105Y220715D01*
X19083Y220695D01*
X19067Y220679D01*
X19055Y220665D01*
X19053Y220662D01*
X19030Y220626D01*
X19014Y220590D01*
X19003Y220551D01*
X18994Y220518D01*
X18989Y220488D01*
X18986Y220463D01*
Y220441D01*
X18989Y220407D01*
X18992Y220377D01*
X19006Y220321D01*
X19025Y220271D01*
X19047Y220227D01*
X19067Y220194D01*
X19086Y220169D01*
X19100Y220152D01*
X19105Y220150D01*
Y220147D01*
X19155Y220108D01*
X19210Y220078D01*
X19272Y220055D01*
X19327Y220039D01*
X19377Y220030D01*
X19399Y220025D01*
X19418Y220022D01*
X19435D01*
X19446Y220019D01*
X19454D01*
X19457D01*
Y221058D01*
X19485Y221061D01*
X19504D01*
X19515D01*
X19518D01*
X19582Y221058D01*
D02*
G37*
G36*
X20213Y219421D02*
X19402Y219122D01*
X19343Y219100D01*
X19288Y219083D01*
X19233Y219064D01*
X19186Y219050D01*
X19144Y219039D01*
X19127Y219033D01*
X19114Y219030D01*
X19103Y219028D01*
X19094Y219025D01*
X19089Y219022D01*
X19086D01*
X19150Y219006D01*
X19208Y218989D01*
X19263Y218972D01*
X19310Y218956D01*
X19349Y218942D01*
X19366Y218936D01*
X19379Y218931D01*
X19393Y218928D01*
X19402Y218925D01*
X19404Y218922D01*
X19407D01*
X20213Y218632D01*
Y218382D01*
X18823Y218909D01*
X18798Y218898D01*
X18778Y218892D01*
X18767Y218886D01*
X18765D01*
X18718Y218870D01*
X18679Y218853D01*
X18645Y218842D01*
X18623Y218831D01*
X18607Y218826D01*
X18596Y218820D01*
X18590Y218814D01*
X18587D01*
X18557Y218792D01*
X18535Y218767D01*
X18526Y218756D01*
X18521Y218748D01*
X18515Y218742D01*
Y218740D01*
X18507Y218720D01*
X18499Y218701D01*
X18490Y218659D01*
Y218643D01*
X18488Y218629D01*
Y218615D01*
X18490Y218571D01*
X18499Y218526D01*
X18504Y218510D01*
X18507Y218496D01*
X18510Y218485D01*
Y218482D01*
X18291Y218507D01*
X18280Y218537D01*
X18274Y218565D01*
X18269Y218590D01*
X18263Y218612D01*
Y218632D01*
X18260Y218646D01*
Y218657D01*
X18263Y218698D01*
X18269Y218734D01*
X18277Y218767D01*
X18288Y218795D01*
X18299Y218820D01*
X18307Y218837D01*
X18313Y218848D01*
X18316Y218850D01*
X18338Y218881D01*
X18366Y218906D01*
X18393Y218931D01*
X18421Y218953D01*
X18446Y218970D01*
X18465Y218983D01*
X18479Y218992D01*
X18485Y218994D01*
X18504Y219003D01*
X18524Y219014D01*
X18571Y219036D01*
X18623Y219058D01*
X18676Y219078D01*
X18723Y219097D01*
X18745Y219105D01*
X18765Y219114D01*
X18778Y219119D01*
X18789Y219125D01*
X18798Y219127D01*
X18801D01*
X20213Y219657D01*
Y219421D01*
D02*
G37*
G36*
X18853Y218213D02*
X18884Y218199D01*
X18911Y218189D01*
X18936Y218183D01*
X18959Y218175D01*
X18975Y218172D01*
X18986Y218169D01*
X18989D01*
X19008Y218166D01*
X19033Y218163D01*
X19061D01*
X19091Y218161D01*
X19161Y218158D01*
X19230D01*
X19296Y218155D01*
X19327D01*
X19352D01*
X19374D01*
X19391D01*
X19402D01*
X19404D01*
X19720D01*
X19773D01*
X19820Y218152D01*
X19856Y218150D01*
X19886D01*
X19909Y218147D01*
X19925Y218144D01*
X19933Y218141D01*
X19936D01*
X19972Y218133D01*
X20003Y218122D01*
X20028Y218111D01*
X20053Y218097D01*
X20069Y218086D01*
X20083Y218078D01*
X20091Y218072D01*
X20094Y218069D01*
X20116Y218047D01*
X20139Y218022D01*
X20155Y217994D01*
X20172Y217967D01*
X20183Y217942D01*
X20191Y217922D01*
X20197Y217909D01*
X20199Y217903D01*
X20213Y217859D01*
X20224Y217812D01*
X20233Y217765D01*
X20238Y217718D01*
X20241Y217676D01*
X20244Y217646D01*
Y217615D01*
X20241Y217549D01*
X20235Y217490D01*
X20227Y217435D01*
X20219Y217391D01*
X20211Y217352D01*
X20202Y217324D01*
X20199Y217313D01*
X20197Y217305D01*
X20194Y217302D01*
Y217299D01*
X20175Y217252D01*
X20150Y217211D01*
X20127Y217175D01*
X20105Y217144D01*
X20083Y217122D01*
X20066Y217105D01*
X20055Y217094D01*
X20053Y217091D01*
X20017Y217067D01*
X19978Y217044D01*
X19939Y217028D01*
X19903Y217014D01*
X19867Y217003D01*
X19842Y216995D01*
X19831Y216992D01*
X19823D01*
X19820Y216989D01*
X19817D01*
X19787Y217219D01*
X19837Y217236D01*
X19881Y217252D01*
X19917Y217272D01*
X19945Y217288D01*
X19967Y217305D01*
X19981Y217319D01*
X19989Y217330D01*
X19992Y217333D01*
X20011Y217366D01*
X20025Y217405D01*
X20036Y217446D01*
X20042Y217485D01*
X20047Y217524D01*
X20050Y217551D01*
Y217579D01*
X20047Y217643D01*
X20039Y217698D01*
X20025Y217742D01*
X20011Y217781D01*
X19995Y217809D01*
X19983Y217831D01*
X19972Y217845D01*
X19970Y217848D01*
X19945Y217870D01*
X19914Y217886D01*
X19881Y217900D01*
X19848Y217909D01*
X19817Y217914D01*
X19790Y217917D01*
X19773D01*
X19770D01*
X19767D01*
X19762D01*
X19751D01*
X19731D01*
X19715Y217914D01*
X19709D01*
X19706D01*
X19698Y217886D01*
X19690Y217856D01*
X19673Y217792D01*
X19659Y217720D01*
X19645Y217654D01*
X19640Y217621D01*
X19637Y217590D01*
X19632Y217562D01*
X19629Y217540D01*
X19626Y217521D01*
Y217507D01*
X19623Y217496D01*
Y217493D01*
X19618Y217443D01*
X19609Y217402D01*
X19604Y217366D01*
X19598Y217338D01*
X19596Y217316D01*
X19590Y217299D01*
X19587Y217288D01*
Y217285D01*
X19576Y217249D01*
X19565Y217219D01*
X19551Y217189D01*
X19540Y217163D01*
X19529Y217141D01*
X19518Y217127D01*
X19512Y217116D01*
X19510Y217114D01*
X19490Y217086D01*
X19468Y217064D01*
X19446Y217042D01*
X19424Y217025D01*
X19404Y217011D01*
X19388Y217000D01*
X19377Y216995D01*
X19374Y216992D01*
X19343Y216978D01*
X19310Y216967D01*
X19280Y216959D01*
X19249Y216953D01*
X19224Y216950D01*
X19205Y216948D01*
X19194D01*
X19188D01*
X19155Y216950D01*
X19127Y216953D01*
X19069Y216967D01*
X19022Y216986D01*
X18981Y217008D01*
X18947Y217031D01*
X18923Y217050D01*
X18909Y217064D01*
X18903Y217069D01*
X18867Y217119D01*
X18839Y217175D01*
X18820Y217236D01*
X18806Y217291D01*
X18798Y217341D01*
X18795Y217363D01*
Y217382D01*
X18792Y217399D01*
Y217421D01*
X18795Y217471D01*
X18801Y217521D01*
X18806Y217565D01*
X18814Y217604D01*
X18823Y217635D01*
X18831Y217659D01*
X18834Y217676D01*
X18837Y217682D01*
X18856Y217729D01*
X18881Y217773D01*
X18909Y217814D01*
X18934Y217856D01*
X18959Y217889D01*
X18978Y217914D01*
X18992Y217931D01*
X18997Y217934D01*
Y217936D01*
X18961Y217942D01*
X18928Y217948D01*
X18898Y217953D01*
X18873Y217961D01*
X18850Y217970D01*
X18837Y217975D01*
X18825Y217978D01*
X18823Y217981D01*
Y218227D01*
X18853Y218213D01*
D02*
G37*
G36*
X20740Y216427D02*
X18823D01*
Y216662D01*
X20740D01*
Y216427D01*
D02*
G37*
G36*
X20235Y216136D02*
X20285Y216130D01*
X20330Y216119D01*
X20368Y216111D01*
X20402Y216100D01*
X20427Y216089D01*
X20440Y216083D01*
X20446Y216080D01*
X20488Y216058D01*
X20524Y216031D01*
X20557Y216006D01*
X20582Y215981D01*
X20601Y215959D01*
X20618Y215942D01*
X20626Y215931D01*
X20629Y215925D01*
X20651Y215889D01*
X20670Y215848D01*
X20687Y215809D01*
X20701Y215773D01*
X20709Y215740D01*
X20715Y215715D01*
X20720Y215695D01*
Y215690D01*
X20726Y215648D01*
X20731Y215601D01*
X20734Y215551D01*
X20737Y215504D01*
X20740Y215463D01*
Y214676D01*
X18823D01*
Y214931D01*
X19601D01*
Y215421D01*
X19604Y215493D01*
X19609Y215563D01*
X19618Y215623D01*
X19629Y215679D01*
X19640Y215732D01*
X19654Y215776D01*
X19670Y215817D01*
X19687Y215853D01*
X19701Y215884D01*
X19717Y215912D01*
X19731Y215934D01*
X19745Y215950D01*
X19753Y215964D01*
X19762Y215972D01*
X19767Y215978D01*
X19770Y215981D01*
X19803Y216008D01*
X19837Y216033D01*
X19870Y216053D01*
X19906Y216072D01*
X19942Y216089D01*
X19975Y216100D01*
X20039Y216119D01*
X20069Y216125D01*
X20097Y216130D01*
X20122Y216133D01*
X20141Y216136D01*
X20161Y216139D01*
X20172D01*
X20180D01*
X20183D01*
X20235Y216136D01*
D02*
G37*
%LPC*%
G36*
X19551Y225745D02*
X19537D01*
X19529D01*
X19526D01*
X19477D01*
X19429Y225740D01*
X19388Y225734D01*
X19346Y225726D01*
X19310Y225717D01*
X19277Y225706D01*
X19247Y225698D01*
X19219Y225687D01*
X19197Y225676D01*
X19174Y225665D01*
X19158Y225654D01*
X19144Y225645D01*
X19133Y225637D01*
X19125Y225631D01*
X19122Y225629D01*
X19119Y225626D01*
X19097Y225604D01*
X19075Y225579D01*
X19042Y225532D01*
X19019Y225482D01*
X19003Y225437D01*
X18994Y225396D01*
X18989Y225365D01*
X18986Y225352D01*
Y225335D01*
X18989Y225302D01*
X18992Y225271D01*
X19006Y225213D01*
X19028Y225163D01*
X19053Y225122D01*
X19075Y225089D01*
X19097Y225064D01*
X19111Y225047D01*
X19116Y225044D01*
Y225041D01*
X19144Y225022D01*
X19172Y225003D01*
X19236Y224975D01*
X19302Y224953D01*
X19368Y224939D01*
X19427Y224931D01*
X19452Y224928D01*
X19474D01*
X19493Y224925D01*
X19507D01*
X19515D01*
X19518D01*
X19565Y224928D01*
X19612Y224931D01*
X19654Y224936D01*
X19692Y224944D01*
X19728Y224953D01*
X19762Y224961D01*
X19790Y224972D01*
X19817Y224983D01*
X19839Y224994D01*
X19861Y225005D01*
X19878Y225014D01*
X19892Y225022D01*
X19903Y225030D01*
X19911Y225036D01*
X19914Y225041D01*
X19917D01*
X19939Y225064D01*
X19961Y225089D01*
X19995Y225136D01*
X20017Y225185D01*
X20033Y225233D01*
X20044Y225274D01*
X20047Y225305D01*
X20050Y225318D01*
Y225335D01*
X20047Y225368D01*
X20044Y225399D01*
X20030Y225454D01*
X20008Y225504D01*
X19983Y225546D01*
X19958Y225579D01*
X19939Y225604D01*
X19922Y225620D01*
X19920Y225626D01*
X19917D01*
X19892Y225648D01*
X19861Y225665D01*
X19801Y225695D01*
X19734Y225717D01*
X19673Y225731D01*
X19615Y225740D01*
X19590Y225742D01*
X19568D01*
X19551Y225745D01*
D02*
G37*
G36*
X20194Y224219D02*
X20180D01*
X20177D01*
X20175D01*
X20116Y224213D01*
X20066Y224202D01*
X20022Y224185D01*
X19986Y224166D01*
X19958Y224147D01*
X19936Y224130D01*
X19925Y224119D01*
X19920Y224113D01*
X19903Y224094D01*
X19889Y224069D01*
X19867Y224016D01*
X19850Y223958D01*
X19839Y223900D01*
X19834Y223848D01*
X19831Y223825D01*
Y223806D01*
X19828Y223787D01*
Y223271D01*
X20512D01*
Y223820D01*
X20510Y223870D01*
X20507Y223911D01*
X20504Y223944D01*
X20499Y223967D01*
X20496Y223983D01*
X20493Y223994D01*
Y223997D01*
X20479Y224033D01*
X20463Y224064D01*
X20446Y224091D01*
X20427Y224116D01*
X20407Y224133D01*
X20393Y224147D01*
X20382Y224155D01*
X20380Y224158D01*
X20346Y224177D01*
X20313Y224194D01*
X20277Y224205D01*
X20246Y224210D01*
X20219Y224216D01*
X20194Y224219D01*
D02*
G37*
G36*
X19659Y220812D02*
X19654D01*
X19651D01*
Y220033D01*
X19715Y220042D01*
X19773Y220058D01*
X19823Y220078D01*
X19861Y220100D01*
X19895Y220119D01*
X19920Y220139D01*
X19933Y220150D01*
X19939Y220155D01*
X19975Y220199D01*
X20003Y220244D01*
X20022Y220291D01*
X20036Y220335D01*
X20044Y220371D01*
X20047Y220402D01*
X20050Y220413D01*
Y220429D01*
X20047Y220463D01*
X20044Y220493D01*
X20028Y220551D01*
X20006Y220601D01*
X19981Y220643D01*
X19956Y220676D01*
X19933Y220701D01*
X19917Y220715D01*
X19914Y220720D01*
X19911D01*
X19875Y220745D01*
X19834Y220767D01*
X19792Y220781D01*
X19748Y220795D01*
X19712Y220803D01*
X19679Y220809D01*
X19668D01*
X19659Y220812D01*
D02*
G37*
G36*
X19521Y217917D02*
X19432Y217914D01*
X19377Y217912D01*
X19330Y217909D01*
X19291Y217903D01*
X19258Y217895D01*
X19233Y217886D01*
X19213Y217881D01*
X19202Y217878D01*
X19199Y217875D01*
X19163Y217853D01*
X19130Y217831D01*
X19103Y217803D01*
X19080Y217778D01*
X19061Y217756D01*
X19047Y217737D01*
X19039Y217726D01*
X19036Y217720D01*
X19017Y217679D01*
X19003Y217637D01*
X18992Y217598D01*
X18986Y217560D01*
X18981Y217529D01*
X18978Y217501D01*
Y217479D01*
X18981Y217429D01*
X18986Y217388D01*
X18997Y217352D01*
X19008Y217321D01*
X19019Y217299D01*
X19030Y217283D01*
X19036Y217272D01*
X19039Y217269D01*
X19064Y217247D01*
X19091Y217230D01*
X19116Y217216D01*
X19141Y217208D01*
X19163Y217202D01*
X19180Y217200D01*
X19194D01*
X19197D01*
X19219Y217202D01*
X19241Y217205D01*
X19258Y217211D01*
X19274Y217216D01*
X19288Y217222D01*
X19299Y217225D01*
X19305Y217230D01*
X19308D01*
X19341Y217258D01*
X19363Y217291D01*
X19371Y217302D01*
X19377Y217313D01*
X19382Y217321D01*
Y217324D01*
X19393Y217352D01*
X19402Y217382D01*
X19410Y217416D01*
X19415Y217449D01*
X19421Y217479D01*
X19427Y217507D01*
X19429Y217524D01*
Y217529D01*
X19438Y217576D01*
X19443Y217621D01*
X19452Y217659D01*
X19460Y217698D01*
X19468Y217734D01*
X19477Y217765D01*
X19482Y217795D01*
X19490Y217820D01*
X19496Y217842D01*
X19501Y217862D01*
X19507Y217878D01*
X19512Y217892D01*
X19515Y217903D01*
X19518Y217912D01*
X19521Y217914D01*
Y217917D01*
D02*
G37*
G36*
X20194Y215878D02*
X20180D01*
X20177D01*
X20175D01*
X20116Y215873D01*
X20066Y215862D01*
X20022Y215845D01*
X19986Y215826D01*
X19958Y215806D01*
X19936Y215790D01*
X19925Y215778D01*
X19920Y215773D01*
X19903Y215754D01*
X19889Y215729D01*
X19867Y215676D01*
X19850Y215618D01*
X19839Y215560D01*
X19834Y215507D01*
X19831Y215485D01*
Y215465D01*
X19828Y215446D01*
Y214931D01*
X20512D01*
Y215479D01*
X20510Y215529D01*
X20507Y215571D01*
X20504Y215604D01*
X20499Y215626D01*
X20496Y215643D01*
X20493Y215654D01*
Y215657D01*
X20479Y215693D01*
X20463Y215723D01*
X20446Y215751D01*
X20427Y215776D01*
X20407Y215792D01*
X20393Y215806D01*
X20382Y215815D01*
X20380Y215817D01*
X20346Y215837D01*
X20313Y215853D01*
X20277Y215864D01*
X20246Y215870D01*
X20219Y215876D01*
X20194Y215878D01*
D02*
G37*
%LPD*%
D10*
X18480Y151642D02*
X17742Y152068D01*
Y151216D01*
X18480Y151642D01*
X17980Y118642D02*
X17242Y119068D01*
Y118216D01*
X17980Y118642D01*
Y85642D02*
X17242Y86068D01*
Y85216D01*
X17980Y85642D01*
X11992Y207008D02*
X11254Y207434D01*
Y206582D01*
X11992Y207008D01*
D15*
X48205Y156169D02*
Y164831D01*
X27732Y148295D02*
X44268D01*
X23795Y156169D02*
Y164831D01*
X27732Y172705D02*
X44268D01*
X47705Y123169D02*
Y131831D01*
X27232Y115295D02*
X43768D01*
X23295Y123169D02*
Y131831D01*
X27232Y139705D02*
X43768D01*
X47705Y90169D02*
Y98831D01*
X27232Y82295D02*
X43768D01*
X23295Y90169D02*
Y98831D01*
X27232Y106705D02*
X43768D01*
X6244Y209252D02*
X16756D01*
X6244D02*
Y230748D01*
X16756D01*
Y209252D02*
Y230748D01*
M02*
