G04*
G04 #@! TF.GenerationSoftware,Altium Limited,Altium Designer,23.2.1 (34)*
G04*
G04 Layer_Color=2752767*
%FSLAX25Y25*%
%MOIN*%
G70*
G04*
G04 #@! TF.SameCoordinates,08813931-105C-4D26-8E83-7783437ACDD9*
G04*
G04*
G04 #@! TF.FilePolarity,Positive*
G04*
G01*
G75*
%ADD14C,0.00500*%
%ADD41C,0.00667*%
D14*
X4500Y158500D02*
X5500Y160500D01*
X4500Y162500D01*
X6500Y161500D01*
X8500Y162500D01*
X7500Y160500D01*
X8500Y158500D01*
X6500Y159500D01*
X4500Y158500D01*
Y148500D02*
X5500Y150500D01*
X4500Y152500D01*
X6500Y151500D01*
X8500Y152500D01*
X7500Y150500D01*
X8500Y148500D01*
X6500Y149500D01*
X4500Y148500D01*
Y138500D02*
X5500Y140500D01*
X4500Y142500D01*
X6500Y141500D01*
X8500Y142500D01*
X7500Y140500D01*
X8500Y138500D01*
X6500Y139500D01*
X4500Y138500D01*
Y128500D02*
X5500Y130500D01*
X4500Y132500D01*
X6500Y131500D01*
X8500Y132500D01*
X7500Y130500D01*
X8500Y128500D01*
X6500Y129500D01*
X4500Y128500D01*
Y118500D02*
X5500Y120500D01*
X4500Y122500D01*
X6500Y121500D01*
X8500Y122500D01*
X7500Y120500D01*
X8500Y118500D01*
X6500Y119500D01*
X4500Y118500D01*
Y108500D02*
X5500Y110500D01*
X4500Y112500D01*
X6500Y111500D01*
X8500Y112500D01*
X7500Y110500D01*
X8500Y108500D01*
X6500Y109500D01*
X4500Y108500D01*
Y98500D02*
X5500Y100500D01*
X4500Y102500D01*
X6500Y101500D01*
X8500Y102500D01*
X7500Y100500D01*
X8500Y98500D01*
X6500Y99500D01*
X4500Y98500D01*
Y88500D02*
X5500Y90500D01*
X4500Y92500D01*
X6500Y91500D01*
X8500Y92500D01*
X7500Y90500D01*
X8500Y88500D01*
X6500Y89500D01*
X4500Y88500D01*
Y78500D02*
X5500Y80500D01*
X4500Y82500D01*
X6500Y81500D01*
X8500Y82500D01*
X7500Y80500D01*
X8500Y78500D01*
X6500Y79500D01*
X4500Y78500D01*
Y68500D02*
X5500Y70500D01*
X4500Y72500D01*
X6500Y71500D01*
X8500Y72500D01*
X7500Y70500D01*
X8500Y68500D01*
X6500Y69500D01*
X4500Y68500D01*
Y58500D02*
X5500Y60500D01*
X4500Y62500D01*
X6500Y61500D01*
X8500Y62500D01*
X7500Y60500D01*
X8500Y58500D01*
X6500Y59500D01*
X4500Y58500D01*
Y48500D02*
X5500Y50500D01*
X4500Y52500D01*
X6500Y51500D01*
X8500Y52500D01*
X7500Y50500D01*
X8500Y48500D01*
X6500Y49500D01*
X4500Y48500D01*
Y38500D02*
X5500Y40500D01*
X4500Y42500D01*
X6500Y41500D01*
X8500Y42500D01*
X7500Y40500D01*
X8500Y38500D01*
X6500Y39500D01*
X4500Y38500D01*
Y28500D02*
X5500Y30500D01*
X4500Y32500D01*
X6500Y31500D01*
X8500Y32500D01*
X7500Y30500D01*
X8500Y28500D01*
X6500Y29500D01*
X4500Y28500D01*
Y18500D02*
X5500Y20500D01*
X4500Y22500D01*
X6500Y21500D01*
X8500Y22500D01*
X7500Y20500D01*
X8500Y18500D01*
X6500Y19500D01*
X4500Y18500D01*
X64500D02*
X65500Y20500D01*
X64500Y22500D01*
X66500Y21500D01*
X68500Y22500D01*
X67500Y20500D01*
X68500Y18500D01*
X66500Y19500D01*
X64500Y18500D01*
Y28500D02*
X65500Y30500D01*
X64500Y32500D01*
X66500Y31500D01*
X68500Y32500D01*
X67500Y30500D01*
X68500Y28500D01*
X66500Y29500D01*
X64500Y28500D01*
Y38500D02*
X65500Y40500D01*
X64500Y42500D01*
X66500Y41500D01*
X68500Y42500D01*
X67500Y40500D01*
X68500Y38500D01*
X66500Y39500D01*
X64500Y38500D01*
Y48500D02*
X65500Y50500D01*
X64500Y52500D01*
X66500Y51500D01*
X68500Y52500D01*
X67500Y50500D01*
X68500Y48500D01*
X66500Y49500D01*
X64500Y48500D01*
Y58500D02*
X65500Y60500D01*
X64500Y62500D01*
X66500Y61500D01*
X68500Y62500D01*
X67500Y60500D01*
X68500Y58500D01*
X66500Y59500D01*
X64500Y58500D01*
Y68500D02*
X65500Y70500D01*
X64500Y72500D01*
X66500Y71500D01*
X68500Y72500D01*
X67500Y70500D01*
X68500Y68500D01*
X66500Y69500D01*
X64500Y68500D01*
Y78500D02*
X65500Y80500D01*
X64500Y82500D01*
X66500Y81500D01*
X68500Y82500D01*
X67500Y80500D01*
X68500Y78500D01*
X66500Y79500D01*
X64500Y78500D01*
Y88500D02*
X65500Y90500D01*
X64500Y92500D01*
X66500Y91500D01*
X68500Y92500D01*
X67500Y90500D01*
X68500Y88500D01*
X66500Y89500D01*
X64500Y88500D01*
Y98500D02*
X65500Y100500D01*
X64500Y102500D01*
X66500Y101500D01*
X68500Y102500D01*
X67500Y100500D01*
X68500Y98500D01*
X66500Y99500D01*
X64500Y98500D01*
Y108500D02*
X65500Y110500D01*
X64500Y112500D01*
X66500Y111500D01*
X68500Y112500D01*
X67500Y110500D01*
X68500Y108500D01*
X66500Y109500D01*
X64500Y108500D01*
Y118500D02*
X65500Y120500D01*
X64500Y122500D01*
X66500Y121500D01*
X68500Y122500D01*
X67500Y120500D01*
X68500Y118500D01*
X66500Y119500D01*
X64500Y118500D01*
Y128500D02*
X65500Y130500D01*
X64500Y132500D01*
X66500Y131500D01*
X68500Y132500D01*
X67500Y130500D01*
X68500Y128500D01*
X66500Y129500D01*
X64500Y128500D01*
Y138500D02*
X65500Y140500D01*
X64500Y142500D01*
X66500Y141500D01*
X68500Y142500D01*
X67500Y140500D01*
X68500Y138500D01*
X66500Y139500D01*
X64500Y138500D01*
Y148500D02*
X65500Y150500D01*
X64500Y152500D01*
X66500Y151500D01*
X68500Y152500D01*
X67500Y150500D01*
X68500Y148500D01*
X66500Y149500D01*
X64500Y148500D01*
Y158500D02*
X65500Y160500D01*
X64500Y162500D01*
X66500Y161500D01*
X68500Y162500D01*
X67500Y160500D01*
X68500Y158500D01*
X66500Y159500D01*
X64500Y158500D01*
X62791Y201500D02*
Y200500D01*
X64791D01*
Y201500D01*
X65791D01*
Y203500D01*
X64791D01*
Y204500D01*
X62791D01*
Y203500D01*
X61791D01*
Y201500D01*
X62791D01*
X24209D02*
Y200500D01*
X26209D01*
Y201500D01*
X27209D01*
Y203500D01*
X26209D01*
Y204500D01*
X24209D01*
Y203500D01*
X23209D01*
Y201500D01*
X24209D01*
X48795Y167358D02*
X49795Y168358D01*
X50795D01*
X49795Y169358D01*
X50795Y170358D01*
X49795D01*
X48795Y171358D01*
X47795Y170358D01*
X46795D01*
X47795Y169358D01*
X46795Y168358D01*
X47795D01*
X48795Y167358D01*
X23205D02*
X24205Y168358D01*
X25205D01*
X24205Y169358D01*
X25205Y170358D01*
X24205D01*
X23205Y171358D01*
X22205Y170358D01*
X21205D01*
X22205Y169358D01*
X21205Y168358D01*
X22205D01*
X23205Y167358D01*
X48795Y149642D02*
X49795Y150642D01*
X50795D01*
X49795Y151642D01*
X50795Y152642D01*
X49795D01*
X48795Y153642D01*
X47795Y152642D01*
X46795D01*
X47795Y151642D01*
X46795Y150642D01*
X47795D01*
X48795Y149642D01*
X23205D02*
X24205Y150642D01*
X25205D01*
X24205Y151642D01*
X25205Y152642D01*
X24205D01*
X23205Y153642D01*
X22205Y152642D01*
X21205D01*
X22205Y151642D01*
X21205Y150642D01*
X22205D01*
X23205Y149642D01*
X48295Y134358D02*
X49295Y135358D01*
X50295D01*
X49295Y136358D01*
X50295Y137358D01*
X49295D01*
X48295Y138358D01*
X47295Y137358D01*
X46295D01*
X47295Y136358D01*
X46295Y135358D01*
X47295D01*
X48295Y134358D01*
X22705D02*
X23705Y135358D01*
X24705D01*
X23705Y136358D01*
X24705Y137358D01*
X23705D01*
X22705Y138358D01*
X21705Y137358D01*
X20705D01*
X21705Y136358D01*
X20705Y135358D01*
X21705D01*
X22705Y134358D01*
X48295Y116642D02*
X49295Y117642D01*
X50295D01*
X49295Y118642D01*
X50295Y119642D01*
X49295D01*
X48295Y120642D01*
X47295Y119642D01*
X46295D01*
X47295Y118642D01*
X46295Y117642D01*
X47295D01*
X48295Y116642D01*
X22705D02*
X23705Y117642D01*
X24705D01*
X23705Y118642D01*
X24705Y119642D01*
X23705D01*
X22705Y120642D01*
X21705Y119642D01*
X20705D01*
X21705Y118642D01*
X20705Y117642D01*
X21705D01*
X22705Y116642D01*
X48295Y101358D02*
X49295Y102358D01*
X50295D01*
X49295Y103358D01*
X50295Y104358D01*
X49295D01*
X48295Y105358D01*
X47295Y104358D01*
X46295D01*
X47295Y103358D01*
X46295Y102358D01*
X47295D01*
X48295Y101358D01*
X22705D02*
X23705Y102358D01*
X24705D01*
X23705Y103358D01*
X24705Y104358D01*
X23705D01*
X22705Y105358D01*
X21705Y104358D01*
X20705D01*
X21705Y103358D01*
X20705Y102358D01*
X21705D01*
X22705Y101358D01*
X48295Y83642D02*
X49295Y84642D01*
X50295D01*
X49295Y85642D01*
X50295Y86642D01*
X49295D01*
X48295Y87642D01*
X47295Y86642D01*
X46295D01*
X47295Y85642D01*
X46295Y84642D01*
X47295D01*
X48295Y83642D01*
X22705D02*
X23705Y84642D01*
X24705D01*
X23705Y85642D01*
X24705Y86642D01*
X23705D01*
X22705Y87642D01*
X21705Y86642D01*
X20705D01*
X21705Y85642D01*
X20705Y84642D01*
X21705D01*
X22705Y83642D01*
X62791Y214000D02*
Y213000D01*
X64791D01*
Y214000D01*
X65791D01*
Y216000D01*
X64791D01*
Y217000D01*
X62791D01*
Y216000D01*
X61791D01*
Y214000D01*
X62791D01*
X24209D02*
Y213000D01*
X26209D01*
Y214000D01*
X27209D01*
Y216000D01*
X26209D01*
Y217000D01*
X24209D01*
Y216000D01*
X23209D01*
Y214000D01*
X24209D01*
X62791Y226500D02*
Y225500D01*
X64791D01*
Y226500D01*
X65791D01*
Y228500D01*
X64791D01*
Y229500D01*
X62791D01*
Y228500D01*
X61791D01*
Y226500D01*
X62791D01*
X24209D02*
Y225500D01*
X26209D01*
Y226500D01*
X27209D01*
Y228500D01*
X26209D01*
Y229500D01*
X24209D01*
Y228500D01*
X23209D01*
Y226500D01*
X24209D01*
X9500Y223000D02*
Y227000D01*
X13500D01*
Y223000D01*
X9500D01*
Y213000D02*
Y217000D01*
X13500D01*
Y213000D01*
X9500D01*
X8500Y187500D02*
Y191500D01*
X12500D01*
Y187500D01*
X8500D01*
X18500D02*
Y191500D01*
X22500D01*
Y187500D01*
X18500D01*
X28500D02*
Y191500D01*
X32500D01*
Y187500D01*
X28500D01*
X38500D02*
Y191500D01*
X42500D01*
Y187500D01*
X38500D01*
X48500D02*
Y191500D01*
X52500D01*
Y187500D01*
X48500D01*
X58500D02*
Y191500D01*
X62500D01*
Y187500D01*
X58500D01*
X22000Y66000D02*
X20000Y70000D01*
X24000D01*
X22000Y66000D01*
Y56157D02*
X20000Y60157D01*
X24000D01*
X22000Y56157D01*
X27000Y17000D02*
X28000D01*
X29000Y18000D01*
X30000Y17000D01*
X31000D01*
Y18000D01*
X30000Y19000D01*
X31000Y20000D01*
Y21000D01*
X30000D01*
X29000Y20000D01*
X28000Y21000D01*
X27000D01*
Y20000D01*
X28000Y19000D01*
X27000Y18000D01*
Y17000D01*
X36000D02*
X37000D01*
X38000Y18000D01*
X39000Y17000D01*
X40000D01*
Y18000D01*
X39000Y19000D01*
X40000Y20000D01*
Y21000D01*
X39000D01*
X38000Y20000D01*
X37000Y21000D01*
X36000D01*
Y20000D01*
X37000Y19000D01*
X36000Y18000D01*
Y17000D01*
X33100Y124800D02*
X34100D01*
X35100Y125800D01*
X36100Y124800D01*
X37100D01*
Y125800D01*
X36100Y126800D01*
X37100Y127800D01*
Y128800D01*
X36100D01*
X35100Y127800D01*
X34100Y128800D01*
X33100D01*
Y127800D01*
X34100Y126800D01*
X33100Y125800D01*
Y124800D01*
X44500Y15000D02*
X45500D01*
X46500Y16000D01*
X47500Y15000D01*
X48500D01*
Y16000D01*
X47500Y17000D01*
X48500Y18000D01*
Y19000D01*
X47500D01*
X46500Y18000D01*
X45500Y19000D01*
X44500D01*
Y18000D01*
X45500Y17000D01*
X44500Y16000D01*
Y15000D01*
X29800Y146000D02*
X30800D01*
X31800Y147000D01*
X32800Y146000D01*
X33800D01*
Y147000D01*
X32800Y148000D01*
X33800Y149000D01*
Y150000D01*
X32800D01*
X31800Y149000D01*
X30800Y150000D01*
X29800D01*
Y149000D01*
X30800Y148000D01*
X29800Y147000D01*
Y146000D01*
X51700Y67300D02*
X52700D01*
X53700Y68300D01*
X54700Y67300D01*
X55700D01*
Y68300D01*
X54700Y69300D01*
X55700Y70300D01*
Y71300D01*
X54700D01*
X53700Y70300D01*
X52700Y71300D01*
X51700D01*
Y70300D01*
X52700Y69300D01*
X51700Y68300D01*
Y67300D01*
X54900Y76800D02*
X55900D01*
X56900Y77800D01*
X57900Y76800D01*
X58900D01*
Y77800D01*
X57900Y78800D01*
X58900Y79800D01*
Y80800D01*
X57900D01*
X56900Y79800D01*
X55900Y80800D01*
X54900D01*
Y79800D01*
X55900Y78800D01*
X54900Y77800D01*
Y76800D01*
X33600Y45700D02*
X34600D01*
X35600Y46700D01*
X36600Y45700D01*
X37600D01*
Y46700D01*
X36600Y47700D01*
X37600Y48700D01*
Y49700D01*
X36600D01*
X35600Y48700D01*
X34600Y49700D01*
X33600D01*
Y48700D01*
X34600Y47700D01*
X33600Y46700D01*
Y45700D01*
X1400Y218000D02*
X2400D01*
X3400Y219000D01*
X4400Y218000D01*
X5400D01*
Y219000D01*
X4400Y220000D01*
X5400Y221000D01*
Y222000D01*
X4400D01*
X3400Y221000D01*
X2400Y222000D01*
X1400D01*
Y221000D01*
X2400Y220000D01*
X1400Y219000D01*
Y218000D01*
D41*
X47000Y53000D02*
X46771Y53929D01*
X46136Y54646D01*
X45241Y54985D01*
X44291Y54870D01*
X43503Y54326D01*
X43058Y53479D01*
Y52521D01*
X43503Y51674D01*
X44291Y51130D01*
X45241Y51015D01*
X46136Y51354D01*
X46771Y52071D01*
X47000Y53000D01*
Y73000D02*
X46771Y73929D01*
X46136Y74646D01*
X45241Y74985D01*
X44291Y74870D01*
X43503Y74326D01*
X43058Y73479D01*
Y72521D01*
X43503Y71674D01*
X44291Y71130D01*
X45241Y71015D01*
X46136Y71354D01*
X46771Y72071D01*
X47000Y73000D01*
M02*
