G04*
G04 #@! TF.GenerationSoftware,Altium Limited,Altium Designer,23.2.1 (34)*
G04*
G04 Layer_Physical_Order=1*
G04 Layer_Color=255*
%FSLAX25Y25*%
%MOIN*%
G70*
G04*
G04 #@! TF.SameCoordinates,08813931-105C-4D26-8E83-7783437ACDD9*
G04*
G04*
G04 #@! TF.FilePolarity,Positive*
G04*
G01*
G75*
%ADD16O,0.02362X0.08661*%
%ADD17R,0.03963X0.05544*%
%ADD22C,0.06102*%
%ADD23R,0.06102X0.06102*%
%ADD24C,0.06181*%
%ADD25R,0.06181X0.06181*%
%ADD32C,0.01000*%
%ADD33R,0.07087X0.07087*%
%ADD34C,0.07087*%
%ADD35C,0.05315*%
%ADD36R,0.04921X0.04921*%
%ADD37C,0.04921*%
%ADD38C,0.05181*%
%ADD39C,0.05000*%
G36*
X72175Y1326D02*
X1322D01*
X713Y217299D01*
X1213Y217519D01*
X1736Y217118D01*
X2074Y216977D01*
Y173800D01*
X2175Y173293D01*
X2463Y172863D01*
X9982Y165343D01*
X9775Y164843D01*
X2157D01*
Y156157D01*
X10274D01*
Y153493D01*
X9801Y153333D01*
X9598Y153598D01*
X8690Y154294D01*
X7634Y154732D01*
X6500Y154881D01*
X5366Y154732D01*
X4310Y154294D01*
X3402Y153598D01*
X2706Y152690D01*
X2269Y151634D01*
X2119Y150500D01*
X2269Y149366D01*
X2706Y148310D01*
X3402Y147402D01*
X4310Y146706D01*
X5366Y146268D01*
X6500Y146119D01*
X7634Y146268D01*
X8690Y146706D01*
X9598Y147402D01*
X9801Y147667D01*
X10274Y147507D01*
Y143493D01*
X9801Y143333D01*
X9598Y143598D01*
X8690Y144294D01*
X7634Y144731D01*
X6500Y144881D01*
X5366Y144731D01*
X4310Y144294D01*
X3402Y143598D01*
X2706Y142690D01*
X2269Y141634D01*
X2119Y140500D01*
X2269Y139366D01*
X2706Y138310D01*
X3402Y137402D01*
X4310Y136706D01*
X5366Y136268D01*
X6500Y136119D01*
X7634Y136268D01*
X8690Y136706D01*
X9598Y137402D01*
X9801Y137667D01*
X10274Y137507D01*
Y133822D01*
X9801Y133661D01*
X9740Y133740D01*
X8791Y134469D01*
X7686Y134926D01*
X7500Y134951D01*
Y130500D01*
X6500D01*
D01*
X7500D01*
Y126049D01*
X7686Y126074D01*
X8791Y126531D01*
X9740Y127260D01*
X9801Y127339D01*
X10274Y127178D01*
Y123493D01*
X9801Y123333D01*
X9598Y123598D01*
X8690Y124294D01*
X7634Y124732D01*
X6500Y124881D01*
X5366Y124732D01*
X4310Y124294D01*
X3402Y123598D01*
X2706Y122690D01*
X2269Y121634D01*
X2119Y120500D01*
X2269Y119366D01*
X2706Y118310D01*
X3402Y117402D01*
X4310Y116706D01*
X5366Y116269D01*
X6500Y116119D01*
X7634Y116269D01*
X8690Y116706D01*
X9598Y117402D01*
X9801Y117667D01*
X10274Y117507D01*
Y113493D01*
X9801Y113333D01*
X9598Y113598D01*
X8690Y114294D01*
X7634Y114732D01*
X6500Y114881D01*
X5366Y114732D01*
X4310Y114294D01*
X3402Y113598D01*
X2706Y112690D01*
X2269Y111634D01*
X2119Y110500D01*
X2269Y109366D01*
X2706Y108310D01*
X3402Y107402D01*
X4310Y106706D01*
X5366Y106269D01*
X6500Y106119D01*
X7634Y106269D01*
X8690Y106706D01*
X9598Y107402D01*
X9801Y107667D01*
X10274Y107507D01*
Y106149D01*
X8499Y104373D01*
X7634Y104732D01*
X6500Y104881D01*
X5366Y104732D01*
X4310Y104294D01*
X3402Y103598D01*
X2706Y102690D01*
X2269Y101634D01*
X2119Y100500D01*
X2269Y99366D01*
X2706Y98310D01*
X3402Y97402D01*
X4310Y96706D01*
X5366Y96268D01*
X6500Y96119D01*
X7634Y96268D01*
X8690Y96706D01*
X9598Y97402D01*
X10294Y98310D01*
X10731Y99366D01*
X10881Y100500D01*
X10731Y101634D01*
X10373Y102499D01*
X12537Y104663D01*
X12825Y105093D01*
X12925Y105600D01*
Y165600D01*
X12825Y166107D01*
X12537Y166537D01*
X4965Y174109D01*
X4999Y174278D01*
X5541Y174442D01*
X14828Y165156D01*
Y64700D01*
X14366Y64508D01*
X10373Y68501D01*
X10731Y69366D01*
X10881Y70500D01*
X10731Y71634D01*
X10294Y72690D01*
X9598Y73598D01*
X8690Y74294D01*
X7634Y74731D01*
X6500Y74881D01*
X5366Y74731D01*
X4310Y74294D01*
X3402Y73598D01*
X2706Y72690D01*
X2269Y71634D01*
X2119Y70500D01*
X2269Y69366D01*
X2706Y68310D01*
X3402Y67402D01*
X4310Y66706D01*
X5366Y66268D01*
X6500Y66119D01*
X7634Y66268D01*
X8499Y66627D01*
X13374Y61751D01*
Y19500D01*
X13475Y18993D01*
X13763Y18563D01*
X19504Y12821D01*
X19480Y12701D01*
Y6402D01*
X19634Y5629D01*
X20072Y4973D01*
X20727Y4535D01*
X21500Y4382D01*
X22273Y4535D01*
X22928Y4973D01*
X23366Y5629D01*
X23520Y6402D01*
Y12701D01*
X23366Y13474D01*
X22928Y14129D01*
X22273Y14567D01*
X21500Y14721D01*
X21378Y14696D01*
X16025Y20049D01*
Y61604D01*
X16487Y61796D01*
X18955Y59328D01*
X18823Y59009D01*
X18711Y58157D01*
X18823Y57306D01*
X19152Y56513D01*
X19674Y55832D01*
X20356Y55309D01*
X21149Y54981D01*
X22000Y54869D01*
X22851Y54981D01*
X23644Y55309D01*
X24326Y55832D01*
X24848Y56513D01*
X25177Y57306D01*
X25289Y58157D01*
X25177Y59009D01*
X24848Y59802D01*
X24326Y60483D01*
X23644Y61006D01*
X22851Y61334D01*
X22000Y61446D01*
X21149Y61334D01*
X20830Y61202D01*
X17479Y64553D01*
Y77993D01*
X17941Y78184D01*
X24203Y71923D01*
X24012Y71461D01*
X23000D01*
Y69000D01*
X25461D01*
Y70012D01*
X25923Y70203D01*
X41856Y54269D01*
X41697Y53885D01*
X41580Y53000D01*
X41697Y52115D01*
X42038Y51290D01*
X42582Y50582D01*
X43290Y50038D01*
X43674Y49879D01*
Y47983D01*
X43429Y47845D01*
X43174Y47800D01*
X25461Y65514D01*
Y67000D01*
X22000D01*
X18539D01*
Y64539D01*
X20687D01*
X20775Y64093D01*
X21063Y63663D01*
X21493Y63375D01*
X22000Y63275D01*
X23951D01*
X35762Y51463D01*
X35503Y51016D01*
X34738Y50915D01*
X33936Y50582D01*
X33246Y50054D01*
X32717Y49364D01*
X32385Y48561D01*
X32272Y47700D01*
X31943Y47326D01*
X28700D01*
X28193Y47225D01*
X27763Y46937D01*
X26763Y45937D01*
X26475Y45507D01*
X26375Y45000D01*
Y36600D01*
X26449Y36227D01*
X26164Y35727D01*
X22500D01*
X21993Y35626D01*
X21563Y35339D01*
X20563Y34339D01*
X20275Y33909D01*
X20175Y33402D01*
Y33095D01*
X20072Y33027D01*
X19634Y32371D01*
X19480Y31598D01*
Y25299D01*
X19634Y24526D01*
X20072Y23871D01*
X20727Y23433D01*
X21500Y23279D01*
X22273Y23433D01*
X22928Y23871D01*
X23366Y24526D01*
X23520Y25299D01*
Y31598D01*
X23366Y32371D01*
X23229Y32576D01*
X23497Y33076D01*
X24503D01*
X24771Y32576D01*
X24634Y32371D01*
X24480Y31598D01*
Y25299D01*
X24634Y24526D01*
X25072Y23871D01*
X25174Y23802D01*
Y22157D01*
X25275Y21650D01*
X25563Y21220D01*
X26118Y20665D01*
X26118Y20664D01*
X25785Y19861D01*
X25671Y19000D01*
X25785Y18138D01*
X26118Y17336D01*
X26646Y16646D01*
X27336Y16117D01*
X28139Y15785D01*
X29000Y15672D01*
X29862Y15785D01*
X30664Y16117D01*
X31354Y16646D01*
X31883Y17336D01*
X32215Y18138D01*
X32329Y19000D01*
X32215Y19861D01*
X31883Y20664D01*
X31354Y21354D01*
X30664Y21883D01*
X29862Y22215D01*
X29000Y22329D01*
X28296Y22236D01*
X27825Y22706D01*
Y23802D01*
X27928Y23871D01*
X28366Y24526D01*
X28520Y25299D01*
Y31598D01*
X28366Y32371D01*
X28229Y32576D01*
X28497Y33076D01*
X29349D01*
X29802Y32623D01*
X29634Y32371D01*
X29480Y31598D01*
Y25299D01*
X29634Y24526D01*
X30072Y23871D01*
X30727Y23433D01*
X31500Y23279D01*
X32273Y23433D01*
X32928Y23871D01*
X33366Y24526D01*
X33520Y25299D01*
Y31598D01*
X33366Y32371D01*
X32928Y33027D01*
X32758Y33141D01*
X32725Y33307D01*
X32437Y33737D01*
X29247Y36928D01*
X29454Y37428D01*
X32998D01*
X35175Y35251D01*
Y33095D01*
X35072Y33027D01*
X34634Y32371D01*
X34480Y31598D01*
Y25299D01*
X34634Y24526D01*
X35072Y23871D01*
X35727Y23433D01*
X36500Y23279D01*
X37273Y23433D01*
X37928Y23871D01*
X38366Y24526D01*
X38520Y25299D01*
Y31598D01*
X38366Y32371D01*
X37928Y33027D01*
X37826Y33095D01*
Y35800D01*
X37725Y36307D01*
X37437Y36737D01*
X37209Y36966D01*
X37400Y37428D01*
X40975D01*
Y33718D01*
X40649Y33653D01*
X39928Y33171D01*
X39445Y32449D01*
X39276Y31598D01*
Y29449D01*
X41500D01*
X43724D01*
Y31598D01*
X43599Y32224D01*
X43600Y32270D01*
X43626Y32400D01*
Y40217D01*
X43870Y40355D01*
X44126Y40400D01*
X45175Y39351D01*
Y33095D01*
X45072Y33027D01*
X44634Y32371D01*
X44480Y31598D01*
Y25299D01*
X44634Y24526D01*
X45072Y23871D01*
X45727Y23433D01*
X46500Y23279D01*
X47273Y23433D01*
X47928Y23871D01*
X48366Y24526D01*
X48520Y25299D01*
Y31598D01*
X48366Y32371D01*
X47928Y33027D01*
X47826Y33095D01*
Y39900D01*
X47725Y40407D01*
X47437Y40837D01*
X46325Y41949D01*
Y49879D01*
X46710Y50038D01*
X47418Y50582D01*
X47962Y51290D01*
X48303Y52115D01*
X48420Y53000D01*
X48303Y53885D01*
X48141Y54278D01*
X48564Y54561D01*
X50174Y52951D01*
Y44500D01*
Y33095D01*
X50072Y33027D01*
X49634Y32371D01*
X49480Y31598D01*
Y25299D01*
X49634Y24526D01*
X50072Y23871D01*
X50174Y23802D01*
Y18059D01*
X49674Y17959D01*
X49382Y18664D01*
X48854Y19354D01*
X48164Y19883D01*
X47361Y20215D01*
X46500Y20328D01*
X45638Y20215D01*
X44836Y19883D01*
X44146Y19354D01*
X43826Y18935D01*
X43325Y19105D01*
Y20707D01*
X43225Y21214D01*
X42937Y21644D01*
X42825Y21756D01*
Y23562D01*
X43073Y23727D01*
X43555Y24448D01*
X43724Y25299D01*
Y27449D01*
X41500D01*
X39276D01*
Y25299D01*
X39445Y24448D01*
X39928Y23727D01*
X40174Y23562D01*
Y22056D01*
X39726Y21835D01*
X39664Y21883D01*
X38862Y22215D01*
X38000Y22329D01*
X37139Y22215D01*
X36336Y21883D01*
X35646Y21354D01*
X35118Y20664D01*
X34785Y19861D01*
X34672Y19000D01*
X34785Y18138D01*
X34896Y17871D01*
X31705Y14680D01*
X31500Y14721D01*
X30727Y14567D01*
X30072Y14129D01*
X29634Y13474D01*
X29480Y12701D01*
Y6402D01*
X29634Y5629D01*
X29970Y5125D01*
X29761Y4625D01*
X28251D01*
X28228Y4651D01*
X28023Y5115D01*
X28366Y5629D01*
X28520Y6402D01*
Y12701D01*
X28366Y13474D01*
X27928Y14129D01*
X27273Y14567D01*
X26500Y14721D01*
X25727Y14567D01*
X25072Y14129D01*
X24634Y13474D01*
X24480Y12701D01*
Y6402D01*
X24634Y5629D01*
X25072Y4973D01*
X25174Y4905D01*
Y4300D01*
X25275Y3793D01*
X25563Y3363D01*
X26563Y2363D01*
X26993Y2075D01*
X27500Y1974D01*
X61800D01*
X62307Y2075D01*
X62737Y2363D01*
X67437Y7063D01*
X67725Y7493D01*
X67826Y8000D01*
Y16348D01*
X68690Y16706D01*
X69598Y17402D01*
X70294Y18310D01*
X70732Y19366D01*
X70881Y20500D01*
X70732Y21634D01*
X70294Y22690D01*
X69598Y23598D01*
X68690Y24294D01*
X67634Y24732D01*
X66500Y24881D01*
X65366Y24732D01*
X64310Y24294D01*
X63402Y23598D01*
X62706Y22690D01*
X62269Y21634D01*
X62119Y20500D01*
X62269Y19366D01*
X62706Y18310D01*
X63402Y17402D01*
X64310Y16706D01*
X65175Y16348D01*
Y8549D01*
X61251Y4625D01*
X53239D01*
X53030Y5125D01*
X53366Y5629D01*
X53520Y6402D01*
Y12701D01*
X53366Y13474D01*
X52928Y14129D01*
X52825Y14198D01*
Y23802D01*
X52928Y23871D01*
X53366Y24526D01*
X53520Y25299D01*
Y31598D01*
X53366Y32371D01*
X52928Y33027D01*
X52825Y33095D01*
Y43951D01*
X61837Y52963D01*
X62125Y53393D01*
X62226Y53900D01*
Y58080D01*
X62674Y58288D01*
X62726Y58284D01*
X63402Y57402D01*
X64310Y56706D01*
X65366Y56269D01*
X66500Y56119D01*
X67634Y56269D01*
X68690Y56706D01*
X69598Y57402D01*
X70294Y58310D01*
X70732Y59366D01*
X70881Y60500D01*
X70732Y61634D01*
X70294Y62690D01*
X69598Y63598D01*
X68690Y64294D01*
X67634Y64732D01*
X66500Y64881D01*
X65366Y64732D01*
X64310Y64294D01*
X63402Y63598D01*
X62726Y62716D01*
X62674Y62712D01*
X62226Y62920D01*
Y68080D01*
X62674Y68288D01*
X62726Y68284D01*
X63402Y67402D01*
X64310Y66706D01*
X65366Y66268D01*
X66500Y66119D01*
X67634Y66268D01*
X68690Y66706D01*
X69598Y67402D01*
X70294Y68310D01*
X70732Y69366D01*
X70881Y70500D01*
X70732Y71634D01*
X70294Y72690D01*
X69598Y73598D01*
X68690Y74294D01*
X67634Y74731D01*
X66500Y74881D01*
X65366Y74731D01*
X64310Y74294D01*
X63402Y73598D01*
X62726Y72716D01*
X62674Y72712D01*
X62226Y72920D01*
Y78080D01*
X62674Y78288D01*
X62726Y78284D01*
X63402Y77402D01*
X64310Y76706D01*
X65366Y76269D01*
X66500Y76119D01*
X67634Y76269D01*
X68690Y76706D01*
X69598Y77402D01*
X70294Y78310D01*
X70732Y79366D01*
X70881Y80500D01*
X70732Y81634D01*
X70294Y82690D01*
X69598Y83598D01*
X68690Y84294D01*
X67634Y84732D01*
X66500Y84881D01*
X65366Y84732D01*
X64310Y84294D01*
X63402Y83598D01*
X62726Y82716D01*
X62674Y82712D01*
X62226Y82920D01*
Y88080D01*
X62674Y88288D01*
X62726Y88284D01*
X63402Y87402D01*
X64310Y86706D01*
X65366Y86269D01*
X66500Y86119D01*
X67634Y86269D01*
X68690Y86706D01*
X69598Y87402D01*
X70294Y88310D01*
X70732Y89366D01*
X70881Y90500D01*
X70732Y91634D01*
X70294Y92690D01*
X69598Y93598D01*
X68690Y94294D01*
X67634Y94731D01*
X66500Y94881D01*
X65366Y94731D01*
X64310Y94294D01*
X63402Y93598D01*
X62726Y92716D01*
X62674Y92712D01*
X62226Y92920D01*
Y98080D01*
X62674Y98288D01*
X62726Y98284D01*
X63402Y97402D01*
X64310Y96706D01*
X65366Y96268D01*
X66500Y96119D01*
X67634Y96268D01*
X68690Y96706D01*
X69598Y97402D01*
X70294Y98310D01*
X70732Y99366D01*
X70881Y100500D01*
X70732Y101634D01*
X70294Y102690D01*
X69598Y103598D01*
X68690Y104294D01*
X67634Y104732D01*
X66500Y104881D01*
X65366Y104732D01*
X64310Y104294D01*
X63402Y103598D01*
X62726Y102716D01*
X62674Y102712D01*
X62226Y102920D01*
Y108080D01*
X62674Y108288D01*
X62726Y108284D01*
X63402Y107402D01*
X64310Y106706D01*
X65366Y106269D01*
X66500Y106119D01*
X67634Y106269D01*
X68690Y106706D01*
X69598Y107402D01*
X70294Y108310D01*
X70732Y109366D01*
X70881Y110500D01*
X70732Y111634D01*
X70294Y112690D01*
X69598Y113598D01*
X68690Y114294D01*
X67634Y114732D01*
X66500Y114881D01*
X65366Y114732D01*
X64310Y114294D01*
X63402Y113598D01*
X62726Y112716D01*
X62674Y112712D01*
X62226Y112920D01*
Y118080D01*
X62674Y118288D01*
X62726Y118284D01*
X63402Y117402D01*
X64310Y116706D01*
X65366Y116269D01*
X66500Y116119D01*
X67634Y116269D01*
X68690Y116706D01*
X69598Y117402D01*
X70294Y118310D01*
X70732Y119366D01*
X70881Y120500D01*
X70732Y121634D01*
X70294Y122690D01*
X69598Y123598D01*
X68690Y124294D01*
X67634Y124732D01*
X66500Y124881D01*
X65366Y124732D01*
X64310Y124294D01*
X63402Y123598D01*
X62726Y122716D01*
X62674Y122712D01*
X62226Y122920D01*
Y124351D01*
X64501Y126627D01*
X65366Y126268D01*
X66500Y126119D01*
X67634Y126268D01*
X68690Y126706D01*
X69598Y127402D01*
X70294Y128310D01*
X70732Y129366D01*
X70881Y130500D01*
X70732Y131634D01*
X70294Y132690D01*
X69598Y133598D01*
X68690Y134294D01*
X67634Y134731D01*
X66500Y134881D01*
X65366Y134731D01*
X64310Y134294D01*
X63402Y133598D01*
X62706Y132690D01*
X62269Y131634D01*
X62119Y130500D01*
X62269Y129366D01*
X62627Y128501D01*
X59963Y125837D01*
X59675Y125407D01*
X59575Y124900D01*
Y81522D01*
X59074Y81291D01*
X58564Y81683D01*
X57762Y82015D01*
X56900Y82129D01*
X56038Y82015D01*
X55236Y81683D01*
X55125Y81598D01*
X54625Y81845D01*
Y136751D01*
X64348Y146474D01*
X65314Y146074D01*
X65500Y146049D01*
Y149500D01*
X62049D01*
X62074Y149314D01*
X62474Y148348D01*
X52363Y138237D01*
X52279Y138111D01*
X51714Y138167D01*
X51659Y138300D01*
X51042Y139105D01*
X50237Y139722D01*
X49301Y140110D01*
X48295Y140243D01*
X47290Y140110D01*
X46353Y139722D01*
X45548Y139105D01*
X45499Y139040D01*
X45026Y139201D01*
Y149429D01*
X45526Y149577D01*
X46049Y148895D01*
X46853Y148278D01*
X47790Y147890D01*
X48795Y147757D01*
X49801Y147890D01*
X50737Y148278D01*
X51542Y148895D01*
X52159Y149700D01*
X52547Y150636D01*
X52680Y151642D01*
X52547Y152647D01*
X52159Y153584D01*
X51542Y154388D01*
X50737Y155006D01*
X49801Y155394D01*
X48795Y155526D01*
X47790Y155394D01*
X46853Y155006D01*
X46049Y154388D01*
X45526Y153707D01*
X45026Y153855D01*
Y167145D01*
X45526Y167293D01*
X46049Y166612D01*
X46853Y165994D01*
X47790Y165606D01*
X48795Y165474D01*
X49801Y165606D01*
X50737Y165994D01*
X51542Y166612D01*
X52159Y167416D01*
X52547Y168353D01*
X52680Y169358D01*
X52547Y170364D01*
X52159Y171300D01*
X51542Y172105D01*
X50737Y172722D01*
X49801Y173110D01*
X48795Y173243D01*
X47790Y173110D01*
X46853Y172722D01*
X46049Y172105D01*
X45526Y171423D01*
X45026Y171571D01*
Y182151D01*
X48878Y186003D01*
X49495Y185748D01*
X50500Y185616D01*
X51505Y185748D01*
X52442Y186136D01*
X53247Y186753D01*
X53864Y187558D01*
X54252Y188495D01*
X54384Y189500D01*
X54252Y190505D01*
X53864Y191442D01*
X53247Y192247D01*
X52442Y192864D01*
X51505Y193252D01*
X50500Y193384D01*
X49495Y193252D01*
X48558Y192864D01*
X47753Y192247D01*
X47136Y191442D01*
X46748Y190505D01*
X46616Y189500D01*
X46748Y188495D01*
X47003Y187878D01*
X42763Y183637D01*
X42475Y183207D01*
X42375Y182700D01*
Y79849D01*
X41054Y78529D01*
X40512Y78693D01*
X40491Y78798D01*
X41437Y79744D01*
X41725Y80174D01*
X41826Y80681D01*
Y185880D01*
X42442Y186136D01*
X43247Y186753D01*
X43864Y187558D01*
X44252Y188495D01*
X44384Y189500D01*
X44252Y190505D01*
X43864Y191442D01*
X43247Y192247D01*
X42442Y192864D01*
X41505Y193252D01*
X40500Y193384D01*
X39495Y193252D01*
X38558Y192864D01*
X37753Y192247D01*
X37626Y192080D01*
X37126Y192250D01*
Y204409D01*
X37025Y204916D01*
X36737Y205346D01*
X28404Y213679D01*
X28577Y214097D01*
X28696Y215000D01*
X28577Y215903D01*
X28229Y216744D01*
X27674Y217466D01*
X26952Y218020D01*
X26111Y218369D01*
X25209Y218487D01*
X24306Y218369D01*
X23465Y218020D01*
X22826Y217529D01*
X22325Y217667D01*
Y222742D01*
X23888Y224305D01*
X24306Y224131D01*
X25209Y224013D01*
X26111Y224131D01*
X26952Y224480D01*
X27674Y225034D01*
X28229Y225756D01*
X28577Y226597D01*
X28696Y227500D01*
X28577Y228403D01*
X28229Y229244D01*
X27674Y229966D01*
X26952Y230520D01*
X26111Y230869D01*
X25209Y230987D01*
X24306Y230869D01*
X23465Y230520D01*
X22743Y229966D01*
X22188Y229244D01*
X21840Y228403D01*
X21721Y227500D01*
X21840Y226597D01*
X22013Y226179D01*
X20063Y224229D01*
X19775Y223799D01*
X19674Y223291D01*
Y218905D01*
X19174Y218856D01*
X19125Y219107D01*
X18837Y219537D01*
X15027Y223348D01*
X15290Y223984D01*
X15424Y225000D01*
X15290Y226016D01*
X14898Y226962D01*
X14275Y227775D01*
X13462Y228398D01*
X12516Y228790D01*
X11500Y228924D01*
X10484Y228790D01*
X9538Y228398D01*
X8725Y227775D01*
X8102Y226962D01*
X7710Y226016D01*
X7576Y225000D01*
X7710Y223984D01*
X8102Y223038D01*
X8725Y222225D01*
X9538Y221602D01*
X10484Y221210D01*
X11500Y221076D01*
X12516Y221210D01*
X13152Y221473D01*
X15235Y219391D01*
X15028Y218891D01*
X7609D01*
Y212984D01*
X5226Y210600D01*
X4725Y210807D01*
Y216977D01*
X5064Y217118D01*
X5754Y217646D01*
X6283Y218336D01*
X6615Y219139D01*
X6729Y220000D01*
X6615Y220862D01*
X6283Y221664D01*
X5754Y222354D01*
X5064Y222883D01*
X4262Y223215D01*
X3400Y223328D01*
X2538Y223215D01*
X1736Y222883D01*
X1199Y222470D01*
X698Y222674D01*
X668Y233320D01*
X1021Y233675D01*
X72175D01*
Y1326D01*
D02*
G37*
G36*
X16575Y218051D02*
Y195500D01*
X15011Y193937D01*
X14763Y193565D01*
X14351Y193351D01*
X7274D01*
Y208900D01*
X9484Y211109D01*
X15391D01*
Y218528D01*
X15890Y218735D01*
X16575Y218051D01*
D02*
G37*
G36*
X19775Y200193D02*
X20063Y199763D01*
X24174Y195651D01*
Y191859D01*
X23674Y191689D01*
X23247Y192247D01*
X22442Y192864D01*
X21505Y193252D01*
X20500Y193384D01*
X19495Y193252D01*
X18558Y192864D01*
X17855Y192325D01*
X17525Y192702D01*
X18837Y194014D01*
X19125Y194444D01*
X19226Y194951D01*
Y200395D01*
X19726Y200444D01*
X19775Y200193D01*
D02*
G37*
G36*
X23465Y211980D02*
X24306Y211631D01*
X25209Y211513D01*
X26111Y211631D01*
X26529Y211805D01*
X34475Y203860D01*
Y191761D01*
X34305Y191676D01*
X33974Y191627D01*
X33389Y192389D01*
X32543Y193039D01*
X31558Y193447D01*
X31500Y193455D01*
Y189500D01*
Y185546D01*
X31558Y185553D01*
X32543Y185961D01*
X33389Y186611D01*
X33974Y187373D01*
X34305Y187324D01*
X34475Y187240D01*
Y150722D01*
X33974Y150491D01*
X33464Y150882D01*
X32662Y151215D01*
X31800Y151329D01*
X30939Y151215D01*
X30136Y150882D01*
X29625Y150491D01*
X29125Y150722D01*
Y179400D01*
X29025Y179907D01*
X28737Y180337D01*
X26825Y182249D01*
Y186813D01*
X27325Y186982D01*
X27611Y186611D01*
X28457Y185961D01*
X29442Y185553D01*
X29500Y185546D01*
Y189500D01*
Y193455D01*
X29442Y193447D01*
X28457Y193039D01*
X27611Y192389D01*
X27325Y192018D01*
X26825Y192187D01*
Y196200D01*
X26725Y196707D01*
X26437Y197137D01*
X24995Y198580D01*
X25073Y198737D01*
X25262Y199020D01*
X26111Y199132D01*
X26952Y199480D01*
X27674Y200034D01*
X28229Y200756D01*
X28577Y201597D01*
X28696Y202500D01*
X28577Y203403D01*
X28229Y204244D01*
X27674Y204966D01*
X26952Y205520D01*
X26111Y205869D01*
X25209Y205987D01*
X24306Y205869D01*
X23465Y205520D01*
X22826Y205029D01*
X22325Y205167D01*
Y212333D01*
X22826Y212471D01*
X23465Y211980D01*
D02*
G37*
G36*
X24174Y187141D02*
Y181700D01*
X24275Y181193D01*
X24563Y180763D01*
X26474Y178851D01*
Y172201D01*
X26001Y172040D01*
X25951Y172105D01*
X25147Y172722D01*
X24210Y173110D01*
X23205Y173243D01*
X22199Y173110D01*
X21263Y172722D01*
X20458Y172105D01*
X19979Y171481D01*
X19479Y171650D01*
Y184646D01*
X19378Y185154D01*
X19285Y185294D01*
X19391Y185523D01*
X19591Y185735D01*
X20500Y185616D01*
X21505Y185748D01*
X22442Y186136D01*
X23247Y186753D01*
X23674Y187311D01*
X24174Y187141D01*
D02*
G37*
G36*
X15011Y185914D02*
X16828Y184097D01*
Y167558D01*
X16366Y167367D01*
X7274Y176458D01*
Y185649D01*
X14351D01*
Y186002D01*
X14851Y186154D01*
X15011Y185914D01*
D02*
G37*
G36*
X20458Y166612D02*
X21263Y165994D01*
X22199Y165606D01*
X23205Y165474D01*
X24210Y165606D01*
X25147Y165994D01*
X25951Y166612D01*
X26001Y166676D01*
X26474Y166515D01*
Y155493D01*
X19479D01*
Y167066D01*
X19979Y167236D01*
X20458Y166612D01*
D02*
G37*
G36*
X26474Y138571D02*
X25975Y138423D01*
X25451Y139105D01*
X24647Y139722D01*
X23710Y140110D01*
X22705Y140243D01*
X21699Y140110D01*
X20763Y139722D01*
X19979Y139121D01*
X19803Y139148D01*
X19479Y139258D01*
Y147791D01*
X26474D01*
Y138571D01*
D02*
G37*
G36*
X51974Y134006D02*
Y120994D01*
X51474Y120825D01*
X51042Y121388D01*
X50237Y122006D01*
X49301Y122394D01*
X48295Y122526D01*
X47290Y122394D01*
X46353Y122006D01*
X45548Y121388D01*
X45499Y121324D01*
X45026Y121485D01*
Y133515D01*
X45499Y133676D01*
X45548Y133612D01*
X46353Y132994D01*
X47290Y132606D01*
X48295Y132474D01*
X49301Y132606D01*
X50237Y132994D01*
X51042Y133612D01*
X51474Y134175D01*
X51974Y134006D01*
D02*
G37*
G36*
X26474Y134145D02*
Y122493D01*
X19479D01*
Y133458D01*
X19803Y133568D01*
X19979Y133595D01*
X20763Y132994D01*
X21699Y132606D01*
X22705Y132474D01*
X23710Y132606D01*
X24647Y132994D01*
X25451Y133612D01*
X25975Y134293D01*
X26474Y134145D01*
D02*
G37*
G36*
X34475Y145278D02*
Y130046D01*
X34238Y130015D01*
X33436Y129683D01*
X32926Y129291D01*
X32425Y129522D01*
Y144754D01*
X32662Y144785D01*
X33464Y145117D01*
X33974Y145509D01*
X34475Y145278D01*
D02*
G37*
G36*
X37753Y186753D02*
X38558Y186136D01*
X39175Y185880D01*
Y81230D01*
X37972Y80028D01*
X37685Y79598D01*
X37584Y79091D01*
Y68000D01*
X37685Y67493D01*
X37972Y67063D01*
X38348Y66687D01*
X38156Y66225D01*
X37449D01*
X32425Y71249D01*
Y124078D01*
X32926Y124309D01*
X33436Y123917D01*
X34238Y123585D01*
X35100Y123471D01*
X35961Y123585D01*
X36764Y123917D01*
X37454Y124446D01*
X37982Y125136D01*
X38315Y125938D01*
X38429Y126800D01*
X38315Y127662D01*
X37982Y128464D01*
X37454Y129154D01*
X37126Y129405D01*
Y186750D01*
X37626Y186920D01*
X37753Y186753D01*
D02*
G37*
G36*
X51974Y116289D02*
Y105711D01*
X51474Y105541D01*
X51042Y106105D01*
X50237Y106722D01*
X49301Y107110D01*
X48295Y107243D01*
X47290Y107110D01*
X46353Y106722D01*
X45548Y106105D01*
X45499Y106040D01*
X45026Y106201D01*
Y115799D01*
X45499Y115960D01*
X45548Y115895D01*
X46353Y115278D01*
X47290Y114890D01*
X48295Y114757D01*
X49301Y114890D01*
X50237Y115278D01*
X51042Y115895D01*
X51474Y116459D01*
X51974Y116289D01*
D02*
G37*
G36*
X26474Y105571D02*
X25975Y105423D01*
X25451Y106105D01*
X24647Y106722D01*
X23710Y107110D01*
X22705Y107243D01*
X21699Y107110D01*
X20763Y106722D01*
X19979Y106121D01*
X19803Y106149D01*
X19479Y106258D01*
Y114791D01*
X26474D01*
Y105571D01*
D02*
G37*
G36*
X51974Y101006D02*
Y87994D01*
X51474Y87825D01*
X51042Y88389D01*
X50237Y89006D01*
X49301Y89394D01*
X48295Y89526D01*
X47290Y89394D01*
X46353Y89006D01*
X45548Y88389D01*
X45499Y88324D01*
X45026Y88485D01*
Y100515D01*
X45499Y100676D01*
X45548Y100611D01*
X46353Y99994D01*
X47290Y99606D01*
X48295Y99474D01*
X49301Y99606D01*
X50237Y99994D01*
X51042Y100611D01*
X51474Y101175D01*
X51974Y101006D01*
D02*
G37*
G36*
X26474Y101145D02*
Y91286D01*
X24681Y89493D01*
X19479D01*
Y100458D01*
X19803Y100568D01*
X19979Y100595D01*
X20763Y99994D01*
X21699Y99606D01*
X22705Y99474D01*
X23710Y99606D01*
X24647Y99994D01*
X25451Y100611D01*
X25975Y101293D01*
X26474Y101145D01*
D02*
G37*
G36*
X51974Y83289D02*
Y81849D01*
X46423Y76297D01*
X46000Y76472D01*
Y73000D01*
X44000D01*
Y76472D01*
X43189Y76136D01*
X42883Y75901D01*
X42553Y76278D01*
X44637Y78363D01*
X44925Y78793D01*
X45026Y79300D01*
Y82799D01*
X45499Y82960D01*
X45548Y82895D01*
X46353Y82278D01*
X47290Y81890D01*
X48295Y81757D01*
X49301Y81890D01*
X50237Y82278D01*
X51042Y82895D01*
X51474Y83459D01*
X51974Y83289D01*
D02*
G37*
G36*
X59575Y76078D02*
Y54449D01*
X53287Y48162D01*
X52825Y48353D01*
Y53500D01*
X52725Y54007D01*
X52437Y54437D01*
X41752Y65122D01*
X41944Y65584D01*
X51309D01*
X51817Y65685D01*
X52247Y65972D01*
X52500Y66225D01*
X52838Y66085D01*
X53700Y65971D01*
X54562Y66085D01*
X55364Y66417D01*
X56054Y66946D01*
X56583Y67636D01*
X56915Y68439D01*
X57029Y69300D01*
X56915Y70161D01*
X56583Y70964D01*
X56054Y71654D01*
X55364Y72183D01*
X54562Y72515D01*
X53700Y72628D01*
X53251Y72569D01*
X53017Y73043D01*
X55700Y75725D01*
X56038Y75585D01*
X56900Y75472D01*
X57762Y75585D01*
X58564Y75917D01*
X59074Y76309D01*
X59575Y76078D01*
D02*
G37*
G36*
X29774Y145027D02*
Y70807D01*
X29517Y70640D01*
X29287Y70587D01*
X19479Y80395D01*
Y81791D01*
X26556D01*
Y87618D01*
X28737Y89800D01*
X29025Y90230D01*
X29125Y90737D01*
Y144849D01*
X29625Y145123D01*
X29774Y145027D01*
D02*
G37*
%LPC*%
G36*
X64791Y231045D02*
Y228500D01*
X67336D01*
X66986Y229345D01*
X66400Y230109D01*
X65636Y230695D01*
X64791Y231045D01*
D02*
G37*
G36*
X62791D02*
X61947Y230695D01*
X61183Y230109D01*
X60597Y229345D01*
X60247Y228500D01*
X62791D01*
Y231045D01*
D02*
G37*
G36*
X67336Y226500D02*
X60247D01*
X60597Y225656D01*
X61183Y224891D01*
X61947Y224305D01*
X62466Y224090D01*
Y218410D01*
X61947Y218195D01*
X61183Y217609D01*
X60597Y216845D01*
X60247Y216000D01*
X67336D01*
X66986Y216845D01*
X66400Y217609D01*
X65636Y218195D01*
X65117Y218410D01*
Y224090D01*
X65636Y224305D01*
X66400Y224891D01*
X66986Y225656D01*
X67336Y226500D01*
D02*
G37*
G36*
Y214000D02*
X60247D01*
X60597Y213156D01*
X61183Y212391D01*
X61947Y211805D01*
X62466Y211590D01*
Y205910D01*
X61947Y205695D01*
X61183Y205109D01*
X60597Y204345D01*
X60247Y203500D01*
X67336D01*
X66986Y204345D01*
X66400Y205109D01*
X65636Y205695D01*
X65117Y205910D01*
Y211590D01*
X65636Y211805D01*
X66400Y212391D01*
X66986Y213156D01*
X67336Y214000D01*
D02*
G37*
G36*
Y201500D02*
X60247D01*
X60597Y200656D01*
X61183Y199891D01*
X61947Y199305D01*
X62470Y199089D01*
X62567Y198601D01*
X62854Y198171D01*
X63775Y197251D01*
Y192337D01*
X63301Y192176D01*
X63247Y192247D01*
X62442Y192864D01*
X61505Y193252D01*
X60500Y193384D01*
X59495Y193252D01*
X58558Y192864D01*
X57753Y192247D01*
X57136Y191442D01*
X56748Y190505D01*
X56616Y189500D01*
X56748Y188495D01*
X57136Y187558D01*
X57753Y186753D01*
X58558Y186136D01*
X59495Y185748D01*
X60500Y185616D01*
X61505Y185748D01*
X62442Y186136D01*
X63247Y186753D01*
X63301Y186824D01*
X63775Y186663D01*
Y173849D01*
X60463Y170537D01*
X60175Y170107D01*
X60075Y169600D01*
Y155600D01*
X60175Y155093D01*
X60463Y154663D01*
X62474Y152652D01*
X62074Y151686D01*
X62049Y151500D01*
X65500D01*
Y154951D01*
X65314Y154926D01*
X64348Y154526D01*
X62726Y156149D01*
Y157507D01*
X63199Y157667D01*
X63402Y157402D01*
X64310Y156706D01*
X65366Y156269D01*
X66500Y156119D01*
X67634Y156269D01*
X68690Y156706D01*
X69598Y157402D01*
X70294Y158310D01*
X70732Y159366D01*
X70881Y160500D01*
X70732Y161634D01*
X70294Y162690D01*
X69598Y163598D01*
X68690Y164294D01*
X67634Y164732D01*
X66500Y164881D01*
X65366Y164732D01*
X64310Y164294D01*
X63402Y163598D01*
X63199Y163333D01*
X62726Y163493D01*
Y169051D01*
X66037Y172363D01*
X66325Y172793D01*
X66426Y173300D01*
Y197800D01*
X66325Y198307D01*
X66037Y198737D01*
X65882Y198893D01*
X65942Y199540D01*
X66400Y199891D01*
X66986Y200656D01*
X67336Y201500D01*
D02*
G37*
G36*
X67500Y154951D02*
Y151500D01*
X70951D01*
X70926Y151686D01*
X70469Y152791D01*
X69740Y153740D01*
X68791Y154469D01*
X67686Y154926D01*
X67500Y154951D01*
D02*
G37*
G36*
X70951Y149500D02*
X67500D01*
Y146049D01*
X67686Y146074D01*
X68791Y146531D01*
X69740Y147260D01*
X70469Y148209D01*
X70926Y149314D01*
X70951Y149500D01*
D02*
G37*
G36*
X66500Y144881D02*
X65366Y144731D01*
X64310Y144294D01*
X63402Y143598D01*
X62706Y142690D01*
X62269Y141634D01*
X62119Y140500D01*
X62269Y139366D01*
X62706Y138310D01*
X63402Y137402D01*
X64310Y136706D01*
X65366Y136268D01*
X66500Y136119D01*
X67634Y136268D01*
X68690Y136706D01*
X69598Y137402D01*
X70294Y138310D01*
X70732Y139366D01*
X70881Y140500D01*
X70732Y141634D01*
X70294Y142690D01*
X69598Y143598D01*
X68690Y144294D01*
X67634Y144731D01*
X66500Y144881D01*
D02*
G37*
G36*
X5500Y134951D02*
X5314Y134926D01*
X4209Y134469D01*
X3260Y133740D01*
X2531Y132791D01*
X2074Y131686D01*
X2049Y131500D01*
X5500D01*
Y134951D01*
D02*
G37*
G36*
Y129500D02*
X2049D01*
X2074Y129314D01*
X2531Y128209D01*
X3260Y127260D01*
X4209Y126531D01*
X5314Y126074D01*
X5500Y126049D01*
Y129500D01*
D02*
G37*
G36*
X6500Y94881D02*
X5366Y94731D01*
X4310Y94294D01*
X3402Y93598D01*
X2706Y92690D01*
X2269Y91634D01*
X2119Y90500D01*
X2269Y89366D01*
X2706Y88310D01*
X3402Y87402D01*
X4310Y86706D01*
X5366Y86269D01*
X6500Y86119D01*
X7634Y86269D01*
X8690Y86706D01*
X9598Y87402D01*
X10294Y88310D01*
X10731Y89366D01*
X10881Y90500D01*
X10731Y91634D01*
X10294Y92690D01*
X9598Y93598D01*
X8690Y94294D01*
X7634Y94731D01*
X6500Y94881D01*
D02*
G37*
G36*
Y84881D02*
X5366Y84732D01*
X4310Y84294D01*
X3402Y83598D01*
X2706Y82690D01*
X2269Y81634D01*
X2119Y80500D01*
X2269Y79366D01*
X2706Y78310D01*
X3402Y77402D01*
X4310Y76706D01*
X5366Y76269D01*
X6500Y76119D01*
X7634Y76269D01*
X8690Y76706D01*
X9598Y77402D01*
X10294Y78310D01*
X10731Y79366D01*
X10881Y80500D01*
X10731Y81634D01*
X10294Y82690D01*
X9598Y83598D01*
X8690Y84294D01*
X7634Y84732D01*
X6500Y84881D01*
D02*
G37*
G36*
X21000Y71461D02*
X18539D01*
Y69000D01*
X21000D01*
Y71461D01*
D02*
G37*
G36*
X6500Y64881D02*
X5366Y64732D01*
X4310Y64294D01*
X3402Y63598D01*
X2706Y62690D01*
X2269Y61634D01*
X2119Y60500D01*
X2269Y59366D01*
X2706Y58310D01*
X3402Y57402D01*
X4310Y56706D01*
X5366Y56269D01*
X6500Y56119D01*
X7634Y56269D01*
X8690Y56706D01*
X9598Y57402D01*
X10294Y58310D01*
X10731Y59366D01*
X10881Y60500D01*
X10731Y61634D01*
X10294Y62690D01*
X9598Y63598D01*
X8690Y64294D01*
X7634Y64732D01*
X6500Y64881D01*
D02*
G37*
G36*
X66500Y54881D02*
X65366Y54732D01*
X64310Y54294D01*
X63402Y53598D01*
X62706Y52690D01*
X62269Y51634D01*
X62119Y50500D01*
X62269Y49366D01*
X62706Y48310D01*
X63402Y47402D01*
X64310Y46706D01*
X65366Y46268D01*
X66500Y46119D01*
X67634Y46268D01*
X68690Y46706D01*
X69598Y47402D01*
X70294Y48310D01*
X70732Y49366D01*
X70881Y50500D01*
X70732Y51634D01*
X70294Y52690D01*
X69598Y53598D01*
X68690Y54294D01*
X67634Y54732D01*
X66500Y54881D01*
D02*
G37*
G36*
X6500D02*
X5366Y54732D01*
X4310Y54294D01*
X3402Y53598D01*
X2706Y52690D01*
X2269Y51634D01*
X2119Y50500D01*
X2269Y49366D01*
X2706Y48310D01*
X3402Y47402D01*
X4310Y46706D01*
X5366Y46268D01*
X6500Y46119D01*
X7634Y46268D01*
X8690Y46706D01*
X9598Y47402D01*
X10294Y48310D01*
X10731Y49366D01*
X10881Y50500D01*
X10731Y51634D01*
X10294Y52690D01*
X9598Y53598D01*
X8690Y54294D01*
X7634Y54732D01*
X6500Y54881D01*
D02*
G37*
G36*
X66500Y44881D02*
X65366Y44732D01*
X64310Y44294D01*
X63402Y43598D01*
X62706Y42690D01*
X62269Y41634D01*
X62119Y40500D01*
X62269Y39366D01*
X62706Y38310D01*
X63402Y37402D01*
X64310Y36706D01*
X65366Y36268D01*
X66500Y36119D01*
X67634Y36268D01*
X68690Y36706D01*
X69598Y37402D01*
X70294Y38310D01*
X70732Y39366D01*
X70881Y40500D01*
X70732Y41634D01*
X70294Y42690D01*
X69598Y43598D01*
X68690Y44294D01*
X67634Y44732D01*
X66500Y44881D01*
D02*
G37*
G36*
X6500D02*
X5366Y44732D01*
X4310Y44294D01*
X3402Y43598D01*
X2706Y42690D01*
X2269Y41634D01*
X2119Y40500D01*
X2269Y39366D01*
X2706Y38310D01*
X3402Y37402D01*
X4310Y36706D01*
X5366Y36268D01*
X6500Y36119D01*
X7634Y36268D01*
X8690Y36706D01*
X9598Y37402D01*
X10294Y38310D01*
X10731Y39366D01*
X10881Y40500D01*
X10731Y41634D01*
X10294Y42690D01*
X9598Y43598D01*
X8690Y44294D01*
X7634Y44732D01*
X6500Y44881D01*
D02*
G37*
G36*
X66500Y34881D02*
X65366Y34732D01*
X64310Y34294D01*
X63402Y33598D01*
X62706Y32690D01*
X62269Y31634D01*
X62119Y30500D01*
X62269Y29366D01*
X62706Y28310D01*
X63402Y27402D01*
X64310Y26706D01*
X65366Y26269D01*
X66500Y26119D01*
X67634Y26269D01*
X68690Y26706D01*
X69598Y27402D01*
X70294Y28310D01*
X70732Y29366D01*
X70881Y30500D01*
X70732Y31634D01*
X70294Y32690D01*
X69598Y33598D01*
X68690Y34294D01*
X67634Y34732D01*
X66500Y34881D01*
D02*
G37*
G36*
X6500D02*
X5366Y34732D01*
X4310Y34294D01*
X3402Y33598D01*
X2706Y32690D01*
X2269Y31634D01*
X2119Y30500D01*
X2269Y29366D01*
X2706Y28310D01*
X3402Y27402D01*
X4310Y26706D01*
X5366Y26269D01*
X6500Y26119D01*
X7634Y26269D01*
X8690Y26706D01*
X9598Y27402D01*
X10294Y28310D01*
X10731Y29366D01*
X10881Y30500D01*
X10731Y31634D01*
X10294Y32690D01*
X9598Y33598D01*
X8690Y34294D01*
X7634Y34732D01*
X6500Y34881D01*
D02*
G37*
G36*
Y24881D02*
X5366Y24732D01*
X4310Y24294D01*
X3402Y23598D01*
X2706Y22690D01*
X2269Y21634D01*
X2119Y20500D01*
X2269Y19366D01*
X2706Y18310D01*
X3402Y17402D01*
X4310Y16706D01*
X5366Y16269D01*
X6500Y16119D01*
X7634Y16269D01*
X8690Y16706D01*
X9598Y17402D01*
X10294Y18310D01*
X10731Y19366D01*
X10881Y20500D01*
X10731Y21634D01*
X10294Y22690D01*
X9598Y23598D01*
X8690Y24294D01*
X7634Y24732D01*
X6500Y24881D01*
D02*
G37*
%LPD*%
D16*
X21500Y9551D02*
D03*
X26500D02*
D03*
X31500D02*
D03*
X36500D02*
D03*
X41500D02*
D03*
X46500D02*
D03*
X51500D02*
D03*
X21500Y28449D02*
D03*
X26500D02*
D03*
X31500D02*
D03*
X36500D02*
D03*
X41500D02*
D03*
X46500D02*
D03*
X51500D02*
D03*
D17*
X31256Y41000D02*
D03*
X38744D02*
D03*
D22*
X48795Y169358D02*
D03*
X23205D02*
D03*
X48795Y151642D02*
D03*
X48295Y136358D02*
D03*
X22705D02*
D03*
X48295Y118642D02*
D03*
Y103358D02*
D03*
X22705D02*
D03*
X48295Y85642D02*
D03*
X20500Y189500D02*
D03*
X30500D02*
D03*
X40500D02*
D03*
X50500D02*
D03*
X60500D02*
D03*
D23*
X23205Y151642D02*
D03*
X22705Y118642D02*
D03*
Y85642D02*
D03*
X10500Y189500D02*
D03*
D24*
X11500Y225000D02*
D03*
D25*
Y215000D02*
D03*
D32*
X26500Y22157D02*
Y28449D01*
X29000Y19000D02*
Y19657D01*
X26500Y22157D02*
X29000Y19657D01*
X41500Y16744D02*
X42000Y17244D01*
X41500Y9551D02*
Y16744D01*
X37900Y19000D02*
X38000D01*
X31500Y12600D02*
X37900Y19000D01*
X41500Y21207D02*
X42000Y20707D01*
Y17244D02*
Y20707D01*
X41500Y21207D02*
Y28449D01*
X31500Y9551D02*
Y12600D01*
X31256Y39400D02*
X32900D01*
X51500Y44500D02*
Y53500D01*
X35600Y47700D02*
X37300Y46000D01*
X28700D02*
X37300D01*
X29898Y34402D02*
X31500Y32800D01*
X27700Y36600D02*
X29898Y34402D01*
X45000Y73000D02*
X53300Y81300D01*
Y137300D01*
X66500Y150500D01*
X35100Y126800D02*
X35800Y127500D01*
Y204409D01*
X25209Y215000D02*
X35800Y204409D01*
X18154Y79846D02*
X45000Y53000D01*
X18154Y79846D02*
Y184646D01*
X15949Y186851D02*
X18154Y184646D01*
X15949Y186851D02*
Y193000D01*
X17900Y194951D01*
Y218600D01*
X11500Y225000D02*
X17900Y218600D01*
X46500Y9551D02*
Y17000D01*
X6500Y70500D02*
X14700Y62300D01*
Y19500D02*
Y62300D01*
Y19500D02*
X21500Y12700D01*
Y9551D02*
Y12700D01*
Y28449D02*
Y33402D01*
X22500Y34402D01*
X29898D01*
X38744Y41000D02*
Y44556D01*
X37300Y46000D02*
X38744Y44556D01*
X27700Y45000D02*
X28700Y46000D01*
X27700Y36600D02*
Y45000D01*
X31500Y28449D02*
Y32800D01*
X31100Y147300D02*
X31800Y148000D01*
X31100Y70700D02*
Y147300D01*
Y70700D02*
X36900Y64900D01*
X40100D01*
X51500Y53500D01*
X40500Y80681D02*
Y189500D01*
X38909Y79091D02*
X40500Y80681D01*
X38909Y68000D02*
Y79091D01*
Y68000D02*
X40000Y66909D01*
X51309D01*
X53700Y69300D01*
X60900Y124900D02*
X66500Y130500D01*
X60900Y53900D02*
Y124900D01*
X51500Y44500D02*
X60900Y53900D01*
X51500Y28449D02*
Y44500D01*
X47009Y68909D02*
X56900Y78800D01*
X42000Y68909D02*
X47009D01*
X40909Y70000D02*
X42000Y68909D01*
X40909Y70000D02*
Y76509D01*
X43700Y79300D01*
Y182700D01*
X50500Y189500D01*
X63791Y199109D02*
Y202500D01*
Y199109D02*
X65100Y197800D01*
Y173300D02*
Y197800D01*
X61400Y169600D02*
X65100Y173300D01*
X61400Y155600D02*
Y169600D01*
Y155600D02*
X66500Y150500D01*
X6500Y100500D02*
X11600Y105600D01*
Y165600D01*
X3400Y173800D02*
X11600Y165600D01*
X3400Y173800D02*
Y220000D01*
X22000Y64600D02*
Y68000D01*
Y64600D02*
X24500D01*
X42300Y46800D01*
Y32400D02*
Y46800D01*
X41500Y28449D02*
X42300Y32400D01*
X36500Y9551D02*
X41500D01*
X63791Y202500D02*
Y215000D01*
Y227500D01*
X31256Y39400D02*
Y41000D01*
X32900Y39400D02*
X36500Y35800D01*
Y28449D02*
Y35800D01*
X22705Y85642D02*
X27800Y90737D01*
Y179400D01*
X25500Y181700D02*
X27800Y179400D01*
X25500Y181700D02*
Y196200D01*
X21000Y200700D02*
X25500Y196200D01*
X21000Y200700D02*
Y223291D01*
X25209Y227500D01*
X45000Y41400D02*
Y53000D01*
Y41400D02*
X46500Y39900D01*
Y28449D02*
Y39900D01*
X16154Y64004D02*
X22000Y58157D01*
X16154Y64004D02*
Y165705D01*
X5949Y175909D02*
X16154Y165705D01*
X5949Y175909D02*
Y209449D01*
X11500Y215000D01*
X26500Y4300D02*
Y9551D01*
Y4300D02*
X27500Y3300D01*
X61800D01*
X66500Y8000D01*
Y20500D01*
X51500Y9551D02*
Y28449D01*
D33*
X6500Y160500D02*
D03*
D34*
Y150500D02*
D03*
Y140500D02*
D03*
Y130500D02*
D03*
Y120500D02*
D03*
Y110500D02*
D03*
Y100500D02*
D03*
Y90500D02*
D03*
Y80500D02*
D03*
Y70500D02*
D03*
Y60500D02*
D03*
Y50500D02*
D03*
Y40500D02*
D03*
Y30500D02*
D03*
Y20500D02*
D03*
X66500D02*
D03*
Y30500D02*
D03*
Y40500D02*
D03*
Y50500D02*
D03*
Y60500D02*
D03*
Y70500D02*
D03*
Y80500D02*
D03*
Y90500D02*
D03*
Y100500D02*
D03*
Y110500D02*
D03*
Y120500D02*
D03*
Y130500D02*
D03*
Y140500D02*
D03*
Y150500D02*
D03*
Y160500D02*
D03*
D35*
X63791Y202500D02*
D03*
X25209D02*
D03*
X63791Y215000D02*
D03*
X25209D02*
D03*
X63791Y227500D02*
D03*
X25209D02*
D03*
D36*
X22000Y68000D02*
D03*
D37*
Y58157D02*
D03*
D38*
X45000Y53000D02*
D03*
Y73000D02*
D03*
D39*
X29000Y19000D02*
D03*
X38000D02*
D03*
X35100Y126800D02*
D03*
X46500Y17000D02*
D03*
X31800Y148000D02*
D03*
X53700Y69300D02*
D03*
X56900Y78800D02*
D03*
X35600Y47700D02*
D03*
X3400Y220000D02*
D03*
M02*
