M48
;Layer_Color=9474304
;FILE_FORMAT=2:4
INCH,TZ
;TYPE=PLATED
T1F00S00C0.0276
T2F00S00C0.0280
T3F00S00C0.0319
T4F00S00C0.0335
T5F00S00C0.0354
T6F00S00C0.0394
T7F00S00C0.0402
%
T01
X2200Y5816
Y6800
T02
X2900Y1900
X3800
X4650Y1700
X3560Y4770
X5690Y7880
X5370Y6930
X3510Y12680
X3180Y14800
X340Y22000
T03
X4500Y5300
Y7300
T04
X6379Y20250
X2521
Y21500
Y22750
X6379
Y21500
T05
X650Y2050
Y3050
Y4050
Y5050
X6650
Y4050
Y3050
Y2050
Y6050
Y7050
Y8050
Y9050
Y10050
Y11050
Y12050
Y13050
Y14050
Y15050
Y16050
X650
Y15050
Y14050
Y13050
Y12050
Y11050
Y10050
Y9050
Y8050
Y7050
Y6050
T06
X2270Y8564
Y10336
Y11864
Y13636
X2320Y15164
Y16936
X4880
Y15164
X4830Y13636
Y11864
Y10336
Y8564
T07
X6050Y18950
X5050
X4050
X3050
X2050
X1050
X1150Y21500
Y22500
M30
