G04*
G04 #@! TF.GenerationSoftware,Altium Limited,Altium Designer,23.2.1 (34)*
G04*
G04 Layer_Color=255*
%FSLAX25Y25*%
%MOIN*%
G70*
G04*
G04 #@! TF.SameCoordinates,08813931-105C-4D26-8E83-7783437ACDD9*
G04*
G04*
G04 #@! TF.FilePolarity,Positive*
G04*
G01*
G75*
%ADD16O,0.02362X0.08661*%
%ADD17R,0.03963X0.05544*%
%ADD22C,0.06102*%
%ADD23R,0.06102X0.06102*%
%ADD24C,0.06181*%
%ADD25R,0.06181X0.06181*%
%ADD33R,0.07087X0.07087*%
%ADD34C,0.07087*%
%ADD35C,0.05315*%
%ADD36R,0.04921X0.04921*%
%ADD37C,0.04921*%
%ADD38C,0.05181*%
D16*
X21500Y9551D02*
D03*
X26500D02*
D03*
X31500D02*
D03*
X36500D02*
D03*
X41500D02*
D03*
X46500D02*
D03*
X51500D02*
D03*
X21500Y28449D02*
D03*
X26500D02*
D03*
X31500D02*
D03*
X36500D02*
D03*
X41500D02*
D03*
X46500D02*
D03*
X51500D02*
D03*
D17*
X31256Y41000D02*
D03*
X38744D02*
D03*
D22*
X48795Y169358D02*
D03*
X23205D02*
D03*
X48795Y151642D02*
D03*
X48295Y136358D02*
D03*
X22705D02*
D03*
X48295Y118642D02*
D03*
Y103358D02*
D03*
X22705D02*
D03*
X48295Y85642D02*
D03*
X20500Y189500D02*
D03*
X30500D02*
D03*
X40500D02*
D03*
X50500D02*
D03*
X60500D02*
D03*
D23*
X23205Y151642D02*
D03*
X22705Y118642D02*
D03*
Y85642D02*
D03*
X10500Y189500D02*
D03*
D24*
X11500Y225000D02*
D03*
D25*
Y215000D02*
D03*
D33*
X6500Y160500D02*
D03*
D34*
Y150500D02*
D03*
Y140500D02*
D03*
Y130500D02*
D03*
Y120500D02*
D03*
Y110500D02*
D03*
Y100500D02*
D03*
Y90500D02*
D03*
Y80500D02*
D03*
Y70500D02*
D03*
Y60500D02*
D03*
Y50500D02*
D03*
Y40500D02*
D03*
Y30500D02*
D03*
Y20500D02*
D03*
X66500D02*
D03*
Y30500D02*
D03*
Y40500D02*
D03*
Y50500D02*
D03*
Y60500D02*
D03*
Y70500D02*
D03*
Y80500D02*
D03*
Y90500D02*
D03*
Y100500D02*
D03*
Y110500D02*
D03*
Y120500D02*
D03*
Y130500D02*
D03*
Y140500D02*
D03*
Y150500D02*
D03*
Y160500D02*
D03*
D35*
X63791Y202500D02*
D03*
X25209D02*
D03*
X63791Y215000D02*
D03*
X25209D02*
D03*
X63791Y227500D02*
D03*
X25209D02*
D03*
D36*
X22000Y68000D02*
D03*
D37*
Y58157D02*
D03*
D38*
X45000Y53000D02*
D03*
Y73000D02*
D03*
M02*
