G04*
G04 #@! TF.GenerationSoftware,Altium Limited,Altium Designer,23.2.1 (34)*
G04*
G04 Layer_Color=128*
%FSLAX25Y25*%
%MOIN*%
G70*
G04*
G04 #@! TF.SameCoordinates,08813931-105C-4D26-8E83-7783437ACDD9*
G04*
G04*
G04 #@! TF.FilePolarity,Positive*
G04*
G01*
G75*
%ADD14C,0.00500*%
D14*
X4728Y160500D02*
X8272D01*
X6500Y158728D02*
Y162272D01*
X4728Y150500D02*
X8272D01*
X6500Y148728D02*
Y152272D01*
X4728Y140500D02*
X8272D01*
X6500Y138728D02*
Y142272D01*
X4728Y130500D02*
X8272D01*
X6500Y128728D02*
Y132272D01*
X4728Y120500D02*
X8272D01*
X6500Y118728D02*
Y122272D01*
X4728Y110500D02*
X8272D01*
X6500Y108728D02*
Y112272D01*
X4728Y100500D02*
X8272D01*
X6500Y98728D02*
Y102272D01*
X4728Y90500D02*
X8272D01*
X6500Y88728D02*
Y92272D01*
X4728Y80500D02*
X8272D01*
X6500Y78728D02*
Y82272D01*
X4728Y70500D02*
X8272D01*
X6500Y68728D02*
Y72272D01*
X4728Y60500D02*
X8272D01*
X6500Y58728D02*
Y62272D01*
X4728Y50500D02*
X8272D01*
X6500Y48728D02*
Y52272D01*
X4728Y40500D02*
X8272D01*
X6500Y38728D02*
Y42272D01*
X4728Y30500D02*
X8272D01*
X6500Y28728D02*
Y32272D01*
X4728Y20500D02*
X8272D01*
X6500Y18728D02*
Y22272D01*
X64728Y20500D02*
X68272D01*
X66500Y18728D02*
Y22272D01*
X64728Y30500D02*
X68272D01*
X66500Y28728D02*
Y32272D01*
X64728Y40500D02*
X68272D01*
X66500Y38728D02*
Y42272D01*
X64728Y50500D02*
X68272D01*
X66500Y48728D02*
Y52272D01*
X64728Y60500D02*
X68272D01*
X66500Y58728D02*
Y62272D01*
X64728Y70500D02*
X68272D01*
X66500Y68728D02*
Y72272D01*
X64728Y80500D02*
X68272D01*
X66500Y78728D02*
Y82272D01*
X64728Y90500D02*
X68272D01*
X66500Y88728D02*
Y92272D01*
X64728Y100500D02*
X68272D01*
X66500Y98728D02*
Y102272D01*
X64728Y110500D02*
X68272D01*
X66500Y108728D02*
Y112272D01*
X64728Y120500D02*
X68272D01*
X66500Y118728D02*
Y122272D01*
X64728Y130500D02*
X68272D01*
X66500Y128728D02*
Y132272D01*
X64728Y140500D02*
X68272D01*
X66500Y138728D02*
Y142272D01*
X64728Y150500D02*
X68272D01*
X66500Y148728D02*
Y152272D01*
X64728Y160500D02*
X68272D01*
X66500Y158728D02*
Y162272D01*
X62118Y202500D02*
X65465D01*
X63791Y200827D02*
Y204173D01*
X23535Y202500D02*
X26882D01*
X25209Y200827D02*
Y204173D01*
X46827Y169358D02*
X50764D01*
X48795Y167390D02*
Y171327D01*
X21236Y169358D02*
X25173D01*
X23205Y167390D02*
Y171327D01*
X46827Y151642D02*
X50764D01*
X48795Y149673D02*
Y153610D01*
X21236Y151642D02*
X25173D01*
X23205Y149673D02*
Y153610D01*
X46327Y136358D02*
X50264D01*
X48295Y134390D02*
Y138327D01*
X20736Y136358D02*
X24673D01*
X22705Y134390D02*
Y138327D01*
X46327Y118642D02*
X50264D01*
X48295Y116673D02*
Y120610D01*
X20736Y118642D02*
X24673D01*
X22705Y116673D02*
Y120610D01*
X46327Y103358D02*
X50264D01*
X48295Y101390D02*
Y105327D01*
X20736Y103358D02*
X24673D01*
X22705Y101390D02*
Y105327D01*
X46327Y85642D02*
X50264D01*
X48295Y83673D02*
Y87610D01*
X20736Y85642D02*
X24673D01*
X22705Y83673D02*
Y87610D01*
X62118Y215000D02*
X65465D01*
X63791Y213327D02*
Y216673D01*
X23535Y215000D02*
X26882D01*
X25209Y213327D02*
Y216673D01*
X62118Y227500D02*
X65465D01*
X63791Y225827D02*
Y229173D01*
X23535Y227500D02*
X26882D01*
X25209Y225827D02*
Y229173D01*
X9492Y225000D02*
X13508D01*
X11500Y222992D02*
Y227008D01*
X9492Y215000D02*
X13508D01*
X11500Y212992D02*
Y217008D01*
X8492Y189500D02*
X12508D01*
X10500Y187492D02*
Y191508D01*
X18492Y189500D02*
X22508D01*
X20500Y187492D02*
Y191508D01*
X28492Y189500D02*
X32508D01*
X30500Y187492D02*
Y191508D01*
X38492Y189500D02*
X42508D01*
X40500Y187492D02*
Y191508D01*
X48492Y189500D02*
X52508D01*
X50500Y187492D02*
Y191508D01*
X58492Y189500D02*
X62508D01*
X60500Y187492D02*
Y191508D01*
X20622Y68000D02*
X23378D01*
X22000Y66622D02*
Y69378D01*
X20622Y58157D02*
X23378D01*
X22000Y56779D02*
Y59535D01*
X43406Y53000D02*
X46595D01*
X45000Y51406D02*
Y54594D01*
X43406Y73000D02*
X46595D01*
X45000Y71406D02*
Y74594D01*
X27600Y19000D02*
X30400D01*
X29000Y17600D02*
Y20400D01*
X36600Y19000D02*
X39400D01*
X38000Y17600D02*
Y20400D01*
X33700Y126800D02*
X36500D01*
X35100Y125400D02*
Y128200D01*
X45100Y17000D02*
X47900D01*
X46500Y15600D02*
Y18400D01*
X30400Y148000D02*
X33200D01*
X31800Y146600D02*
Y149400D01*
X52300Y69300D02*
X55100D01*
X53700Y67900D02*
Y70700D01*
X55500Y78800D02*
X58300D01*
X56900Y77400D02*
Y80200D01*
X34200Y47700D02*
X37000D01*
X35600Y46300D02*
Y49100D01*
X2000Y220000D02*
X4800D01*
X3400Y218600D02*
Y221400D01*
M02*
