G04*
G04 #@! TF.GenerationSoftware,Altium Limited,Altium Designer,23.2.1 (34)*
G04*
G04 Layer_Color=65535*
%FSLAX25Y25*%
%MOIN*%
G70*
G04*
G04 #@! TF.SameCoordinates,08813931-105C-4D26-8E83-7783437ACDD9*
G04*
G04*
G04 #@! TF.FilePolarity,Positive*
G04*
G01*
G75*
%ADD10C,0.00984*%
%ADD11C,0.01575*%
%ADD12C,0.00394*%
%ADD13C,0.00787*%
%ADD14C,0.00500*%
%ADD15C,0.00787*%
G36*
X71989Y203595D02*
X71985Y203558D01*
Y203516D01*
X71980Y203419D01*
X71966Y203318D01*
X71952Y203207D01*
X71929Y203105D01*
X71916Y203054D01*
X71902Y203013D01*
Y203008D01*
X71897Y203004D01*
X71883Y202976D01*
X71865Y202934D01*
X71832Y202883D01*
X71791Y202828D01*
X71735Y202768D01*
X71671Y202712D01*
X71597Y202657D01*
X71592D01*
X71588Y202652D01*
X71560Y202634D01*
X71513Y202615D01*
X71453Y202588D01*
X71384Y202565D01*
X71301Y202542D01*
X71213Y202528D01*
X71116Y202523D01*
X71112D01*
X71102D01*
X71084D01*
X71061Y202528D01*
X71028D01*
X70996Y202532D01*
X70918Y202551D01*
X70825Y202578D01*
X70728Y202615D01*
X70631Y202671D01*
X70585Y202708D01*
X70539Y202745D01*
X70534Y202749D01*
X70530Y202754D01*
X70516Y202768D01*
X70502Y202786D01*
X70483Y202810D01*
X70465Y202837D01*
X70442Y202874D01*
X70414Y202911D01*
X70391Y202957D01*
X70368Y203008D01*
X70340Y203064D01*
X70317Y203124D01*
X70298Y203193D01*
X70275Y203262D01*
X70262Y203341D01*
X70248Y203424D01*
X70243Y203415D01*
X70234Y203396D01*
X70215Y203369D01*
X70197Y203332D01*
X70146Y203248D01*
X70114Y203207D01*
X70086Y203170D01*
X70077Y203161D01*
X70054Y203138D01*
X70017Y203101D01*
X69971Y203054D01*
X69906Y203004D01*
X69836Y202943D01*
X69753Y202883D01*
X69661Y202819D01*
X68792Y202269D01*
Y202796D01*
X69458Y203216D01*
X69462D01*
X69472Y203225D01*
X69485Y203235D01*
X69504Y203248D01*
X69555Y203281D01*
X69619Y203322D01*
X69689Y203373D01*
X69763Y203424D01*
X69832Y203475D01*
X69897Y203521D01*
X69901Y203526D01*
X69920Y203539D01*
X69947Y203563D01*
X69980Y203595D01*
X70049Y203664D01*
X70081Y203701D01*
X70109Y203738D01*
X70114Y203743D01*
X70118Y203752D01*
X70127Y203770D01*
X70141Y203798D01*
X70155Y203826D01*
X70169Y203858D01*
X70192Y203932D01*
Y203937D01*
X70197Y203946D01*
Y203964D01*
X70201Y203988D01*
X70206Y204020D01*
Y204057D01*
X70211Y204108D01*
Y204653D01*
X68792D01*
Y205078D01*
X71989D01*
Y203595D01*
D02*
G37*
G36*
X69689Y201622D02*
X69684D01*
X69675Y201618D01*
X69656Y201613D01*
X69633Y201608D01*
X69605Y201604D01*
X69573Y201594D01*
X69504Y201571D01*
X69421Y201539D01*
X69342Y201498D01*
X69268Y201451D01*
X69204Y201396D01*
X69199Y201387D01*
X69180Y201368D01*
X69157Y201331D01*
X69134Y201285D01*
X69107Y201230D01*
X69083Y201160D01*
X69065Y201082D01*
X69060Y200998D01*
Y200971D01*
X69065Y200952D01*
X69070Y200902D01*
X69083Y200837D01*
X69107Y200763D01*
X69139Y200684D01*
X69185Y200606D01*
X69250Y200532D01*
X69259Y200523D01*
X69287Y200500D01*
X69328Y200472D01*
X69384Y200435D01*
X69453Y200398D01*
X69532Y200370D01*
X69624Y200347D01*
X69726Y200338D01*
X69730D01*
X69740D01*
X69753D01*
X69772Y200342D01*
X69823Y200347D01*
X69883Y200361D01*
X69957Y200379D01*
X70030Y200412D01*
X70104Y200458D01*
X70174Y200518D01*
X70183Y200527D01*
X70201Y200550D01*
X70229Y200587D01*
X70262Y200638D01*
X70294Y200703D01*
X70322Y200781D01*
X70340Y200869D01*
X70349Y200966D01*
Y201008D01*
X70345Y201040D01*
X70340Y201082D01*
X70331Y201128D01*
X70322Y201183D01*
X70308Y201243D01*
X70654Y201197D01*
Y201174D01*
X70650Y201156D01*
Y201096D01*
X70659Y201045D01*
X70668Y200985D01*
X70682Y200915D01*
X70705Y200837D01*
X70737Y200763D01*
X70779Y200684D01*
Y200680D01*
X70784Y200675D01*
X70802Y200652D01*
X70834Y200620D01*
X70876Y200583D01*
X70936Y200546D01*
X71005Y200513D01*
X71084Y200490D01*
X71130Y200481D01*
X71181D01*
X71185D01*
X71190D01*
X71218D01*
X71255Y200490D01*
X71306Y200500D01*
X71361Y200518D01*
X71421Y200541D01*
X71481Y200578D01*
X71537Y200629D01*
X71541Y200634D01*
X71560Y200657D01*
X71583Y200689D01*
X71611Y200730D01*
X71634Y200786D01*
X71657Y200851D01*
X71675Y200925D01*
X71680Y201008D01*
Y201045D01*
X71671Y201086D01*
X71661Y201142D01*
X71643Y201202D01*
X71620Y201262D01*
X71583Y201326D01*
X71537Y201387D01*
X71532Y201391D01*
X71509Y201410D01*
X71477Y201437D01*
X71430Y201470D01*
X71370Y201502D01*
X71296Y201534D01*
X71209Y201562D01*
X71107Y201581D01*
X71176Y201973D01*
X71181D01*
X71195Y201969D01*
X71213Y201964D01*
X71241Y201959D01*
X71273Y201950D01*
X71310Y201936D01*
X71398Y201909D01*
X71500Y201862D01*
X71601Y201807D01*
X71698Y201738D01*
X71786Y201650D01*
X71791Y201645D01*
X71795Y201636D01*
X71805Y201622D01*
X71819Y201604D01*
X71837Y201581D01*
X71855Y201548D01*
X71874Y201516D01*
X71897Y201474D01*
X71934Y201382D01*
X71971Y201276D01*
X71994Y201151D01*
X72003Y201086D01*
Y200971D01*
X71999Y200920D01*
X71989Y200860D01*
X71975Y200786D01*
X71952Y200703D01*
X71925Y200620D01*
X71888Y200536D01*
Y200532D01*
X71883Y200527D01*
X71869Y200500D01*
X71842Y200458D01*
X71809Y200412D01*
X71763Y200356D01*
X71712Y200301D01*
X71652Y200245D01*
X71583Y200199D01*
X71574Y200195D01*
X71551Y200181D01*
X71509Y200162D01*
X71458Y200139D01*
X71398Y200116D01*
X71329Y200098D01*
X71250Y200084D01*
X71172Y200079D01*
X71162D01*
X71135D01*
X71098Y200084D01*
X71047Y200093D01*
X70987Y200107D01*
X70922Y200130D01*
X70858Y200158D01*
X70793Y200195D01*
X70784Y200199D01*
X70765Y200213D01*
X70733Y200241D01*
X70696Y200278D01*
X70654Y200324D01*
X70608Y200379D01*
X70566Y200444D01*
X70525Y200523D01*
Y200518D01*
X70520Y200509D01*
X70516Y200495D01*
X70511Y200476D01*
X70493Y200426D01*
X70465Y200361D01*
X70428Y200287D01*
X70382Y200213D01*
X70322Y200144D01*
X70252Y200079D01*
X70243Y200075D01*
X70215Y200056D01*
X70169Y200028D01*
X70109Y200001D01*
X70035Y199973D01*
X69947Y199945D01*
X69846Y199927D01*
X69735Y199922D01*
X69730D01*
X69716D01*
X69693D01*
X69665Y199927D01*
X69629Y199931D01*
X69587Y199941D01*
X69541Y199950D01*
X69490Y199959D01*
X69379Y199996D01*
X69319Y200024D01*
X69264Y200051D01*
X69204Y200088D01*
X69143Y200130D01*
X69083Y200176D01*
X69028Y200232D01*
X69023Y200236D01*
X69014Y200245D01*
X69000Y200264D01*
X68982Y200287D01*
X68959Y200315D01*
X68936Y200352D01*
X68908Y200393D01*
X68885Y200444D01*
X68857Y200495D01*
X68829Y200555D01*
X68806Y200615D01*
X68783Y200684D01*
X68765Y200758D01*
X68751Y200837D01*
X68742Y200915D01*
X68737Y201003D01*
Y201045D01*
X68742Y201072D01*
X68746Y201109D01*
X68751Y201151D01*
X68760Y201197D01*
X68769Y201248D01*
X68797Y201359D01*
X68843Y201474D01*
X68871Y201534D01*
X68903Y201590D01*
X68945Y201645D01*
X68986Y201701D01*
X68991Y201705D01*
X69000Y201715D01*
X69014Y201728D01*
X69033Y201742D01*
X69056Y201765D01*
X69088Y201788D01*
X69120Y201816D01*
X69162Y201844D01*
X69208Y201872D01*
X69254Y201899D01*
X69365Y201950D01*
X69495Y201992D01*
X69564Y202006D01*
X69638Y202015D01*
X69689Y201622D01*
D02*
G37*
G36*
X71092Y227785D02*
X71087Y227748D01*
Y227707D01*
X71082Y227610D01*
X71069Y227508D01*
X71055Y227397D01*
X71031Y227296D01*
X71018Y227245D01*
X71004Y227203D01*
Y227199D01*
X70999Y227194D01*
X70985Y227166D01*
X70967Y227125D01*
X70934Y227074D01*
X70893Y227018D01*
X70837Y226958D01*
X70773Y226903D01*
X70699Y226848D01*
X70694D01*
X70690Y226843D01*
X70662Y226824D01*
X70616Y226806D01*
X70556Y226778D01*
X70486Y226755D01*
X70403Y226732D01*
X70315Y226718D01*
X70218Y226713D01*
X70214D01*
X70205D01*
X70186D01*
X70163Y226718D01*
X70131D01*
X70098Y226723D01*
X70020Y226741D01*
X69927Y226769D01*
X69830Y226806D01*
X69733Y226861D01*
X69687Y226898D01*
X69641Y226935D01*
X69636Y226940D01*
X69632Y226944D01*
X69618Y226958D01*
X69604Y226977D01*
X69586Y227000D01*
X69567Y227028D01*
X69544Y227065D01*
X69516Y227102D01*
X69493Y227148D01*
X69470Y227199D01*
X69442Y227254D01*
X69419Y227314D01*
X69401Y227383D01*
X69378Y227453D01*
X69364Y227531D01*
X69350Y227614D01*
X69345Y227605D01*
X69336Y227587D01*
X69318Y227559D01*
X69299Y227522D01*
X69248Y227439D01*
X69216Y227397D01*
X69188Y227360D01*
X69179Y227351D01*
X69156Y227328D01*
X69119Y227291D01*
X69073Y227245D01*
X69008Y227194D01*
X68939Y227134D01*
X68856Y227074D01*
X68763Y227009D01*
X67895Y226460D01*
Y226986D01*
X68560Y227407D01*
X68564D01*
X68574Y227416D01*
X68588Y227425D01*
X68606Y227439D01*
X68657Y227471D01*
X68721Y227513D01*
X68791Y227564D01*
X68865Y227614D01*
X68934Y227665D01*
X68999Y227712D01*
X69003Y227716D01*
X69022Y227730D01*
X69050Y227753D01*
X69082Y227785D01*
X69151Y227855D01*
X69183Y227892D01*
X69211Y227929D01*
X69216Y227933D01*
X69221Y227942D01*
X69230Y227961D01*
X69244Y227989D01*
X69257Y228016D01*
X69271Y228049D01*
X69294Y228123D01*
Y228127D01*
X69299Y228136D01*
Y228155D01*
X69304Y228178D01*
X69308Y228210D01*
Y228247D01*
X69313Y228298D01*
Y228843D01*
X67895D01*
Y229268D01*
X71092D01*
Y227785D01*
D02*
G37*
G36*
X70302Y225905D02*
X70311Y225896D01*
X70315Y225877D01*
X70329Y225854D01*
X70343Y225827D01*
X70362Y225794D01*
X70408Y225716D01*
X70459Y225623D01*
X70523Y225531D01*
X70597Y225434D01*
X70676Y225337D01*
X70680Y225332D01*
X70685Y225328D01*
X70699Y225314D01*
X70713Y225295D01*
X70759Y225254D01*
X70814Y225198D01*
X70879Y225143D01*
X70953Y225083D01*
X71027Y225032D01*
X71105Y224986D01*
Y224732D01*
X67895D01*
Y225124D01*
X70394D01*
X70389Y225129D01*
X70371Y225152D01*
X70343Y225180D01*
X70311Y225226D01*
X70269Y225277D01*
X70223Y225341D01*
X70172Y225415D01*
X70121Y225499D01*
Y225503D01*
X70117Y225508D01*
X70098Y225535D01*
X70075Y225582D01*
X70047Y225637D01*
X70015Y225702D01*
X69983Y225771D01*
X69950Y225840D01*
X69923Y225910D01*
X70302D01*
Y225905D01*
D02*
G37*
G36*
X16078Y21876D02*
X13578D01*
X13583Y21871D01*
X13601Y21848D01*
X13629Y21820D01*
X13661Y21774D01*
X13703Y21723D01*
X13749Y21659D01*
X13800Y21585D01*
X13851Y21501D01*
Y21497D01*
X13856Y21492D01*
X13874Y21464D01*
X13897Y21418D01*
X13925Y21363D01*
X13957Y21298D01*
X13990Y21229D01*
X14022Y21160D01*
X14050Y21090D01*
X13671D01*
Y21095D01*
X13661Y21104D01*
X13657Y21123D01*
X13643Y21146D01*
X13629Y21173D01*
X13611Y21206D01*
X13564Y21284D01*
X13514Y21377D01*
X13449Y21469D01*
X13375Y21566D01*
X13296Y21663D01*
X13292Y21668D01*
X13287Y21672D01*
X13273Y21686D01*
X13260Y21705D01*
X13213Y21746D01*
X13158Y21802D01*
X13093Y21857D01*
X13019Y21917D01*
X12945Y21968D01*
X12867Y22014D01*
Y22268D01*
X16078D01*
Y21876D01*
D02*
G37*
G36*
X14849Y20240D02*
X14895D01*
X14950Y20236D01*
X15006Y20231D01*
X15131Y20217D01*
X15260Y20199D01*
X15385Y20171D01*
X15445Y20152D01*
X15500Y20134D01*
X15505D01*
X15514Y20129D01*
X15528Y20120D01*
X15546Y20111D01*
X15597Y20083D01*
X15662Y20042D01*
X15736Y19986D01*
X15810Y19921D01*
X15888Y19838D01*
X15958Y19737D01*
Y19732D01*
X15967Y19723D01*
X15971Y19709D01*
X15985Y19686D01*
X15999Y19658D01*
X16013Y19621D01*
X16027Y19584D01*
X16045Y19538D01*
X16064Y19487D01*
X16078Y19432D01*
X16092Y19372D01*
X16105Y19302D01*
X16115Y19233D01*
X16124Y19159D01*
X16133Y18993D01*
Y18951D01*
X16128Y18919D01*
Y18882D01*
X16124Y18836D01*
X16119Y18785D01*
X16115Y18734D01*
X16096Y18619D01*
X16069Y18494D01*
X16032Y18374D01*
X15981Y18258D01*
Y18254D01*
X15971Y18244D01*
X15962Y18230D01*
X15953Y18212D01*
X15916Y18161D01*
X15865Y18101D01*
X15800Y18032D01*
X15727Y17967D01*
X15634Y17902D01*
X15533Y17852D01*
X15528D01*
X15519Y17847D01*
X15500Y17842D01*
X15477Y17833D01*
X15449Y17824D01*
X15412Y17815D01*
X15371Y17801D01*
X15320Y17792D01*
X15265Y17782D01*
X15204Y17768D01*
X15140Y17759D01*
X15071Y17750D01*
X14992Y17741D01*
X14909Y17736D01*
X14821Y17732D01*
X14729D01*
X12881D01*
Y18157D01*
X14729D01*
X14733D01*
X14747D01*
X14770D01*
X14798D01*
X14830Y18161D01*
X14872D01*
X14960Y18166D01*
X15061Y18175D01*
X15163Y18189D01*
X15260Y18207D01*
X15302Y18217D01*
X15343Y18230D01*
X15352Y18235D01*
X15375Y18244D01*
X15408Y18268D01*
X15454Y18295D01*
X15500Y18327D01*
X15551Y18374D01*
X15602Y18429D01*
X15643Y18494D01*
X15648Y18503D01*
X15662Y18526D01*
X15676Y18568D01*
X15694Y18623D01*
X15717Y18688D01*
X15731Y18771D01*
X15745Y18859D01*
X15750Y18956D01*
Y19002D01*
X15745Y19030D01*
Y19071D01*
X15741Y19113D01*
X15722Y19215D01*
X15699Y19326D01*
X15662Y19432D01*
X15611Y19533D01*
X15579Y19580D01*
X15542Y19621D01*
X15537Y19626D01*
X15533Y19630D01*
X15519Y19640D01*
X15500Y19654D01*
X15473Y19667D01*
X15445Y19686D01*
X15403Y19704D01*
X15362Y19723D01*
X15311Y19741D01*
X15251Y19755D01*
X15181Y19774D01*
X15108Y19787D01*
X15024Y19801D01*
X14937Y19811D01*
X14835Y19820D01*
X14729D01*
X12881D01*
Y20245D01*
X14729D01*
X14733D01*
X14752D01*
X14775D01*
X14807D01*
X14849Y20240D01*
D02*
G37*
G36*
X71592Y216079D02*
X71587Y216042D01*
Y216000D01*
X71582Y215903D01*
X71569Y215802D01*
X71555Y215691D01*
X71531Y215589D01*
X71518Y215538D01*
X71504Y215497D01*
Y215492D01*
X71499Y215487D01*
X71485Y215460D01*
X71467Y215418D01*
X71434Y215367D01*
X71393Y215312D01*
X71337Y215252D01*
X71273Y215196D01*
X71199Y215141D01*
X71194D01*
X71190Y215136D01*
X71162Y215118D01*
X71116Y215099D01*
X71056Y215072D01*
X70986Y215049D01*
X70903Y215025D01*
X70815Y215012D01*
X70718Y215007D01*
X70714D01*
X70705D01*
X70686D01*
X70663Y215012D01*
X70631D01*
X70598Y215016D01*
X70520Y215035D01*
X70427Y215062D01*
X70330Y215099D01*
X70233Y215155D01*
X70187Y215192D01*
X70141Y215229D01*
X70136Y215233D01*
X70132Y215238D01*
X70118Y215252D01*
X70104Y215270D01*
X70086Y215293D01*
X70067Y215321D01*
X70044Y215358D01*
X70016Y215395D01*
X69993Y215441D01*
X69970Y215492D01*
X69942Y215547D01*
X69919Y215608D01*
X69901Y215677D01*
X69878Y215746D01*
X69864Y215825D01*
X69850Y215908D01*
X69845Y215899D01*
X69836Y215880D01*
X69818Y215852D01*
X69799Y215815D01*
X69748Y215732D01*
X69716Y215691D01*
X69688Y215654D01*
X69679Y215645D01*
X69656Y215621D01*
X69619Y215584D01*
X69573Y215538D01*
X69508Y215487D01*
X69439Y215427D01*
X69355Y215367D01*
X69263Y215303D01*
X68395Y214753D01*
Y215280D01*
X69060Y215700D01*
X69064D01*
X69074Y215709D01*
X69087Y215718D01*
X69106Y215732D01*
X69157Y215765D01*
X69222Y215806D01*
X69291Y215857D01*
X69365Y215908D01*
X69434Y215959D01*
X69499Y216005D01*
X69503Y216009D01*
X69522Y216023D01*
X69550Y216046D01*
X69582Y216079D01*
X69651Y216148D01*
X69683Y216185D01*
X69711Y216222D01*
X69716Y216227D01*
X69721Y216236D01*
X69730Y216254D01*
X69744Y216282D01*
X69757Y216310D01*
X69771Y216342D01*
X69794Y216416D01*
Y216421D01*
X69799Y216430D01*
Y216448D01*
X69804Y216472D01*
X69808Y216504D01*
Y216541D01*
X69813Y216592D01*
Y217137D01*
X68395D01*
Y217562D01*
X71592D01*
Y216079D01*
D02*
G37*
G36*
X68482Y214554D02*
X68524Y214549D01*
X68570Y214540D01*
X68616Y214531D01*
X68667Y214513D01*
X68672D01*
X68676Y214508D01*
X68704Y214499D01*
X68746Y214480D01*
X68801Y214453D01*
X68866Y214416D01*
X68940Y214369D01*
X69014Y214318D01*
X69092Y214254D01*
X69097D01*
X69101Y214245D01*
X69129Y214222D01*
X69171Y214180D01*
X69231Y214120D01*
X69300Y214051D01*
X69383Y213963D01*
X69476Y213857D01*
X69573Y213741D01*
X69577Y213736D01*
X69591Y213718D01*
X69614Y213690D01*
X69642Y213658D01*
X69679Y213616D01*
X69721Y213565D01*
X69767Y213515D01*
X69818Y213455D01*
X69928Y213339D01*
X70039Y213224D01*
X70095Y213168D01*
X70150Y213117D01*
X70201Y213071D01*
X70252Y213034D01*
X70256D01*
X70261Y213025D01*
X70275Y213016D01*
X70293Y213006D01*
X70344Y212974D01*
X70404Y212937D01*
X70478Y212905D01*
X70557Y212873D01*
X70644Y212854D01*
X70728Y212845D01*
X70732D01*
X70737D01*
X70765Y212849D01*
X70811Y212854D01*
X70862Y212868D01*
X70926Y212886D01*
X70991Y212919D01*
X71056Y212960D01*
X71120Y213016D01*
X71130Y213025D01*
X71148Y213048D01*
X71171Y213080D01*
X71204Y213131D01*
X71231Y213196D01*
X71259Y213270D01*
X71277Y213358D01*
X71282Y213455D01*
Y213482D01*
X71277Y213501D01*
X71273Y213556D01*
X71259Y213621D01*
X71241Y213690D01*
X71208Y213769D01*
X71166Y213843D01*
X71111Y213912D01*
X71102Y213921D01*
X71079Y213940D01*
X71042Y213967D01*
X70986Y213995D01*
X70922Y214028D01*
X70838Y214055D01*
X70746Y214074D01*
X70640Y214083D01*
X70681Y214485D01*
X70686D01*
X70700Y214480D01*
X70723D01*
X70755Y214476D01*
X70792Y214466D01*
X70834Y214457D01*
X70885Y214443D01*
X70936Y214429D01*
X71046Y214392D01*
X71157Y214337D01*
X71213Y214305D01*
X71268Y214263D01*
X71319Y214222D01*
X71365Y214175D01*
X71370Y214171D01*
X71374Y214161D01*
X71388Y214148D01*
X71402Y214124D01*
X71421Y214097D01*
X71439Y214064D01*
X71462Y214028D01*
X71485Y213981D01*
X71508Y213931D01*
X71531Y213875D01*
X71550Y213815D01*
X71569Y213750D01*
X71582Y213681D01*
X71596Y213607D01*
X71601Y213528D01*
X71605Y213445D01*
Y213399D01*
X71601Y213367D01*
X71596Y213330D01*
X71592Y213284D01*
X71582Y213233D01*
X71573Y213182D01*
X71541Y213062D01*
X71495Y212942D01*
X71467Y212882D01*
X71434Y212822D01*
X71393Y212766D01*
X71347Y212715D01*
X71342Y212711D01*
X71337Y212702D01*
X71319Y212692D01*
X71301Y212674D01*
X71277Y212651D01*
X71245Y212628D01*
X71213Y212604D01*
X71171Y212577D01*
X71083Y212531D01*
X70973Y212484D01*
X70917Y212466D01*
X70852Y212457D01*
X70788Y212447D01*
X70718Y212443D01*
X70709D01*
X70686D01*
X70649Y212447D01*
X70598Y212452D01*
X70543Y212461D01*
X70478Y212480D01*
X70409Y212498D01*
X70340Y212526D01*
X70330Y212531D01*
X70307Y212540D01*
X70270Y212558D01*
X70219Y212586D01*
X70164Y212623D01*
X70095Y212669D01*
X70025Y212725D01*
X69947Y212789D01*
X69938Y212799D01*
X69910Y212822D01*
X69887Y212845D01*
X69864Y212868D01*
X69836Y212896D01*
X69799Y212932D01*
X69762Y212969D01*
X69721Y213016D01*
X69674Y213062D01*
X69624Y213117D01*
X69573Y213177D01*
X69513Y213242D01*
X69453Y213316D01*
X69388Y213390D01*
X69383Y213394D01*
X69374Y213404D01*
X69360Y213422D01*
X69342Y213445D01*
X69314Y213473D01*
X69286Y213505D01*
X69226Y213579D01*
X69157Y213658D01*
X69087Y213732D01*
X69028Y213796D01*
X69004Y213824D01*
X68981Y213847D01*
X68977Y213852D01*
X68963Y213866D01*
X68944Y213884D01*
X68917Y213907D01*
X68884Y213931D01*
X68852Y213958D01*
X68773Y214014D01*
Y212438D01*
X68395D01*
Y214559D01*
X68399D01*
X68418D01*
X68445D01*
X68482Y214554D01*
D02*
G37*
G36*
X25834Y41992D02*
X23335D01*
X23339Y41988D01*
X23358Y41965D01*
X23386Y41937D01*
X23418Y41891D01*
X23460Y41840D01*
X23506Y41775D01*
X23557Y41701D01*
X23607Y41618D01*
Y41613D01*
X23612Y41609D01*
X23630Y41581D01*
X23654Y41535D01*
X23681Y41479D01*
X23714Y41415D01*
X23746Y41346D01*
X23778Y41276D01*
X23806Y41207D01*
X23427D01*
Y41212D01*
X23418Y41221D01*
X23413Y41239D01*
X23400Y41262D01*
X23386Y41290D01*
X23367Y41322D01*
X23321Y41401D01*
X23270Y41493D01*
X23205Y41586D01*
X23132Y41683D01*
X23053Y41780D01*
X23048Y41784D01*
X23044Y41789D01*
X23030Y41803D01*
X23016Y41821D01*
X22970Y41863D01*
X22914Y41918D01*
X22850Y41974D01*
X22776Y42034D01*
X22702Y42085D01*
X22623Y42131D01*
Y42385D01*
X25834D01*
Y41992D01*
D02*
G37*
G36*
X24919Y40371D02*
X24956D01*
X25044Y40361D01*
X25146Y40352D01*
X25252Y40334D01*
X25349Y40306D01*
X25442Y40274D01*
X25446D01*
X25451Y40269D01*
X25479Y40255D01*
X25515Y40232D01*
X25566Y40200D01*
X25617Y40154D01*
X25673Y40103D01*
X25728Y40038D01*
X25774Y39964D01*
X25779Y39955D01*
X25793Y39927D01*
X25811Y39886D01*
X25830Y39825D01*
X25853Y39752D01*
X25871Y39668D01*
X25885Y39576D01*
X25890Y39474D01*
Y39433D01*
X25885Y39405D01*
X25880Y39368D01*
X25876Y39331D01*
X25857Y39234D01*
X25830Y39132D01*
X25788Y39026D01*
X25760Y38971D01*
X25728Y38920D01*
X25691Y38874D01*
X25649Y38828D01*
X25645Y38823D01*
X25640Y38818D01*
X25622Y38809D01*
X25603Y38795D01*
X25580Y38777D01*
X25548Y38758D01*
X25511Y38740D01*
X25469Y38717D01*
X25423Y38698D01*
X25368Y38680D01*
X25312Y38661D01*
X25247Y38643D01*
X25178Y38633D01*
X25100Y38620D01*
X25021Y38615D01*
X24933D01*
X24878Y38998D01*
X24882D01*
X24892D01*
X24910D01*
X24938Y39003D01*
X24966Y39008D01*
X24998D01*
X25076Y39022D01*
X25160Y39035D01*
X25243Y39063D01*
X25317Y39091D01*
X25349Y39109D01*
X25377Y39132D01*
X25381Y39137D01*
X25395Y39156D01*
X25418Y39183D01*
X25442Y39220D01*
X25469Y39271D01*
X25488Y39327D01*
X25506Y39396D01*
X25511Y39470D01*
Y39498D01*
X25506Y39525D01*
X25502Y39567D01*
X25492Y39608D01*
X25483Y39654D01*
X25465Y39701D01*
X25442Y39747D01*
X25437Y39752D01*
X25428Y39765D01*
X25409Y39784D01*
X25391Y39812D01*
X25358Y39835D01*
X25326Y39862D01*
X25289Y39886D01*
X25243Y39904D01*
X25238D01*
X25220Y39913D01*
X25187Y39918D01*
X25146Y39927D01*
X25090Y39936D01*
X25021Y39941D01*
X24938Y39950D01*
X24841D01*
X22637D01*
Y40375D01*
X24818D01*
X24822D01*
X24836D01*
X24855D01*
X24882D01*
X24919Y40371D01*
D02*
G37*
G36*
X11048Y179374D02*
X10415D01*
X9657Y181642D01*
Y181647D01*
X9653Y181656D01*
X9648Y181670D01*
X9639Y181693D01*
X9620Y181748D01*
X9597Y181818D01*
X9574Y181896D01*
X9546Y181975D01*
X9523Y182049D01*
X9505Y182113D01*
X9500Y182104D01*
X9496Y182081D01*
X9482Y182039D01*
X9463Y181984D01*
X9440Y181910D01*
X9408Y181822D01*
X9375Y181721D01*
X9334Y181601D01*
X8567Y179374D01*
X7999D01*
Y182571D01*
X8405D01*
Y179896D01*
X9339Y182571D01*
X9717D01*
X10641Y179850D01*
Y182571D01*
X11048D01*
Y179374D01*
D02*
G37*
G36*
X12207D02*
X11783D01*
Y182571D01*
X12207D01*
Y179374D01*
D02*
G37*
G36*
X6118Y182622D02*
X6155D01*
X6202Y182617D01*
X6252Y182612D01*
X6303Y182608D01*
X6419Y182589D01*
X6543Y182562D01*
X6663Y182525D01*
X6779Y182474D01*
X6784D01*
X6793Y182465D01*
X6807Y182455D01*
X6825Y182446D01*
X6876Y182409D01*
X6936Y182358D01*
X7005Y182294D01*
X7070Y182220D01*
X7135Y182127D01*
X7186Y182026D01*
Y182021D01*
X7190Y182012D01*
X7195Y181993D01*
X7204Y181970D01*
X7213Y181942D01*
X7222Y181905D01*
X7236Y181864D01*
X7246Y181813D01*
X7255Y181758D01*
X7269Y181698D01*
X7278Y181633D01*
X7287Y181564D01*
X7297Y181485D01*
X7301Y181402D01*
X7306Y181314D01*
Y181222D01*
Y179374D01*
X6881D01*
Y181222D01*
Y181226D01*
Y181240D01*
Y181263D01*
Y181291D01*
X6876Y181323D01*
Y181365D01*
X6871Y181453D01*
X6862Y181554D01*
X6848Y181656D01*
X6830Y181753D01*
X6821Y181795D01*
X6807Y181836D01*
X6802Y181845D01*
X6793Y181869D01*
X6770Y181901D01*
X6742Y181947D01*
X6710Y181993D01*
X6663Y182044D01*
X6608Y182095D01*
X6543Y182136D01*
X6534Y182141D01*
X6511Y182155D01*
X6470Y182169D01*
X6414Y182187D01*
X6349Y182210D01*
X6266Y182224D01*
X6178Y182238D01*
X6081Y182243D01*
X6035D01*
X6007Y182238D01*
X5966D01*
X5924Y182234D01*
X5823Y182215D01*
X5712Y182192D01*
X5606Y182155D01*
X5504Y182104D01*
X5458Y182072D01*
X5416Y182035D01*
X5412Y182030D01*
X5407Y182026D01*
X5398Y182012D01*
X5384Y181993D01*
X5370Y181966D01*
X5351Y181938D01*
X5333Y181896D01*
X5314Y181855D01*
X5296Y181804D01*
X5282Y181744D01*
X5264Y181675D01*
X5250Y181601D01*
X5236Y181517D01*
X5227Y181430D01*
X5218Y181328D01*
Y181222D01*
Y179374D01*
X4792D01*
Y181222D01*
Y181226D01*
Y181245D01*
Y181268D01*
Y181300D01*
X4797Y181342D01*
Y181388D01*
X4802Y181444D01*
X4806Y181499D01*
X4820Y181624D01*
X4839Y181753D01*
X4866Y181878D01*
X4885Y181938D01*
X4903Y181993D01*
Y181998D01*
X4908Y182007D01*
X4917Y182021D01*
X4926Y182039D01*
X4954Y182090D01*
X4996Y182155D01*
X5051Y182229D01*
X5116Y182303D01*
X5199Y182381D01*
X5301Y182451D01*
X5305D01*
X5314Y182460D01*
X5328Y182465D01*
X5351Y182478D01*
X5379Y182492D01*
X5416Y182506D01*
X5453Y182520D01*
X5499Y182538D01*
X5550Y182557D01*
X5606Y182571D01*
X5666Y182585D01*
X5735Y182598D01*
X5804Y182608D01*
X5878Y182617D01*
X6044Y182626D01*
X6086D01*
X6118Y182622D01*
D02*
G37*
G36*
X13958Y78649D02*
X14000Y78645D01*
X14051Y78640D01*
X14101Y78636D01*
X14162Y78622D01*
X14286Y78594D01*
X14425Y78552D01*
X14494Y78525D01*
X14559Y78492D01*
X14624Y78451D01*
X14688Y78409D01*
X14693Y78404D01*
X14702Y78400D01*
X14720Y78386D01*
X14744Y78363D01*
X14767Y78340D01*
X14799Y78307D01*
X14831Y78271D01*
X14868Y78233D01*
X14905Y78187D01*
X14942Y78132D01*
X14984Y78076D01*
X15021Y78016D01*
X15053Y77947D01*
X15090Y77878D01*
X15118Y77804D01*
X15146Y77721D01*
X14730Y77624D01*
Y77628D01*
X14725Y77638D01*
X14716Y77656D01*
X14707Y77679D01*
X14697Y77707D01*
X14683Y77744D01*
X14647Y77818D01*
X14600Y77901D01*
X14545Y77984D01*
X14476Y78063D01*
X14402Y78132D01*
X14392Y78141D01*
X14365Y78160D01*
X14319Y78183D01*
X14258Y78215D01*
X14180Y78243D01*
X14092Y78271D01*
X13986Y78289D01*
X13870Y78294D01*
X13833D01*
X13810Y78289D01*
X13778D01*
X13741Y78284D01*
X13653Y78271D01*
X13556Y78252D01*
X13455Y78220D01*
X13348Y78174D01*
X13251Y78113D01*
X13247D01*
X13242Y78104D01*
X13210Y78081D01*
X13168Y78044D01*
X13117Y77989D01*
X13057Y77919D01*
X13002Y77841D01*
X12951Y77744D01*
X12905Y77638D01*
Y77633D01*
X12900Y77624D01*
X12896Y77610D01*
X12891Y77587D01*
X12882Y77559D01*
X12873Y77527D01*
X12859Y77448D01*
X12840Y77356D01*
X12822Y77254D01*
X12812Y77143D01*
X12808Y77023D01*
Y77018D01*
Y77005D01*
Y76982D01*
Y76954D01*
X12812Y76921D01*
Y76880D01*
X12817Y76834D01*
X12822Y76783D01*
X12835Y76672D01*
X12859Y76552D01*
X12886Y76432D01*
X12923Y76312D01*
Y76307D01*
X12928Y76298D01*
X12937Y76284D01*
X12946Y76261D01*
X12974Y76205D01*
X13016Y76141D01*
X13067Y76067D01*
X13131Y75988D01*
X13205Y75919D01*
X13293Y75854D01*
X13297D01*
X13307Y75850D01*
X13321Y75840D01*
X13339Y75831D01*
X13362Y75822D01*
X13390Y75808D01*
X13455Y75780D01*
X13538Y75753D01*
X13630Y75730D01*
X13732Y75711D01*
X13838Y75706D01*
X13870D01*
X13898Y75711D01*
X13930D01*
X13963Y75716D01*
X14046Y75734D01*
X14143Y75757D01*
X14240Y75794D01*
X14342Y75845D01*
X14392Y75873D01*
X14439Y75910D01*
X14443Y75914D01*
X14448Y75919D01*
X14462Y75933D01*
X14480Y75947D01*
X14499Y75970D01*
X14522Y75998D01*
X14549Y76025D01*
X14573Y76062D01*
X14600Y76104D01*
X14633Y76150D01*
X14660Y76196D01*
X14688Y76252D01*
X14711Y76312D01*
X14734Y76376D01*
X14758Y76446D01*
X14776Y76520D01*
X15201Y76413D01*
Y76409D01*
X15196Y76390D01*
X15187Y76362D01*
X15173Y76326D01*
X15159Y76284D01*
X15141Y76233D01*
X15118Y76178D01*
X15090Y76118D01*
X15025Y75988D01*
X14942Y75859D01*
X14891Y75794D01*
X14841Y75730D01*
X14785Y75674D01*
X14720Y75619D01*
X14716Y75614D01*
X14707Y75605D01*
X14683Y75595D01*
X14660Y75577D01*
X14624Y75554D01*
X14586Y75531D01*
X14536Y75508D01*
X14485Y75485D01*
X14425Y75457D01*
X14360Y75434D01*
X14291Y75411D01*
X14217Y75388D01*
X14138Y75369D01*
X14055Y75360D01*
X13967Y75351D01*
X13875Y75346D01*
X13824D01*
X13787Y75351D01*
X13746D01*
X13695Y75355D01*
X13639Y75365D01*
X13575Y75374D01*
X13441Y75397D01*
X13302Y75434D01*
X13164Y75485D01*
X13099Y75517D01*
X13034Y75554D01*
X13030Y75559D01*
X13020Y75563D01*
X13002Y75577D01*
X12983Y75595D01*
X12956Y75614D01*
X12923Y75642D01*
X12886Y75674D01*
X12849Y75711D01*
X12812Y75753D01*
X12771Y75794D01*
X12688Y75900D01*
X12609Y76025D01*
X12540Y76164D01*
Y76168D01*
X12531Y76182D01*
X12526Y76205D01*
X12512Y76233D01*
X12503Y76270D01*
X12489Y76316D01*
X12471Y76367D01*
X12457Y76423D01*
X12443Y76483D01*
X12424Y76552D01*
X12401Y76695D01*
X12383Y76857D01*
X12374Y77023D01*
Y77028D01*
Y77046D01*
Y77074D01*
X12378Y77106D01*
Y77153D01*
X12383Y77199D01*
X12387Y77259D01*
X12397Y77319D01*
X12420Y77453D01*
X12452Y77601D01*
X12498Y77748D01*
X12563Y77892D01*
X12568Y77896D01*
X12572Y77910D01*
X12581Y77929D01*
X12600Y77952D01*
X12618Y77984D01*
X12641Y78021D01*
X12702Y78104D01*
X12780Y78197D01*
X12873Y78289D01*
X12979Y78381D01*
X13104Y78460D01*
X13108Y78465D01*
X13122Y78469D01*
X13140Y78478D01*
X13164Y78492D01*
X13201Y78506D01*
X13238Y78520D01*
X13284Y78539D01*
X13334Y78557D01*
X13390Y78575D01*
X13450Y78594D01*
X13579Y78622D01*
X13727Y78645D01*
X13880Y78654D01*
X13926D01*
X13958Y78649D01*
D02*
G37*
G36*
X16698Y78608D02*
X16735Y78603D01*
X16781Y78598D01*
X16832Y78589D01*
X16883Y78580D01*
X17003Y78548D01*
X17123Y78501D01*
X17183Y78474D01*
X17243Y78441D01*
X17298Y78400D01*
X17349Y78354D01*
X17354Y78349D01*
X17363Y78344D01*
X17372Y78326D01*
X17391Y78307D01*
X17414Y78284D01*
X17437Y78252D01*
X17460Y78220D01*
X17488Y78178D01*
X17534Y78090D01*
X17580Y77979D01*
X17599Y77924D01*
X17608Y77859D01*
X17617Y77795D01*
X17622Y77725D01*
Y77716D01*
Y77693D01*
X17617Y77656D01*
X17613Y77605D01*
X17603Y77550D01*
X17585Y77485D01*
X17566Y77416D01*
X17539Y77346D01*
X17534Y77337D01*
X17525Y77314D01*
X17506Y77277D01*
X17479Y77226D01*
X17442Y77171D01*
X17395Y77102D01*
X17340Y77032D01*
X17275Y76954D01*
X17266Y76945D01*
X17243Y76917D01*
X17220Y76894D01*
X17197Y76871D01*
X17169Y76843D01*
X17132Y76806D01*
X17095Y76769D01*
X17049Y76727D01*
X17003Y76681D01*
X16947Y76630D01*
X16887Y76580D01*
X16823Y76520D01*
X16749Y76459D01*
X16675Y76395D01*
X16670Y76390D01*
X16661Y76381D01*
X16642Y76367D01*
X16619Y76349D01*
X16592Y76321D01*
X16559Y76293D01*
X16485Y76233D01*
X16407Y76164D01*
X16333Y76095D01*
X16268Y76034D01*
X16240Y76011D01*
X16217Y75988D01*
X16213Y75984D01*
X16199Y75970D01*
X16180Y75951D01*
X16157Y75924D01*
X16134Y75891D01*
X16106Y75859D01*
X16051Y75780D01*
X17627D01*
Y75402D01*
X15506D01*
Y75406D01*
Y75425D01*
Y75452D01*
X15510Y75489D01*
X15515Y75531D01*
X15524Y75577D01*
X15534Y75623D01*
X15552Y75674D01*
Y75679D01*
X15557Y75683D01*
X15566Y75711D01*
X15584Y75753D01*
X15612Y75808D01*
X15649Y75873D01*
X15695Y75947D01*
X15746Y76021D01*
X15811Y76099D01*
Y76104D01*
X15820Y76108D01*
X15843Y76136D01*
X15885Y76178D01*
X15945Y76238D01*
X16014Y76307D01*
X16102Y76390D01*
X16208Y76483D01*
X16324Y76580D01*
X16328Y76584D01*
X16347Y76598D01*
X16374Y76621D01*
X16407Y76649D01*
X16448Y76686D01*
X16499Y76727D01*
X16550Y76774D01*
X16610Y76824D01*
X16726Y76935D01*
X16841Y77046D01*
X16896Y77102D01*
X16947Y77157D01*
X16994Y77208D01*
X17030Y77259D01*
Y77263D01*
X17040Y77268D01*
X17049Y77282D01*
X17058Y77300D01*
X17090Y77351D01*
X17128Y77411D01*
X17160Y77485D01*
X17192Y77564D01*
X17211Y77651D01*
X17220Y77735D01*
Y77739D01*
Y77744D01*
X17215Y77772D01*
X17211Y77818D01*
X17197Y77869D01*
X17178Y77933D01*
X17146Y77998D01*
X17104Y78063D01*
X17049Y78127D01*
X17040Y78136D01*
X17017Y78155D01*
X16984Y78178D01*
X16933Y78210D01*
X16869Y78238D01*
X16795Y78266D01*
X16707Y78284D01*
X16610Y78289D01*
X16582D01*
X16564Y78284D01*
X16508Y78280D01*
X16444Y78266D01*
X16374Y78247D01*
X16296Y78215D01*
X16222Y78174D01*
X16153Y78118D01*
X16143Y78109D01*
X16125Y78086D01*
X16097Y78049D01*
X16070Y77993D01*
X16037Y77929D01*
X16010Y77846D01*
X15991Y77753D01*
X15982Y77647D01*
X15580Y77688D01*
Y77693D01*
X15584Y77707D01*
Y77730D01*
X15589Y77762D01*
X15598Y77799D01*
X15608Y77841D01*
X15621Y77892D01*
X15635Y77943D01*
X15672Y78053D01*
X15728Y78164D01*
X15760Y78220D01*
X15802Y78275D01*
X15843Y78326D01*
X15889Y78372D01*
X15894Y78377D01*
X15903Y78381D01*
X15917Y78395D01*
X15940Y78409D01*
X15968Y78428D01*
X16000Y78446D01*
X16037Y78469D01*
X16083Y78492D01*
X16134Y78515D01*
X16190Y78539D01*
X16250Y78557D01*
X16314Y78575D01*
X16384Y78589D01*
X16458Y78603D01*
X16536Y78608D01*
X16619Y78612D01*
X16666D01*
X16698Y78608D01*
D02*
G37*
G36*
X49752Y78649D02*
X49793Y78645D01*
X49844Y78640D01*
X49895Y78636D01*
X49955Y78622D01*
X50080Y78594D01*
X50218Y78552D01*
X50287Y78525D01*
X50352Y78492D01*
X50417Y78451D01*
X50481Y78409D01*
X50486Y78404D01*
X50495Y78400D01*
X50514Y78386D01*
X50537Y78363D01*
X50560Y78340D01*
X50592Y78307D01*
X50625Y78271D01*
X50662Y78233D01*
X50699Y78187D01*
X50736Y78132D01*
X50777Y78076D01*
X50814Y78016D01*
X50846Y77947D01*
X50884Y77878D01*
X50911Y77804D01*
X50939Y77721D01*
X50523Y77624D01*
Y77628D01*
X50519Y77638D01*
X50509Y77656D01*
X50500Y77679D01*
X50491Y77707D01*
X50477Y77744D01*
X50440Y77818D01*
X50394Y77901D01*
X50338Y77984D01*
X50269Y78063D01*
X50195Y78132D01*
X50186Y78141D01*
X50158Y78160D01*
X50112Y78183D01*
X50052Y78215D01*
X49973Y78243D01*
X49885Y78271D01*
X49779Y78289D01*
X49664Y78294D01*
X49627D01*
X49604Y78289D01*
X49571D01*
X49534Y78284D01*
X49447Y78271D01*
X49350Y78252D01*
X49248Y78220D01*
X49142Y78174D01*
X49045Y78113D01*
X49040D01*
X49036Y78104D01*
X49003Y78081D01*
X48961Y78044D01*
X48911Y77989D01*
X48851Y77919D01*
X48795Y77841D01*
X48744Y77744D01*
X48698Y77638D01*
Y77633D01*
X48694Y77624D01*
X48689Y77610D01*
X48684Y77587D01*
X48675Y77559D01*
X48666Y77527D01*
X48652Y77448D01*
X48634Y77356D01*
X48615Y77254D01*
X48606Y77143D01*
X48601Y77023D01*
Y77018D01*
Y77005D01*
Y76982D01*
Y76954D01*
X48606Y76921D01*
Y76880D01*
X48610Y76834D01*
X48615Y76783D01*
X48629Y76672D01*
X48652Y76552D01*
X48680Y76432D01*
X48717Y76312D01*
Y76307D01*
X48721Y76298D01*
X48730Y76284D01*
X48740Y76261D01*
X48768Y76205D01*
X48809Y76141D01*
X48860Y76067D01*
X48925Y75988D01*
X48998Y75919D01*
X49086Y75854D01*
X49091D01*
X49100Y75850D01*
X49114Y75840D01*
X49132Y75831D01*
X49156Y75822D01*
X49183Y75808D01*
X49248Y75780D01*
X49331Y75753D01*
X49424Y75730D01*
X49525Y75711D01*
X49631Y75706D01*
X49664D01*
X49692Y75711D01*
X49724D01*
X49756Y75716D01*
X49839Y75734D01*
X49936Y75757D01*
X50033Y75794D01*
X50135Y75845D01*
X50186Y75873D01*
X50232Y75910D01*
X50237Y75914D01*
X50241Y75919D01*
X50255Y75933D01*
X50274Y75947D01*
X50292Y75970D01*
X50315Y75998D01*
X50343Y76025D01*
X50366Y76062D01*
X50394Y76104D01*
X50426Y76150D01*
X50454Y76196D01*
X50481Y76252D01*
X50505Y76312D01*
X50528Y76376D01*
X50551Y76446D01*
X50569Y76520D01*
X50994Y76413D01*
Y76409D01*
X50990Y76390D01*
X50981Y76362D01*
X50967Y76326D01*
X50953Y76284D01*
X50934Y76233D01*
X50911Y76178D01*
X50884Y76118D01*
X50819Y75988D01*
X50736Y75859D01*
X50685Y75794D01*
X50634Y75730D01*
X50578Y75674D01*
X50514Y75619D01*
X50509Y75614D01*
X50500Y75605D01*
X50477Y75595D01*
X50454Y75577D01*
X50417Y75554D01*
X50380Y75531D01*
X50329Y75508D01*
X50278Y75485D01*
X50218Y75457D01*
X50153Y75434D01*
X50084Y75411D01*
X50010Y75388D01*
X49932Y75369D01*
X49849Y75360D01*
X49761Y75351D01*
X49668Y75346D01*
X49618D01*
X49581Y75351D01*
X49539D01*
X49488Y75355D01*
X49433Y75365D01*
X49368Y75374D01*
X49234Y75397D01*
X49095Y75434D01*
X48957Y75485D01*
X48892Y75517D01*
X48828Y75554D01*
X48823Y75559D01*
X48814Y75563D01*
X48795Y75577D01*
X48777Y75595D01*
X48749Y75614D01*
X48717Y75642D01*
X48680Y75674D01*
X48643Y75711D01*
X48606Y75753D01*
X48564Y75794D01*
X48481Y75900D01*
X48403Y76025D01*
X48333Y76164D01*
Y76168D01*
X48324Y76182D01*
X48319Y76205D01*
X48305Y76233D01*
X48296Y76270D01*
X48282Y76316D01*
X48264Y76367D01*
X48250Y76423D01*
X48236Y76483D01*
X48218Y76552D01*
X48195Y76695D01*
X48176Y76857D01*
X48167Y77023D01*
Y77028D01*
Y77046D01*
Y77074D01*
X48171Y77106D01*
Y77153D01*
X48176Y77199D01*
X48181Y77259D01*
X48190Y77319D01*
X48213Y77453D01*
X48245Y77601D01*
X48292Y77748D01*
X48356Y77892D01*
X48361Y77896D01*
X48366Y77910D01*
X48375Y77929D01*
X48393Y77952D01*
X48412Y77984D01*
X48435Y78021D01*
X48495Y78104D01*
X48573Y78197D01*
X48666Y78289D01*
X48772Y78381D01*
X48897Y78460D01*
X48902Y78465D01*
X48915Y78469D01*
X48934Y78478D01*
X48957Y78492D01*
X48994Y78506D01*
X49031Y78520D01*
X49077Y78539D01*
X49128Y78557D01*
X49183Y78575D01*
X49243Y78594D01*
X49373Y78622D01*
X49521Y78645D01*
X49673Y78654D01*
X49719D01*
X49752Y78649D01*
D02*
G37*
G36*
X52833Y75402D02*
X52440D01*
Y77901D01*
X52436Y77896D01*
X52413Y77878D01*
X52385Y77850D01*
X52339Y77818D01*
X52288Y77776D01*
X52223Y77730D01*
X52149Y77679D01*
X52066Y77628D01*
X52062D01*
X52057Y77624D01*
X52029Y77605D01*
X51983Y77582D01*
X51928Y77554D01*
X51863Y77522D01*
X51794Y77490D01*
X51724Y77457D01*
X51655Y77430D01*
Y77808D01*
X51660D01*
X51669Y77818D01*
X51687Y77822D01*
X51710Y77836D01*
X51738Y77850D01*
X51771Y77869D01*
X51849Y77915D01*
X51941Y77966D01*
X52034Y78030D01*
X52131Y78104D01*
X52228Y78183D01*
X52232Y78187D01*
X52237Y78192D01*
X52251Y78206D01*
X52270Y78220D01*
X52311Y78266D01*
X52367Y78321D01*
X52422Y78386D01*
X52482Y78460D01*
X52533Y78534D01*
X52579Y78612D01*
X52833D01*
Y75402D01*
D02*
G37*
%LPC*%
G36*
X71634Y204653D02*
X70576D01*
Y203701D01*
X70580Y203646D01*
X70585Y203581D01*
X70590Y203507D01*
X70599Y203433D01*
X70613Y203359D01*
X70631Y203295D01*
X70636Y203285D01*
X70645Y203267D01*
X70659Y203239D01*
X70677Y203202D01*
X70705Y203161D01*
X70737Y203119D01*
X70779Y203078D01*
X70825Y203045D01*
X70830Y203041D01*
X70848Y203031D01*
X70876Y203017D01*
X70913Y202999D01*
X70955Y202985D01*
X71001Y202971D01*
X71056Y202962D01*
X71112Y202957D01*
X71116D01*
X71121D01*
X71149Y202962D01*
X71190Y202967D01*
X71246Y202976D01*
X71301Y202999D01*
X71366Y203027D01*
X71426Y203068D01*
X71486Y203124D01*
X71490Y203133D01*
X71509Y203156D01*
X71532Y203193D01*
X71560Y203253D01*
X71588Y203322D01*
X71611Y203415D01*
X71629Y203521D01*
X71634Y203646D01*
Y204653D01*
D02*
G37*
G36*
X70736Y228843D02*
X69678D01*
Y227892D01*
X69683Y227836D01*
X69687Y227771D01*
X69692Y227698D01*
X69701Y227624D01*
X69715Y227550D01*
X69733Y227485D01*
X69738Y227476D01*
X69747Y227457D01*
X69761Y227430D01*
X69779Y227393D01*
X69807Y227351D01*
X69840Y227309D01*
X69881Y227268D01*
X69927Y227236D01*
X69932Y227231D01*
X69950Y227222D01*
X69978Y227208D01*
X70015Y227189D01*
X70057Y227176D01*
X70103Y227162D01*
X70158Y227152D01*
X70214Y227148D01*
X70218D01*
X70223D01*
X70251Y227152D01*
X70292Y227157D01*
X70348Y227166D01*
X70403Y227189D01*
X70468Y227217D01*
X70528Y227259D01*
X70588Y227314D01*
X70593Y227323D01*
X70611Y227346D01*
X70634Y227383D01*
X70662Y227444D01*
X70690Y227513D01*
X70713Y227605D01*
X70731Y227712D01*
X70736Y227836D01*
Y228843D01*
D02*
G37*
G36*
X71236Y217137D02*
X70178D01*
Y216185D01*
X70183Y216130D01*
X70187Y216065D01*
X70192Y215991D01*
X70201Y215917D01*
X70215Y215843D01*
X70233Y215778D01*
X70238Y215769D01*
X70247Y215751D01*
X70261Y215723D01*
X70280Y215686D01*
X70307Y215645D01*
X70340Y215603D01*
X70381Y215561D01*
X70427Y215529D01*
X70432Y215524D01*
X70451Y215515D01*
X70478Y215501D01*
X70515Y215483D01*
X70557Y215469D01*
X70603Y215455D01*
X70658Y215446D01*
X70714Y215441D01*
X70718D01*
X70723D01*
X70751Y215446D01*
X70792Y215450D01*
X70848Y215460D01*
X70903Y215483D01*
X70968Y215511D01*
X71028Y215552D01*
X71088Y215608D01*
X71093Y215617D01*
X71111Y215640D01*
X71134Y215677D01*
X71162Y215737D01*
X71190Y215806D01*
X71213Y215899D01*
X71231Y216005D01*
X71236Y216130D01*
Y217137D01*
D02*
G37*
%LPD*%
D10*
X18646Y9551D02*
X17908Y9977D01*
Y9125D01*
X18646Y9551D01*
D11*
X23114Y18606D02*
X22570Y19355D01*
X21690Y19069D01*
Y18144D01*
X22570Y17857D01*
X23114Y18606D01*
D12*
X16094Y60126D02*
X16175Y59154D01*
X16414Y58209D01*
X16806Y57315D01*
X17340Y56499D01*
X18000Y55781D01*
X18770Y55182D01*
X19628Y54718D01*
X20550Y54401D01*
X21512Y54241D01*
X22488D01*
X23450Y54401D01*
X24372Y54718D01*
X25230Y55182D01*
X26000Y55781D01*
X26660Y56499D01*
X27194Y57315D01*
X27586Y58209D01*
X27825Y59154D01*
X27905Y60126D01*
Y66031D02*
X27913Y67016D01*
X27758Y67988D01*
X27444Y68921D01*
X26980Y69789D01*
X26379Y70568D01*
X25658Y71237D01*
X24835Y71778D01*
X23935Y72176D01*
X22981Y72418D01*
X22000Y72500D01*
X21019Y72418D01*
X20065Y72176D01*
X19165Y71778D01*
X18342Y71237D01*
X17621Y70568D01*
X17020Y69789D01*
X16556Y68921D01*
X16242Y67988D01*
X16087Y67016D01*
X16094Y66031D01*
X27906Y60126D02*
Y66032D01*
X16094Y60126D02*
Y66032D01*
X38740Y53000D02*
X41063D01*
X38701Y73000D02*
X38740Y53000D01*
X38701Y73000D02*
X41063D01*
X48937Y53000D02*
X51299D01*
Y73000D01*
X48937D02*
X51299D01*
D13*
X22197Y75283D02*
D03*
D14*
X1500Y175500D02*
X71500D01*
Y1500D02*
Y175500D01*
X1500Y1500D02*
X71500D01*
X1500D02*
Y175500D01*
D15*
X30720Y197579D02*
Y207421D01*
Y197579D02*
X58280D01*
Y207421D01*
X30720D02*
X58280D01*
X19177Y15457D02*
X53823D01*
X19177Y22543D02*
X53823D01*
X19177Y15457D02*
Y22543D01*
X53823Y15457D02*
Y22543D01*
X30720Y210079D02*
Y219921D01*
Y210079D02*
X58280D01*
Y219921D01*
X30720D02*
X58280D01*
X30720Y222579D02*
Y232421D01*
Y222579D02*
X58280D01*
Y232421D01*
X30720D02*
X58280D01*
X34714Y43461D02*
X35286D01*
X34714Y38539D02*
X35286D01*
X66248Y184500D02*
Y194500D01*
X4752Y184500D02*
X66248D01*
X4752D02*
Y194500D01*
X66248D01*
M02*
