G04*
G04 #@! TF.GenerationSoftware,Altium Limited,Altium Designer,23.2.1 (34)*
G04*
G04 Layer_Color=16711935*
%FSLAX25Y25*%
%MOIN*%
G70*
G04*
G04 #@! TF.SameCoordinates,08813931-105C-4D26-8E83-7783437ACDD9*
G04*
G04*
G04 #@! TF.FilePolarity,Positive*
G04*
G01*
G75*
%ADD12C,0.00394*%
%ADD14C,0.00500*%
%ADD15C,0.00787*%
D12*
X24787Y14669D02*
X24524Y15653D01*
X23803Y16374D01*
X22819Y16638D01*
X21835Y16374D01*
X21114Y15653D01*
X20850Y14669D01*
X21114Y13685D01*
X21835Y12965D01*
X22819Y12701D01*
X23803Y12965D01*
X24524Y13685D01*
X24787Y14669D01*
X30720Y197579D02*
Y207421D01*
X58280D01*
Y197579D02*
Y207421D01*
X30720Y197579D02*
X58280D01*
X19276Y11126D02*
X53724D01*
X19276Y26874D02*
X53724D01*
X19276Y11126D02*
Y26874D01*
X53724Y11126D02*
Y26874D01*
X30720Y210079D02*
Y219921D01*
X58280D01*
Y210079D02*
Y219921D01*
X30720Y210079D02*
X58280D01*
X30720Y222579D02*
Y232421D01*
X58280D01*
Y222579D02*
Y232421D01*
X30720Y222579D02*
X58280D01*
X66248Y184500D02*
Y194500D01*
X4752Y184500D02*
X66248D01*
X4752D02*
Y194500D01*
X66248D01*
D14*
X1500Y175500D02*
X71500D01*
X1500Y2000D02*
Y175500D01*
Y2000D02*
X21307D01*
X71500D02*
Y175500D01*
X48311Y2000D02*
X71500D01*
X24807D02*
X48311D01*
X21307D02*
X44811D01*
D15*
X16094Y60126D02*
X16175Y59154D01*
X16414Y58209D01*
X16806Y57315D01*
X17340Y56499D01*
X18000Y55781D01*
X18770Y55182D01*
X19628Y54718D01*
X20550Y54401D01*
X21512Y54241D01*
X22488D01*
X23450Y54401D01*
X24372Y54718D01*
X25230Y55182D01*
X26000Y55781D01*
X26660Y56499D01*
X27194Y57315D01*
X27586Y58209D01*
X27825Y59154D01*
X27905Y60126D01*
Y66031D02*
X27913Y67016D01*
X27758Y67988D01*
X27444Y68921D01*
X26980Y69789D01*
X26379Y70568D01*
X25658Y71237D01*
X24835Y71778D01*
X23935Y72176D01*
X22981Y72418D01*
X22000Y72500D01*
X21019Y72418D01*
X20065Y72176D01*
X19165Y71778D01*
X18342Y71237D01*
X17621Y70568D01*
X17020Y69789D01*
X16556Y68921D01*
X16242Y67988D01*
X16087Y67016D01*
X16094Y66031D01*
X27906Y60126D02*
Y66032D01*
X16094Y60126D02*
Y66032D01*
X38740Y73000D02*
X51260D01*
X38740Y53000D02*
Y73000D01*
Y53000D02*
X51260D01*
Y73000D01*
M02*
