G04*
G04 #@! TF.GenerationSoftware,Altium Limited,Altium Designer,23.2.1 (34)*
G04*
G04 Layer_Color=16711935*
%FSLAX25Y25*%
%MOIN*%
G70*
G04*
G04 #@! TF.SameCoordinates,08813931-105C-4D26-8E83-7783437ACDD9*
G04*
G04*
G04 #@! TF.FilePolarity,Positive*
G04*
G01*
G75*
%ADD15C,0.00787*%
G36*
X34378Y40996D02*
X34407Y40993D01*
X34436Y40989D01*
X34512Y40975D01*
X34592Y40953D01*
X34676Y40920D01*
X34720Y40898D01*
X34760Y40873D01*
X34796Y40843D01*
X34833Y40811D01*
X34836Y40807D01*
X34840Y40804D01*
X34847Y40789D01*
X34858Y40774D01*
X34873Y40756D01*
X34887Y40731D01*
X34902Y40701D01*
X34920Y40669D01*
X34934Y40632D01*
X34949Y40589D01*
X34964Y40545D01*
X34978Y40494D01*
X34986Y40440D01*
X34996Y40378D01*
X35000Y40316D01*
Y40247D01*
X34698Y40203D01*
Y40207D01*
Y40214D01*
Y40228D01*
X34694Y40250D01*
X34691Y40272D01*
Y40297D01*
X34680Y40359D01*
X34669Y40425D01*
X34647Y40490D01*
X34625Y40549D01*
X34611Y40574D01*
X34592Y40596D01*
X34589Y40600D01*
X34574Y40611D01*
X34552Y40629D01*
X34523Y40647D01*
X34483Y40669D01*
X34440Y40683D01*
X34385Y40698D01*
X34327Y40701D01*
X34305D01*
X34283Y40698D01*
X34250Y40694D01*
X34217Y40687D01*
X34181Y40680D01*
X34145Y40665D01*
X34108Y40647D01*
X34105Y40643D01*
X34094Y40636D01*
X34079Y40622D01*
X34057Y40607D01*
X34039Y40581D01*
X34017Y40556D01*
X33999Y40527D01*
X33985Y40490D01*
Y40487D01*
X33977Y40472D01*
X33974Y40447D01*
X33966Y40414D01*
X33959Y40370D01*
X33955Y40316D01*
X33948Y40250D01*
Y40174D01*
Y38438D01*
X33613D01*
Y40156D01*
Y40159D01*
Y40170D01*
Y40185D01*
Y40207D01*
X33617Y40236D01*
Y40265D01*
X33624Y40334D01*
X33631Y40414D01*
X33646Y40498D01*
X33668Y40574D01*
X33693Y40647D01*
Y40651D01*
X33697Y40654D01*
X33708Y40676D01*
X33726Y40705D01*
X33751Y40745D01*
X33788Y40785D01*
X33828Y40829D01*
X33879Y40873D01*
X33937Y40909D01*
X33944Y40913D01*
X33966Y40924D01*
X33999Y40938D01*
X34046Y40953D01*
X34105Y40971D01*
X34170Y40986D01*
X34243Y40996D01*
X34323Y41000D01*
X34356D01*
X34378Y40996D01*
D02*
G37*
G36*
X32339Y38987D02*
X32343Y38991D01*
X32361Y39005D01*
X32383Y39027D01*
X32419Y39053D01*
X32459Y39085D01*
X32510Y39122D01*
X32568Y39162D01*
X32634Y39202D01*
X32638D01*
X32641Y39206D01*
X32663Y39220D01*
X32699Y39238D01*
X32743Y39260D01*
X32794Y39286D01*
X32849Y39311D01*
X32903Y39336D01*
X32958Y39358D01*
Y39060D01*
X32954D01*
X32947Y39053D01*
X32932Y39049D01*
X32914Y39038D01*
X32893Y39027D01*
X32867Y39013D01*
X32805Y38976D01*
X32732Y38936D01*
X32660Y38885D01*
X32583Y38827D01*
X32507Y38765D01*
X32503Y38761D01*
X32499Y38758D01*
X32488Y38747D01*
X32474Y38736D01*
X32441Y38699D01*
X32397Y38656D01*
X32354Y38605D01*
X32306Y38547D01*
X32266Y38488D01*
X32230Y38427D01*
X32030D01*
Y40956D01*
X32339D01*
Y38987D01*
D02*
G37*
D15*
X41709Y37244D02*
Y44756D01*
X28291D02*
X41709D01*
X28291Y37244D02*
Y44756D01*
Y37244D02*
X41709D01*
M02*
